<?xml version="1.0" encoding="UTF-8" standalone="no"?>
				  <svg
				  xmlns:rdf="http://www.w3.org/1999/02/22-rdf-syntax-ns#"
				  xmlns:svg="http://www.w3.org/2000/svg"
				  xmlns="http://www.w3.org/2000/svg"
				  xmlns:xlink="http://www.w3.org/1999/xlink"
				  version="1.1"  width="440" height="293">
<path style="fill:#b2b2b2; stroke:none;" d="M7 7L8 8L8 6C10.3559 4.29504 12.2088 2.81903 15 2L15 0C10.7932 1.14832 8.74225 3.00726 7 7z"/>
<path style="fill:#333333; stroke:none;" d="M7 275L8 274L8 270L10 270L11 275L13 275L13 273C7.70219 250.748 12 222.881 12 200L12 51L13 52L14 83L15 82C15.8742 79.9479 15.9528 78.2528 16 76L18 76C18.6498 77.2997 18.1468 77 20 77L20 75L20 59L21 60L21 64L22 63L22 38L24 38L153 38L152 37L51 36L51 34L57 34L56 33L58 32L57 31L55 31C56.776 22.7071 63.8022 17.1556 64 9L67 9C68.4215 7.21149 68.6974 6.29425 69 4L64 4L64 2L115 1L114 0L39 0C30.7324 0 17.2108 -2.69824 10.6698 3.54938C5.54745 8.44186 7 16.5839 7 23L7 73L7 275z"/>
<path style="fill:#131313; stroke:none;" d="M64 2L64 4L69 4L69 6C67.2827 7.83987 66.4344 8.3486 64 9L64 11C62.434 18.562 55.9009 22.4266 55 31L57 31L58 32L56 32L57 34L51 34L51 36C85.2255 36.2833 122.052 33.7096 156 38L156 40L156 181L156 218C156 222.065 157.331 229.148 154.972 232.682C151.368 238.083 131.943 235 126 235L49 235C43.4495 235 26.4441 237.802 23.0278 232.682C20.7923 229.332 22 222.843 22 219L22 185C22 143.217 24.2845 100.619 21 59L20 60L20 77L18 77C17.3501 75.7003 17.8532 76 16 76L16 78L15 83L14 82L13 51L12 52L12 200C12 224.147 8.59132 251.253 13 275L11 275L10 270L8 270L8 272C9.11766 289.357 39.4733 283 52 283L134 283C142.94 283 157.591 285.911 164.566 279.12C169.505 274.311 168 262.351 168 256L170 256L343 256C359.045 256 375.021 256.184 391 255.09C400.755 254.421 410.109 254.992 418.996 249.875C433.268 241.657 431.334 215.283 431.961 201C433.853 157.85 432 114.196 432 71C432 55.5916 435.537 33.8327 420.999 23.804C414.668 19.4367 403.52 19.0121 396 19L350 19L169 19L169 21L348 21C363.397 21 378.663 21.288 394 21.9606C403.246 22.3661 412.998 22.1385 420.815 27.9661C432.411 36.6116 429 57.4623 429 70L428 69L427 63L426 64L425 70L423 70L410 72L410 77L405 77L405 79L403 217L401 217L168 218L168 216C168 162.684 167 109.373 167 56L167 17C167 12.7019 168.489 5.31079 164.682 2.28705C158.45 -2.66293 144.528 0 137 0C112.662 0 88.3041 1.49826 64 2z"/>
<path style="fill:#a3a3a3; stroke:none;" d="M162 0L165 2L162 0z"/>
<path style="fill:#606060; stroke:none;" d="M167 6L167 173L168 172L168 53L170 53C175.098 54.568 182.531 53 188 53L229 53C266.613 53 303.465 57 341 57L338 64L339 65L365 65L365 63L365 54L363 54L169 52L169 50L169 46L171 46L320 44L320 42L319 41L318 42C314.631 40.9319 311.539 40.1617 308 40L309 39C316.794 38.2181 332.351 31.5075 333 23L335 23L345 23L344 22L169 21L169 19L371 19L370 18L168 18L168 16C168 12.5856 168.327 9.1633 167 6z"/>
<path style="fill:#ababab; stroke:none;" d="M168 7L168 18L170 18L403 19L402 18L169 17L169 15C168.993 12.1645 169.098 9.6127 168 7z"/>
<path style="fill:#aaaaaa; stroke:none;" d="M6 8L6 273L7 272L7 86L7 32C7 24.7844 8.80207 14.6777 6 8z"/>
<path style="fill:#888888; stroke:none;" d="M404 19L405 20L415 21L414 20C410.632 19.198 407.455 19.0095 404 19z"/>
<path style="fill:#3e3e3e; stroke:none;" d="M320 21L321 22L345 22L344 23L333 23C331.715 31.2301 315.733 38.2241 308 39L309 40C312.825 40.5599 316.124 41.5849 320 41L320 43C304.165 47.6806 282.544 45 266 45C233.702 45 201.363 46 169 46L169 48L169 52L171 52L326 53L325 52C313.537 47.1898 293.48 51 281 51L281 49C290.278 43.8403 305.606 47.4158 316 46.9606C345.184 45.6827 374.79 45 404 45L404 47C399.895 99.0116 404.239 151.869 402 204L401 202C389.658 204.106 381.002 199.668 381 214L379 214C375.65 213.01 372.486 213.002 369 213L369 211L369 205L367 205C361.815 206.49 352.349 202.433 352 210L350 210L345 204L344 205L341 203L340 204C337.267 206.1 335.206 207.74 332 206L330 206C328.19 207.24 328.223 207.184 326 207L325 208L325 213L323 213L321 211C319.7 211.65 320 211.147 320 213C317.882 211.782 317.155 211.133 316 209L314 209L312 210L312 208C310.203 208 310.479 208.014 309 209L308 208L309 207L309 205L307 205C303.951 206.211 301.283 206.927 298 207L298 210L297 214L295 214L286 214L286 212C284.861 205.181 277.987 208.62 273 206L271 207L270 212L267 212C262.124 213.176 260.28 210.373 255.83 209.302C251.698 208.308 247.144 209.673 243 210L243 212C239.093 213.235 235.097 213.824 231 214L231 211C227.054 207.413 221.057 209.291 216 209L215 210L215 215L213 215L203 215L203 213L203 205L201 205C197.699 205.107 195.961 205.277 194 208L192 208C189.987 206.775 188.341 206.355 186 206C184.564 215.533 176.501 215.664 175 206C173.7 206.65 174 206.147 174 208L171 208L171 206L169 154L168 155L168 218L170 218L403 217L403 215L405 77L410 77L410 72L412 72L425 70L426 63L427 64L428 70L429 69C429 57.0811 431.982 38.9944 423.211 29.3904C415.961 21.4511 403.659 22.5719 394 21.9105C369.442 20.2287 344.646 21 320 21z"/>
<path style="fill:#3b7c78; stroke:none;" d="M139 33L139 35L140 36L141 35L142 34L141 33L139 33z"/>
<path style="fill:#3f9f9d; stroke:none;" d="M144 33L144 35L145 36L146 33L144 33z"/>
<path style="fill:#c68943; stroke:none;" d="M22 38L22 40L22 109L23 108C23 85.1492 23.5644 62.5807 25 40L27 40L152 40L152 42L154 51L155 50L155 38L153 38L22 38z"/>
<path style="fill:#226564; stroke:none;" d="M155 38L155 82L153 82C148.492 82.0498 141.173 82.5687 137.652 85.7415C131.903 90.9217 128.042 103.878 125.089 111C119.451 124.597 108.997 137.526 106 152L107 153L109 153L109 151L109 145L111 145L112 146L113 144C113.956 137.457 119.086 131.872 122 126L123 128L125 128L126 127L125 126L127 119L129 119C129.65 120.3 129.147 120 131 120L132 119C134.864 110.286 137.205 98.1872 147 96L147 98L148 97L149 96L150 95L154 96L154 98C154 140.371 159.329 184.833 154 227L152 227L149 226L149 223C143.832 217.561 135.602 219.985 129 221C127.108 233.106 115.851 220.519 109 220L110 221C111.478 224.068 111.921 226.602 112 230L110 230C104.749 229.981 100.936 229.872 100 224C92.0334 228.097 88.8126 232.811 82 224L80 224L77 224L77 227L76 228L74 228C69.3209 224.901 65.2922 229.495 64 234L67 234C72.951 236.497 81.5798 235 88 235L134 235C138.526 235 151.917 237.254 154.972 233.397C157.175 230.615 156 224.328 156 221L156 187L156 83C156 70.2705 159.907 49.6938 155 38z"/>
<path style="fill:#ffc428; stroke:none;" d="M25 40C22.2714 62.3921 22.2144 85.3745 24 108L26 108C52.584 100.125 80.9403 96.5528 108 89.76C115.884 87.7808 130.766 88.9614 137.298 83.9761C145.232 77.9206 153.795 55.6069 154 46L152 46C145.639 50.819 130.823 48 123 48L52 48C40.588 48 30.1111 51.2473 25 40z"/>
<path style="fill:#e4c78f; stroke:none;" d="M26 40L26 42C27.1639 52.1121 48.1289 48 56 48L152 48L152 46L152 40L150 40L26 40z"/>
<path style="fill:#030303; stroke:none;" d="M281 51L283 51C323.481 51 363.421 53.7423 404 52L404 50L404 45L402 45C371.743 45 341.251 46.9514 311 47C303.913 47.0114 284.02 43.4873 281 51z"/>
<path style="fill:#d52060; stroke:none;" d="M154 51L153 52C150.129 63.3876 141.677 72.9056 138 84L139 85C144.308 83.2776 149.4 82.0191 155 82L155 80C155 71.4492 157.31 58.8884 154 51z"/>
<path style="fill:#37245a; stroke:none;" d="M327 53L328 54L365 54L365 56L365 65L363 65L293 66L294 67L310 68L310 70C307.356 71.8643 307.173 73.83 307 77L310 77L311 78L311 80C312.478 80.9856 312.203 81 314 81L314 83C311.731 85.3317 310.525 86.7891 310 90C299.895 90.7709 306.976 99.2318 307 106L305 106L301 106L300 115L303 115C305.571 119.141 306.778 123.131 307 128L312 128L312 130C308.453 141.773 319.027 134.3 326 133L326 135L326 139L328 139L329 140L329 142C327.7 142.65 328 142.147 328 144L330 144C333.394 142.493 337.121 141.302 340 139L342 140C343.212 145.092 343.212 149.908 342 155L344 155L344 170L346 170C352.159 166.622 356.17 163.179 363 161L362 160L361 161L359 161L359 159C358.849 155.487 357.097 150.465 359.032 147.275C362.619 141.359 381.533 138.893 388.039 138.129C392.194 137.641 399.132 139.478 401.972 135.427C405.283 130.705 403 118.614 403 113L403 52L401 52C376.823 55.0555 351.374 53 327 53z"/>
<path style="fill:#b47780; stroke:none;" d="M168 53L168 55L168 154L169 153C169 140.544 169.91 130.863 173 119L174 120L174 149L175 148L175 103L174 104L174 106L173 105L172 104C175.175 93.26 172.105 79.3461 173 68L171 68L170 102L169 101L169 56L172 56C179.999 53.6357 189.688 55 198 55C218.715 55 239.27 57 260 57L259 58L237 58L238 59L263 62L262 63L255 63L256 64C261.951 66.4971 270.58 65 277 65L321 65C329.666 65 337.247 67.113 341 58L340 57C317.625 57 295.075 53.0099 273 53C238.663 52.9846 202.078 56.6373 168 53z"/>
<path style="fill:#d49498; stroke:none;" d="M169 56L169 58L169 65L171 65L256 65L255 64C257.729 63.1898 260.15 63.0208 263 63L262 62L237 59L238 58L260 58L259 57C229.736 57 197.975 50.6207 169 56z"/>
<path style="fill:#626262; stroke:none;" d="M432 55L432 185L433 184L433 94C433 82.8419 436.308 65.2657 432 55z"/>
<path style="fill:#c4c4c4; stroke:none;" d="M433 64L431 224L432 223C432.004 185.42 434 147.71 434 110C434 97.0087 438.007 75.9317 433 64z"/>
<path style="fill:#f36b5b; stroke:none;" d="M169 65L169 67L169 102L170 101L171 68L173 68C171.436 80.3765 174.256 92.8458 172 105L173 106L174 105L174 103L175 104C175.07 129.286 170.129 156.969 174.14 181.961C174.723 185.589 177.264 188.363 178 192L179 191C182.269 185.859 186.235 181.248 192 179C192.922 170.055 199.749 165.25 203.861 157.961C206.392 153.474 205.951 149.539 211 147L211 145C214.243 130.458 223.957 118.536 224 103L226 103C231.656 96.6232 241.836 96.3505 250 96L249 95C250.478 94.0144 250.203 94 252 94L252 92C248.815 88.1829 246.369 85.0828 246 80L248 80L269 77L269 74L275 72L274 71C264.693 67.4997 256.713 69.007 247.039 67.8711C221.467 64.8688 194.942 65 169 65z"/>
<path style="fill:#d23f47; stroke:none;" d="M200 65L201 66C226.245 66 250.438 67.1051 275 71L274 72C271.003 73.0876 269.948 73.9497 269 77L267 77L246 80L246 82C246.705 86.8176 249.835 89.8021 252 94L250 94L249 95L250 96C239.881 96.2088 232.47 98.2874 224 103L224 105C223.343 120.023 211.432 132.377 211 147L208 147C202.87 155.886 192.543 168.556 192 179L189 179C184.766 182.716 180.464 186.415 179 192L178 191C176.783 185.125 174.005 181.366 174 175L173 176C171.531 183.911 172 191.981 172 200L174 200C179.604 199.338 184.5 200.879 190 200.741C197.493 200.553 209.649 197.188 216 202L218 202C232.354 197.757 248.365 201.717 263 199L262 200C268.893 202.865 282.973 200.228 290 198L289 197L282 197L282 194L281 193L282 192C285.691 189.844 288.295 186.29 291 183L290 182L289 183L288 185L286 185C284.794 178.821 285.053 171.367 285 165C280.078 167.919 278.04 173.828 276 179L274 179L273 178L271 164L269 164L269 166L267 167L266 166L268 166C267.117 160.733 262.4 158.495 260 154L257 154L256 153C255.249 146.219 252.001 141.241 252 134L255 134C257.488 126.923 260.661 124.739 268 123L268 121C265.769 119.047 263.934 118.459 261 118L261 116C262.456 111.373 264.01 108.779 269 108L269 106L272 104L271 103L269 103L269 100C266.958 98.584 265.489 98.2549 263 98L263 96C265.115 94.4269 266.47 93.6482 269 93L269 91C271.729 90.1898 274.151 90.0208 277 90L277 88C277.614 81.8818 272.834 73.3062 281 72L281 70L281 68L279 68L256 67L257 66L287 66L286 65L200 65z"/>
<path style="fill:#a84441; stroke:none;" d="M256 66L257 67L281 68L281 70L281 72C272.112 72.6926 277.063 83.5036 277 90L275 90L269 90L269 92C265.726 93.5196 264.059 94.491 263 98C266.456 98.7176 267.929 99.5979 269 103L271 103L272 104L271 105C269.217 105.98 269.406 105.908 269 108C262.736 108.478 261.477 112.219 261 118L264 118C265.792 119.611 266.92 120.852 268 123L265 123C258.807 125.909 257.24 131.121 252 134L252 136C252.005 142.861 255.292 147.531 256 154L259 154L260 155L260 157C263.11 159.135 268.313 161.968 266 166L267 167L269 167L269 164L271 164L273 179L275 179L284 165L285 166C285.049 171.937 284.454 179.377 286 185L288 185C288.986 183.521 289 183.797 289 182L291 182C287.947 185.914 284.733 189.725 281 193L282 194L282 197L284 197L290 197L289 198C280.618 200.657 270.785 200.819 262 201L263 200L262 199L260 199C246.284 203.054 230.203 198.619 216 202L216 200C201.379 200 186.402 198.865 172 200L172 198L174 119L173 120C167.813 129.487 169 139.476 169 150C169 169.449 170.601 188.674 171 208L173 208C174.3 207.35 174 207.853 174 206L176 208L183 207L183 205L194 208L195 207C198.663 204.243 201.497 205.483 205 208L206 207L207 206L206 203L208 203L211 203L211 205L208 207L209 208L211 208L213 208L213 206L214 205L215 206L215 208L216 210L218 210C221.567 208.945 225.286 208.697 229 209L230 208L230 202L232 202L242 208L242 213L243 212L243 210C252.5 209.592 261.047 213.656 270 212L270 209L272 206C276.41 208.351 280.302 207.205 285 208L286 207L286 205L285 203L286 202C290.113 202 293.983 202.044 298 203L298 205L297 206L298 207C301.752 207.434 304.54 206.435 308 205L309 206L308 207L308 209L310 209L312 208L312 210L313 209L316 209L316 211L320 213L320 211L322 213L325 213L325 211L325 207L326 208C327.567 206.057 328.403 204.421 329 202L327 202L322 201L322 199L324 199L330 199L330 201C337.618 204.196 341.193 199.033 342.289 192C344.207 179.704 344 167.417 344 155L342 155C333.018 159.28 322.482 165.547 317 174L316 173L315 159L317 159L318 158L318 156L316 156C310.843 158.037 307.429 161.341 307 167L305 167L301 167L301 165C301 160.239 301.108 155.655 300 151L298 151C293.696 154.424 290.799 159.287 286 162L286 160C285.999 150.5 281.282 142.834 281 134L280 135C276.488 129.052 273.041 120.76 283 120L283 118L282 111L279 111C278.35 109.7 278.853 110 277 110L277 108C280.358 104.042 297.164 93.4979 282 93L282 91C285.006 79.4681 303.31 80.6871 306 70L304 70C300.637 67.4976 297.126 67.0879 293 67L294 66L313 66L312 65L256 66z"/>
<path style="fill:#6e2f3d; stroke:none;" d="M302 68L303 69C304.478 69.9857 304.203 70 306 70L306 72C298.775 79.297 282.375 80.6242 282 93L284 93C294.739 96.2918 278.306 104.561 277 110L279 111L282 111L283 120L281 120C272.756 121.376 276.824 129.874 279 135L280 134L281 135C281.292 144.099 286 152.182 286 162L288 162C291.943 158.134 294.833 153.297 300 151C300 152.853 299.7 152.35 301 153L301 167L303 167L307 167C307.897 161.12 312.346 157.347 318 156L318 158C316.521 158.986 316.797 159 315 159L315 161L316 174L317 173C321.749 170.126 324.731 166.071 329.09 162.84C338.107 156.155 348.127 152.354 341 139L328 144L328 142L329 139L327 139L326 133L324 133C314.59 135.28 311.293 139.768 312 128L307 128L307 126C306.549 120.833 305.702 115.943 300 115L300 113L301 106L303 106L307 106L307 104C306.927 97.8797 301.263 91.3692 310 90L310 87C312.216 85.0317 313.19 83.8359 314 81L312 81L311 77L308 77L307 76L307 74L310 70L310 68L308 68L302 68z"/>
<path style="fill:#81e827; stroke:none;" d="M24 108L24 103L23 104L24 179L26 179C27.1934 174.807 31.7179 165.667 34.5224 162.394C37.0424 159.452 42.681 159.284 43 155L44 154L46 154C51.2739 148.913 59.3101 140.108 61 133L63 133L68 133L68 130L70 124L69 123L67 123C65.1468 123 65.6498 122.7 65 124L64 123L64 121L65 120C70.3363 119.626 74.6943 116.284 80 115.233C90.2369 113.206 98.9372 112.615 109 109L108 108L106 108C101.107 109.43 98.4286 107.982 94 106L94 104L96 104L95 103L90 103L90 101L115 98L115 96L121 93L122 94L121 95C127.874 94.9234 134.532 91.8095 137 85L135 85C117.455 86.3846 100.128 91.813 83 95.7647C63.4151 100.283 43.4681 103.363 24 108z"/>
<path style="fill:#4bef23; stroke:none;" d="M121 95L122 94L121 93C118.001 94.1811 115.924 94.828 115 98L90 101L90 103L92 103L96 103L94 104L94 106L96 106C99.1249 110.333 104.303 108.872 109 108L108 109C98.2369 112.508 89.8141 112.817 80 114.901C74.3976 116.091 69.6385 119.614 64 120L64 122L64 124L70 123L68 124L68 133L66 133L61 133L61 136C55.1493 141.06 50.3241 151.766 43 154L44 155C36.9553 162.463 27.8277 167.458 26 179L24 179L24 122L23 123L24 225L26 225L27 224L27 222L26 221L28 221L30 222L30 220C39.0047 218.41 40.3257 225.405 48 227L48 225C49.4578 215.859 57.5132 221.542 63 218L64 219L65 220L65 225L66 224C67.5786 218.915 74.0125 217.817 76.7176 212C90.272 182.856 104.457 154.131 117.961 125.039C123.211 113.731 132.131 102.242 135 90L133 90C128.981 93.029 126.143 94.8473 121 95z"/>
<path style="fill:#2ca5bc; stroke:none;" d="M149 95L149 97L148 98L147 96C136.532 96.9882 134.331 111.368 131 120L129 120C128.35 118.7 128.853 119 127 119L127 122C125.503 124.299 125.502 125.284 126 128L124 128L123 126L121 127C117.51 133.321 113.42 138.827 112 146L111 145L109 145L109 148C108.426 149.809 108.535 150.069 109 152L108 153L107 152L106 151L107 150L107 148L105 149C99.0081 164.541 91.3842 178.875 84.483 194C79.6016 204.698 74.5136 212.315 76 224L79 224L82 224L83 225C87.1783 233.663 93.8336 229.228 99 224L100 225C101.046 231.267 106.82 230 112 230L111 229C105.157 228.931 97.868 222.45 107.043 220.032C111.587 218.835 115.728 223.135 120 224L120 221C125.819 217.545 146.931 218.086 149 226L152 226C152.65 227.3 152.147 227 154 227L154 224C158.208 213.973 155 196.896 155 186C155 155.978 154 125.953 154 96L149 95z"/>
<path style="fill:#2e8d31; stroke:none;" d="M22 109L22 203C22 208.941 18.7734 230.147 23.6034 233.972C26.3847 236.175 32.6719 235 36 235L67 235L66 234L64 234L64 232C67.1851 227.233 65.37 223.239 64 218L60 219L59 220L59 229L57 229C50.8003 228.979 45.0757 227.919 42 222L41 223L41 225L39 229L37 229L36 228L37 227L36 226L34 226L33 225L33 223C32.0143 221.521 32 221.797 32 220L30 220L30 222L29 221L26 221L27 222L27 225L25 225C21.9032 214.809 23 203.536 23 193L23 139C23 130.203 25.4066 117.118 22 109z"/>
<path style="fill:#70776f; stroke:none;" d="M359 161L361 161L362 160L363 161L362 162C354.217 162.183 349.577 167.391 343 171L344 172C343.992 183.588 344.693 201.948 330 202L330 200C327.387 198.902 324.836 199.007 322 199L322 201L329 202L329 204C327.703 205.594 327.465 206.018 327 208L329 208C330.3 207.35 330 207.853 330 206L332 206C334.93 209.08 338.402 206.083 340 203L341 205L349 204L350 208L348 208L349 209L350 210L352 210L352 208C355.093 203.424 363.904 206.213 369 205L369 207L369 213L371 213L381 214L381 212C381.146 199.618 392.082 204.123 401 202L401 204L402 203C404.771 181.077 403 158.101 403 136C392.222 139.363 380.71 138.957 369.715 142.293C366.311 143.326 361.268 143.244 359.028 146.499C356.541 150.113 358.915 156.886 359 161z"/>
<path style="fill:#132b43; stroke:none;" d="M115 192L117 191C120.083 189.353 122.519 189.038 126 189L126 191L121 199L122 200L124 200C125.936 197.379 128.241 194.525 127.512 191.019C125.908 183.312 116.358 185.637 115 192z"/>
<path style="fill:#6a5f6f; stroke:none;" d="M126 189L124 189C108.849 189.492 119.084 205.778 124.786 193.735C125.523 192.178 125.733 190.678 126 189z"/>
<path style="fill:#ccdcf4; stroke:none;" d="M136 200L138 200L149 200L149 198L149 190L147 190C138.303 190.001 136.007 190.984 136 200z"/>
<path style="fill:#97b37b; stroke:none;" d="M230 202L230 204L231 214L233 214L242 213L242 211L242 208L239 208C236.625 204.125 234.601 202.324 230 202z"/>
<path style="fill:#324970; stroke:none;" d="M285 203L285 205L289 208L291 208L291 206L293 206L293 208L295 208C296.55 206.285 297.244 205.177 298 203L297 202C292.887 202 288.96 201.829 285 203z"/>
<path style="fill:#d5a19e; stroke:none;" d="M206 203L206 205L207 207L206 208L204 206L203 207L203 215L205 215L215 215L215 213L215 205L213 205L213 208L211 208L208 208L209 207L211 203L209 203L206 203z"/>
<path style="fill:#9cabdc; stroke:none;" d="M345 204L345 206L349 208L350 207C349.014 205.522 349 205.797 349 204L347 204L345 204z"/>
<path style="fill:#d0ae37; stroke:none;" d="M183 205C182.711 208.507 182.246 211.258 180 214L181 215L183 215C185.292 211.92 185.826 208.798 186 205L183 205z"/>
<path style="fill:#62a26a; stroke:none;" d="M176 207L175 208L175 210C177.147 212.338 178.924 213.201 182 214C182.725 207.694 181.979 206.968 176 207z"/>
<path style="fill:#93a0b8; stroke:none;" d="M286 206L286 208L286 214L288 214L297 214L298 206L293 208L293 206L291 206L291 208L289 208C288.02 206.217 288.092 206.406 286 206z"/>
<path style="fill:#7082a4; stroke:none;" d="M344 209L344 211L344 213L346 213L349 213L349 211L344 209z"/>
<path style="fill:#8a8a8a; stroke:none;" d="M430 211C430 219.019 430.469 227.089 429 235L430 236C431.626 229.171 432.746 217.543 430 211z"/>
<path style="fill:#67c03d; stroke:none;" d="M123.144 218.876C118.071 220.421 121.039 228.49 125.856 227.248C131.074 225.903 128.452 217.258 123.144 218.876z"/>
<path style="fill:#da5a60; stroke:none;" d="M32 219L32 221L32 223L34 223L38 221L38 219L36 219L32 219z"/>
<path style="fill:#d5ebcf; stroke:none;" d="M48 229L50 229L49 227C50.6261 223.689 52.4394 222.008 56 221L56 223L57 224L58 223L58 221L58 219L56 219C48.4774 219.089 48.0053 222.08 48 229z"/>
<path style="fill:#84c68c; stroke:none;" d="M58 219C57.7393 222.197 57.1256 224.997 56 228L57 229L59 229C58.9996 225.586 59.3274 222.163 58 219z"/>
<path style="fill:#c4d59e; stroke:none;" d="M67 228L69 228C71.7474 227.088 73.1702 227.292 76 228L77 227L76 219L74 219L73 220L75 220L75 224L73 224C68.4209 217.313 65.0372 221.284 67 228z"/>
<path style="fill:#ccbdb3; stroke:none;" d="M104 220L105 221L107 221L109 221L109 219L107 219L104 220z"/>
<path style="fill:#dec829; stroke:none;" d="M38 220L37 221L38 222L36 228L37 229L39 229C40.4065 225.664 40.9382 223.517 40 220L38 220z"/>
<path style="fill:#de5559; stroke:none;" d="M71 220L71 222L75 224L75 222L75 220L73 220L71 220z"/>
<path style="fill:#ed8b7e; stroke:none;" d="M56 221L54 221C43.8984 226.471 58.1933 233.572 56 221z"/>
<path style="fill:#d86c5c; stroke:none;" d="M103 221L103 223C105.613 224.098 108.165 223.993 111 224L111 222C108.387 220.902 105.836 221.007 103 221z"/>
<path style="fill:#55a3e4; stroke:none;" d="M33 223L33 225L34 226L36 226L38 226L38 224L38 222L36 222L33 223z"/>
<path style="fill:#c6b8a6; stroke:none;" d="M102 223L102 225C103.56 229.7 107.654 228.997 112 229L112 227L112 223C108.404 223.846 105.596 223.846 102 223z"/>
<path style="fill:#3e3c3f; stroke:none;" d="M85 244L87 244C100.081 243.565 85.4398 230.607 85 244z"/>
<path style="fill:#3c4241; stroke:none;" d="M120 244L120 242C121.297 240.406 121.535 239.982 122 238L120 238C112.402 238.421 112.314 243.748 120 244z"/>
<path style="fill:#b3b3b3; stroke:none;" d="M428 238L427 239C424.372 245.782 419.545 249.336 413 252L414 253L415 252C422.45 251.17 426.516 245.683 429 239L428 238z"/>
<path style="fill:#d5d5d5; stroke:none;" d="M397 255L397 257C374.951 263.7 345.937 259 323 259L169 259L169 261L170 262C186.651 257.078 209.614 261 227 261L349 261C369.188 261 393.145 264.198 412 256L412 254L411 253C406.268 253.976 401.857 254.96 397 255z"/>
<path style="fill:#595959; stroke:none;" d="M168 256L168 258C189.957 252.772 217.423 257 240 257C292.285 257 344.819 258.24 397 256L396 255L168 256z"/>
<path style="fill:#b2b2b2; stroke:none;" d="M9 279L8 280L8 282C14.3827 290.521 28.6535 287.197 38 288.424C69.6687 292.583 104.044 289 136 289C146.373 289 170.829 292.459 171 278L169 278C167.397 272.168 169 265.111 169 259L171 259C246.326 259 321.762 259.553 397 258L397 256C346.403 257.044 295.678 257 245 257C221.748 257 194.949 253.248 172.059 257.148C166.741 258.054 167.985 264.887 167.424 269C166.463 276.034 163.885 281.214 156.91 284.301C146.518 288.901 131.128 285.742 120 286.015C96.6985 286.586 73.3715 287 50 287C34.9907 287 21.5885 288.52 9 279z"/>
<path style="fill:#757575; stroke:none;" d="M8 277L8 279L9 280L10 279C9.45495 277.365 9.63516 277.545 8 277z"/>
<path style="fill:#525252; stroke:none;" d="M16 283L16 285C49.0102 289.853 85.6612 288.373 119 286.09C132.74 285.149 146.511 287.49 160 284L159 283L16 283z"/>
</svg>
