<?xml version="1.0" encoding="UTF-8" standalone="no"?>
				  <svg
				  xmlns:rdf="http://www.w3.org/1999/02/22-rdf-syntax-ns#"
				  xmlns:svg="http://www.w3.org/2000/svg"
				  xmlns="http://www.w3.org/2000/svg"
				  xmlns:xlink="http://www.w3.org/1999/xlink"
				  version="1.1"  width="440" height="440">
<path style="fill:#8b8e90; stroke:none;" d="M208 119L209 120L228 120L227 119L208 119z"/>
<path style="fill:#848687; stroke:none;" d="M182 124L183 125L185 125C192.218 122.652 199.376 121.157 207 121L206 120C197.501 120.006 190.18 122.108 182 124z"/>
<path style="fill:#515556; stroke:none;" d="M207 120L208 121L249 123L248 122C234.716 118.829 220.556 120 207 120z"/>
<path style="fill:#272b2d; stroke:none;" d="M174 130L175 131L177 131C175.529 135.831 171.079 138.698 168.479 143C165.501 147.927 164.425 153.508 163 159L162 158L162 149L160 150C154.462 163.124 160.994 176.841 159.856 189.961C158.551 204.999 160.617 217.948 160.985 233C161.485 253.387 160.235 273.729 161.826 294C162.892 307.588 157.46 317.91 165.711 331C171.766 340.607 179.834 342.503 190 345.745C208.21 351.551 225.495 350.195 244 347.421C256.676 345.522 269.543 341.97 276.471 330C283.66 317.578 277.45 307.285 279.264 294.999C282.294 274.475 280.029 253.731 280.029 233C280.029 216.669 282.977 202.461 281.129 186C279.816 174.308 287.622 160.514 282.016 149.424C278.926 143.311 274.284 134.869 268.981 130.518C254.371 118.532 228.932 121 211 121C199.569 121 182.211 121.309 174 130z"/>
<path style="fill:#595d61; stroke:none;" d="M160 150L161 149C161.99 152.35 161.998 155.514 162 159L163 158C165.193 153.474 165.817 148.409 168.479 144C171.237 139.433 176.096 136.398 177 131L175 131L174 130L175 129L177 128L176 127C168.967 131.968 161.319 141.261 160 150z"/>
<path style="fill:#99391e; stroke:none;" d="M276 160L275 161L275 206L274 205L274 201L272 201L270 203L269 202C269 181.698 272.166 151.264 257.606 134.859C251.932 128.466 242.602 129.612 235 128.715C214.558 126.303 181.465 124.384 169.529 145C163.298 155.763 164 168.038 164 180C164 194.767 162.601 210.318 164.174 225C164.828 231.107 167.46 236.859 167.91 243C169.608 266.166 165.663 289.91 168.174 313C171.56 344.143 222.902 340.457 245 335.499C254.279 333.418 263.851 331.678 269.409 323.049C277.444 310.575 273 287.427 273 273C273 235.184 276 198.017 276 160z"/>
<path style="fill:#c36146; stroke:none;" d="M257 134L257 136C272.902 149.542 269 184.304 269 203C270.3 202.35 270 202.853 270 201L274 201L274 206L275 205C275 185.088 283.132 140.821 257 134z"/>
<path style="fill:#929495; stroke:none;" d="M274 137L274 139L275 140L276 139C275.455 137.365 275.635 137.545 274 137z"/>
<path style="fill:#959899; stroke:none;" d="M159 147L159 149L159 151L160 150L159 147z"/>
<path style="fill:#040504; stroke:none;" d="M199 151.464C191.628 152.769 180.031 155.342 175.742 162.019C172.385 167.245 174 176.048 174 182L174 229L174 294C174 303.465 172.052 314.064 178.634 321.815C183.253 327.254 190.561 327.125 197 328.255C210.716 330.664 224.081 331.98 238 329.536C245.975 328.136 256.817 327.306 262.442 320.79C267.462 314.975 266 306.104 266 299L266 247L266 187C266 179.925 268.174 168.399 264.427 162.133C261.279 156.867 253.538 154.906 248 153.65C233.282 150.315 213.953 148.816 199 151.464z"/>
<path style="fill:#bebfc1; stroke:none;" d="M283 154L284 168L285 167C285 162.473 285.387 157.985 283 154z"/>
<path style="fill:#767d7e; stroke:none;" d="M157 165C157 171.243 156.222 177.986 158 184L159 183L158 182C158 176.638 159.087 169.974 157 165z"/>
<path style="fill:#431c11; stroke:none;" d="M173 165L173 313L174 312L174 209C174 196.532 177.807 176.456 173 165z"/>
<path style="fill:#6d7174; stroke:none;" d="M283 168L282 169C280.053 175.587 281 183.161 281 190L282 189C282 182.172 281.29 175.396 284 169L283 168z"/>
<path style="fill:#762718; stroke:none;" d="M246.015 169.483C230.21 172.989 238.082 196.647 252.999 192.566C268.576 188.305 261.303 166.092 246.015 169.483z"/>
<path style="fill:#c9cbcc; stroke:none;" d="M282 171L282 191L283 190C283 184.099 284.295 176.469 282 171z"/>
<path style="fill:#0a0a0a; stroke:none;" d="M245.044 172.938C234.678 177.688 242.71 193.517 252.96 188.771C264.603 183.38 255.789 168.015 245.044 172.938z"/>
<path style="fill:#626463; stroke:none;" d="M192 184L193 183C194.3 182.35 194 182.853 194 181L195 182L195 184C196.635 183.455 196.455 183.635 197 182L198 184L208 184L208 181C209.3 180.35 209 180.853 209 179L207 179C201.038 178.999 192.626 176.153 192 184z"/>
<path style="fill:#565857; stroke:none;" d="M214 179L214 181L212 182L212 184L214 184C215.3 183.35 215 183.853 215 182L217 184C220.403 183.413 221.272 182.351 222 179L220 179L214 179z"/>
<path style="fill:#8f9292; stroke:none;" d="M159 184L159 194L160 193C159.998 189.874 160.213 186.89 159 184z"/>
<path style="fill:#6e7072; stroke:none;" d="M283 192L283 214L284 213C284 206.564 285.5 197.959 283 192z"/>
<path style="fill:#8a8f8f; stroke:none;" d="M157 195L157 215L158 214C158 208.099 159.295 200.469 157 195z"/>
<path style="fill:#454240; stroke:none;" d="M181 206L182 207L258 207L257 206L181 206z"/>
<path style="fill:#77756f; stroke:none;" d="M181 207L181 303L182 302L182 236C182 227.466 184.306 214.879 181 207z"/>
<path style="fill:#cecfbd; stroke:none;" d="M182 207L182 209L182 292L184 292C188.14 292.542 190.801 294.383 194 297L193 298L191 298C187.796 299.882 185.693 300.442 182 300L182 302C197.632 308.545 214.377 283.497 227 278L227 276L226 274C227.853 274 227.35 274.3 228 273C231.334 273.619 234.643 273.865 238 274.285C245.526 275.225 251.61 280.158 242.74 286.042C232.659 292.729 219.427 294.448 210 302L211 303L258 303L258 301L258 207L256 207L182 207z"/>
<path style="fill:#6e6664; stroke:none;" d="M258 207L258 303L259 302L259 236C259 227.466 261.306 214.879 258 207z"/>
<path style="fill:#8ac5c1; stroke:none;" d="M184 224C186.18 232.283 191.542 231.85 196.235 238.104C197.889 240.307 198.927 245.179 202.224 245.407C205.494 245.634 208.744 242.721 212 242.214C217.797 241.311 224.139 242 230 242L230 244L224 245L224 247C230.205 246.849 231.926 245.19 232 239L230 239C224.38 240.615 218.781 238.492 213 239.108C208.576 239.579 205.067 242.461 201 244L201 242C199.349 238.813 190.221 230.567 190.631 228.092C191.193 224.698 196.277 223.931 198.502 222.08C200.844 220.132 201.878 216.727 203 214L205 214C210.415 220.646 216.893 221.93 225 220L225 218L224 217C220.131 217 215.64 217.608 212 216.062C208.857 214.728 205.866 211.009 202.147 211.578C198.832 212.085 198.435 216.677 196.567 218.857C193.474 222.467 188.531 223.711 184 224z"/>
<path style="fill:#a2a6a6; stroke:none;" d="M283 214L282 215C279.798 222.45 280 231.244 280 239L281 238C281.005 230.533 281.07 221.916 284 215L283 214z"/>
<path style="fill:#b3b8b9; stroke:none;" d="M159 217L159 227L160 226C159.998 222.874 160.213 219.89 159 217z"/>
<path style="fill:#757778; stroke:none;" d="M160 238L160 259L161 258C161 251.831 162.398 243.715 160 238z"/>
<path style="fill:#adb1b3; stroke:none;" d="M281 239L281 260L282 259C282 252.831 283.398 244.715 281 239z"/>
<path style="fill:#81b284; stroke:none;" d="M190 264L190 266C192.339 271.896 188.784 274.131 184 277L184 279C186.1 281.812 189.349 287.623 193.184 288.158C198.515 288.902 201.677 282.684 204.545 279.461C208.984 274.471 216.172 271.102 222 268L222 266C211.901 250.732 203.048 253.733 190 264z"/>
<path style="fill:#767a7b; stroke:none;" d="M161 261L161 270L162 269C161.993 266.165 162.098 263.613 161 261z"/>
<path style="fill:#717374; stroke:none;" d="M160 270L160 291L161 290C161 283.831 162.398 275.715 160 270z"/>
<path style="fill:#b8bbbd; stroke:none;" d="M281 271L281 291L282 290C282 284.099 283.295 276.469 281 271z"/>
<path style="fill:#6fc2c1; stroke:none;" d="M226 274L226 276L227 278L225 278C212.323 285.168 204.019 296.984 190 302L191 303C208.802 303 228.645 296.712 243.54 286.042C258.167 275.564 232.919 272.65 226 274z"/>
<path style="fill:#74777a; stroke:none;" d="M161 291L161 301L162 300C161.998 296.874 162.213 293.89 161 291z"/>
<path style="fill:#74c39d; stroke:none;" d="M182 292L182 294C182.293 302.798 187.832 299.896 194 298L194 296C189.961 293.234 186.906 292.055 182 292z"/>
<path style="fill:#727376; stroke:none;" d="M279 292L279 302L280 301C279.998 297.874 280.213 294.89 279 292z"/>
<path style="fill:#bfc1c2; stroke:none;" d="M159 302L159 313L160 312C160 308.586 160.327 305.163 159 302z"/>
<path style="fill:#56483c; stroke:none;" d="M181 303L182 304L258 304L257 303L181 303z"/>
<path style="fill:#313234; stroke:none;" d="M234 317L236 319L238 319L238 317L238 314C232.813 313.404 228.146 312.782 223 314L224 315L226 315L228 314L228 316L228 318L226 318L221 318L221 315C218.259 313.129 215.352 312.323 213 315L211 313L209 313L208 314L208 316L206 316C203.105 312.024 198.494 315.417 201.623 317.977C205.545 321.186 230.896 320.552 234 317z"/>
<path style="fill:#707173; stroke:none;" d="M221 314L221 316L221 318L223 318L228 318L228 316L228 314L226 314L221 314z"/>
<path style="fill:#989b9c; stroke:none;" d="M176 341L179 343L176 341z"/>
<path style="fill:#525757; stroke:none;" d="M179 343L180 344L186 345L185 344L179 343z"/>
<path style="fill:#565c5c; stroke:none;" d="M186 345L187 346L193 347L192 346L186 345z"/>
<path style="fill:#7d8080; stroke:none;" d="M198 348L199 349L204 349L203 348L198 348z"/>
<path style="fill:#7b7c7e; stroke:none;" d="M236 348L237 349L241 349L240 348L236 348z"/>
<path style="fill:#8a695d; stroke:none;" d="M204 350L205 351L233 351L232 350L204 350z"/>
</svg>
