<?xml version="1.0" encoding="UTF-8" standalone="no"?>
				  <svg
				  xmlns:rdf="http://www.w3.org/1999/02/22-rdf-syntax-ns#"
				  xmlns:svg="http://www.w3.org/2000/svg"
				  xmlns="http://www.w3.org/2000/svg"
				  xmlns:xlink="http://www.w3.org/1999/xlink"
				  version="1.1"  width="440" height="440">
<path style="fill:#b0b0b0; stroke:none;" d="M16 68L17 69L162 69L161 68L16 68z"/>
<path style="fill:#353535; stroke:none;" d="M7 344L8 343L8 206L9 207L9 218L11 218L12 111L13 112C13 123.089 13.1295 133.969 14 145L16 145L20 139L21 140L21 161L22 160L22 107L24 107L155 107L155 109L155 303L153 303L23 303L24 304L156 304L156 302L156 106L154 106L43 105L44 103L46 102L45 101L43 101L41 100L42 98C49.1965 90.488 53.4185 80.0985 62 74L61 73L60 72L18 71L19 70L162 70L161 69L52 69L24 69C19.9819 69 14.5852 68.0957 11.1335 70.6034C5.61958 74.6093 7 83.0898 7 89L7 139L7 344z"/>
<path style="fill:#101010; stroke:none;" d="M18 70L19 71C32.6867 71 48.6871 69.8304 62 73L61 74C52.7097 79.9788 47.2079 90.9246 41 99L42 100L43 101L46 101L45 103L43 104L44 105L144 106L144 103L145 102L147 102L147 104L146 105L147 106L156 106L156 108L156 304L154 304L57 304C50.0175 304 28.7688 307.531 23.7423 302.397C21.1267 299.725 22.0002 294.387 22 291L22 260C22 219.652 21 179.274 21 139L19 139C17.8047 141.166 17.309 142.553 17 145L15 145C11.4111 134.398 13 122.061 13 111L12 112L11 218L9 218L9 206L8 207L8 314C8 323.558 4.09433 344.313 11.7894 351.411C17.4671 356.648 31.8624 354 39 354L113 354L146 354C150.989 354 157.406 354.897 161.826 352.062C170.665 346.391 163.218 327.016 174.005 326.059C194.979 324.198 216.935 326 238 326C277.013 326 316.065 325.467 355 325.004C369.903 324.827 384.25 324.754 399 323.174C407.832 322.227 416.819 322.778 423.621 315.801C433.883 305.275 431 284.582 431 271L431 163L430 164L430 218C430 227.441 431.196 237.778 429 247L428 246L427 154L426 155C423.661 158.944 419.288 160.155 417 164L416 163C413.751 164.154 413.154 164.751 412 167L411 166L407 167L406 168C404.315 207.236 405 246.674 405 286L403 286L167 286L167 284L167 126L167 86C167 82.1657 168.411 74.693 165.397 71.7423C162.9 69.2981 158.169 70.0012 155 70L127 70L18 70z"/>
<path style="fill:#464646; stroke:none;" d="M167 73L167 286L168 285C168 228.327 167.832 171.591 169 115L171 115C190.662 118.65 212.181 115.5 232 115.015C269.571 114.094 307.533 113.31 345 113C344.35 111.7 344.853 112 343 112L344 111C355.427 102.475 372.394 92.3015 387 92L386 91L169 90L169 88L176 88L175 87L168 87L168 85C168 81.0168 168.552 76.6975 167 73z"/>
<path style="fill:#969696; stroke:none;" d="M168 77L168 87L170 87L371 87L370 86L169 86L169 84C168.981 81.4567 168.985 79.3316 168 77z"/>
<path style="fill:#acacac; stroke:none;" d="M6 78L6 344L7 343L7 156L7 102C7 94.7844 8.80208 84.6777 6 78z"/>
<path style="fill:#2a2a2a; stroke:none;" d="M169 88L169 90L387 91L386 92C371.111 92.3074 354.826 102.624 343 111C343.65 112.3 343.147 112 345 112L344 113L322 114L323 115L404 115L404 117L404 286L405 285L406 167L407 168L412 167L412 165L417 164L417 162C421.514 160.354 424.93 158.962 426 154L427 155L428 247L429 246C432.004 238.841 430 227.744 430 220L430 163L431 164L431 176L432 175C432 156.394 432.931 137.51 431.17 119C430.418 111.105 431.755 102.636 425.657 96.3287C411.545 81.7346 374.78 87 356 87C293.664 87 231.251 86.7149 169 88z"/>
<path style="fill:#9b9b9b; stroke:none;" d="M371 87L372 88L407 88L406 87L371 87z"/>
<path style="fill:#287993; stroke:none;" d="M139 101L139 103L139 105L141 105L142 101L139 101z"/>
<path style="fill:#287c92; stroke:none;" d="M144 102L144 104L147 105L147 103L144 102z"/>
<path style="fill:#567d4c; stroke:none;" d="M22 107L22 302L23 301L23 165L23 126C23 120.113 24.2921 112.462 22 107z"/>
<path style="fill:#96db82; stroke:none;" d="M23 107L23 109L23 128L25 128C31.4093 126.402 38.4303 124.395 39 117L37 117L33 117L33 115L38 114L38 112L37 108L39 108L69 108L68 107L23 107z"/>
<path style="fill:#6fc2c1; stroke:none;" d="M63 115L64 116L66 116C67.5944 117.297 68.0182 117.535 70 118L70 116C71.9605 114.108 75.0301 105.604 69.1798 108.175C66.6834 109.272 64.9405 113.092 63 115z"/>
<path style="fill:#96db82; stroke:none;" d="M72 107C73.0018 111.326 71.4753 113.976 70 118L68 118C65.1988 116.112 63.2833 116.421 60 117L60 115L56 112L55 113L55 115C59.3019 120.667 64.7241 125.651 68 132L67 133C62.1482 135.944 59.5697 141.468 59 147L61 147L62 148L61 149L59 149L59 151C63.7741 157.024 69.0985 155.019 76 155L76 157C72.0507 158.928 68.3346 161.165 64 162L64 164C68.2684 175.485 74.3338 191.717 88 190C84.1849 195.413 79.5129 199.308 73 201L73 203C74.7513 205.742 77.4825 207.788 78.4282 211.019C79.2103 213.69 78.1731 218.048 80.6034 219.972C83.2216 222.046 88.8783 221 92 221L123 221L123 223L81 223L82 225C86.482 230.981 84.5375 238.872 86 246L84 246C77.2207 239.11 61.6209 252.022 55.9853 257C54.2122 258.566 48.5213 264.891 45.7515 262.98C43.0226 261.097 51.8015 254.2 53 253.089C61.5502 245.162 82.3555 237.467 68.9954 225.969C66.8543 224.126 64.8535 222.592 62 222.148C58.1333 221.547 53.9087 222 50 222L50 220L64 220L64 218C61.023 210.974 60.3341 200.663 60 193L58 193C51.1443 196.97 43.5005 200.438 36 203L36 201C39.8487 199.37 52.1645 192.169 51.1181 186.996C50.4508 183.698 45.7955 180.735 43.9051 177.999C40.2648 172.731 38.186 165.38 38 159L36 159L23 160L23 162L23 303L25 303L154 302L154 300L154 273L153 274C147.587 278.05 141.986 278.05 136.004 280.519C131.059 282.559 127.04 286.15 122 288L122 285C118.509 283.378 116.915 283.565 115 287L113 287C111.729 280.917 117.269 276.984 122 274L122 272C120.981 268.277 122.185 264.872 126 268L128 268L133 264L133 262L131 258L133 258C137.292 253.719 143.242 245.157 149 251L151 251C156.69 244.558 154 231.205 154 223L154 150C147.785 153.096 144.318 158.448 137 157L137 159L141 171L143 171C144.433 167.976 144.433 167.024 143 164L144 163L146 163C149.852 169.366 148.427 174.446 141 177L141 172L139 172C135.781 166.839 132.122 162.236 134 156L133 155L131 155C127.189 162.152 137.113 171.988 129 175L129 173C125.758 168.224 120.888 161.189 125.603 155.553C128.397 152.214 132.863 151.144 134.972 146.995C136.703 143.591 135.105 139.439 137.028 136.144C138.924 132.895 143.002 133.056 145.412 130.487C148.41 127.292 149.573 123.202 153 120L154 121L154 149L155 148L155 107L153 107L72 107z"/>
<path style="fill:#b1ebae; stroke:none;" d="M37 108L37 110L38 114L33 114L33 116C38.5948 118.348 45.536 115.191 50.9606 118.028C57.5453 121.471 60.1315 129.729 67 133L68 132C65.3643 124.232 57.6303 119.74 55 112L57 112L60 117L62 117C64.6202 114.644 66.2423 112.036 68 109L67 108L37 108z"/>
<path style="fill:#808080; stroke:none;" d="M431 108L432 133L433 132C433 124.679 434.868 114.457 431 108z"/>
<path style="fill:#0f0f0f; stroke:none;" d="M169 115L169 117L169 121L171 121L404 121L404 119L404 115L402 115C324.51 115 246.27 118.318 169 115z"/>
<path style="fill:#6fc2c1; stroke:none;" d="M39 117C37.8412 124.349 29.6264 126.971 23 128L23 130L23 160L25 160C29.3693 159.189 33.5637 159 38 159L38 161C38.3998 167.019 40.4498 174.031 43.9051 178.996C45.5361 181.34 50.6792 184.75 50.5386 187.789C50.3208 192.494 39.6021 198.747 36 201L36 203L38 203L60 193L60 195C60.6644 203.135 61.5767 212.234 64 220L62 220L50 220L50 222C58.3709 222 63.4621 221.835 69.9807 227.719C72.1389 229.667 75.6053 232.422 73.9136 235.727C71.2441 240.942 59.631 246.41 55 250.424C53.3391 251.864 41.2072 261.273 45.6227 263.688C49.0249 265.548 54.7819 258.964 56.9606 257C63.6952 250.928 76.1226 241.215 85 246L86 245L86 243C84.1023 238.193 86.3611 233.951 84.8873 229.17C81.8541 219.33 76.3694 210.376 73 201L76 201C80.7593 198.175 84.7218 195.509 88 191L87 190L85 190C74.9412 191.638 66.0939 170.284 64 162C68.385 161.524 71.8573 159.308 76 158L76 156L75 155C68.0396 155.019 62.3113 156.436 59 149L61 149L62 148L61 147L59 147L59 145C60.4464 141.648 64.0005 137.666 64.1759 134C64.7808 121.356 48.0686 117 39 117z"/>
<path style="fill:#c5ea98; stroke:none;" d="M153 120L151 121C148.085 123.78 147.524 127.859 144.686 130.487C142.442 132.564 138.752 132.629 137.028 135.303C135.009 138.435 136.651 142.664 134.972 145.999C132.725 150.464 127.613 151.678 125.027 155.553C120.507 162.325 126.218 169.143 129 175L131 175C138.72 169.362 122.873 160.612 134 155L134 157C130.709 161.932 135.861 170.262 141 172L141 177L143 177C149.705 173.257 151.677 165.464 143 163L143 165C143.857 167.897 143.614 168.386 142 171L141 170L137 157L139 157C143.528 159.724 150.554 153.846 152.972 149.7C156.162 144.229 155.394 125.706 153 120z"/>
<path style="fill:#587975; stroke:none;" d="M168 121L168 123L168 286L170 286L404 286L404 284L404 270L403 271L403 285L401 285L206 285L206 283C202.637 281.154 199.907 280.544 198 277L196 277L194 281L192 281C192 279.203 191.986 279.479 191 278L190 279L190 281L188 281L184 281L183 282L183 284L188 284L187 285L169 285L169 283L169 240C169 234.408 167.506 226.612 171 222L171 220C167.139 210.85 169.001 197.873 169 188L169 122L171 122L187 122L187 125L188 127L189 126L189 122L191 122L224 122C228.93 122.002 234.168 121.371 237 126L239 126L240 123C294.505 120.659 349.389 122 404 122L403 121L168 121z"/>
<path style="fill:#dcdcda; stroke:none;" d="M169 122C169 147.146 171.213 171.065 176.2 196C177.52 202.603 182.674 216.367 174 219C173.711 212.259 172.282 205.61 171 199L170 200C168.593 207.577 168.665 214.634 171 222L169 222L169 285L171 285L188 285L187 284L183 284L183 282L184 281L185 282L190 281L190 279L191 278L192 279L192 281L194 281L197 277L198 278L198 280C200.71 281.149 203.068 281.746 206 282L206 284C215.083 287.811 230.137 285 240 285L240 283C236.95 278.806 241.273 276.65 245 275L245 277C250.354 277.681 254.518 278.235 260 278L260 276L256 272C259.406 264.775 266.329 262.571 273 259L274 260L273 261C270.677 262.906 269.806 264.108 269 267L271 267C273.36 265.933 274.636 264.973 277 266L279 266L279 264C277.953 261.558 277.202 260.465 275 259L275 257C294.835 249.738 313.791 234.762 331.999 224.09C339.787 219.525 349.526 218.128 356.7 213.973C365.593 208.822 369.133 199.792 380 196L380 194L378 194C370.68 194.926 360.82 194.342 354.004 196.819C336.778 203.077 322.299 218.009 308 229L307 228L308 227C318.456 220.677 326.556 211.037 337 205L337 203L335 203L334 202L335 201L353 196L353 194C350.703 189.166 347.492 185.036 344 181L343 182L343 184L346 189L344 189L338 192L338 190C334.734 185.414 332.646 181.371 328 178L327 179L328 180L328 182L326 182L331 195L329 195L319 200L319 198C312.589 193.776 310.707 184.62 307.243 178.005C306.392 176.379 304.255 171.546 301.615 173.137C298.665 174.914 305.041 181.923 305.627 183.985C307.25 189.69 298.533 194.301 294 195L294 197C298.699 203.201 305.158 208.661 308 216L306 216C299.545 222.174 292.129 227.035 285 232.375C282.579 234.189 279.299 237.762 276 237.473C272.135 237.134 268.577 232.495 266 230.011C263.713 227.806 258.264 224.503 258.202 220.961C258.075 213.673 269.062 207.905 271 201L269 201L267 202L267 200C258.371 194.785 265.927 186.482 272 182L272 180L270 176L268 176C265.261 179.686 262.44 181.036 258 182L258 179C256.567 173.485 265.961 163.464 270 171L272 171C280.869 170.331 287.547 161.427 294 156C292.775 150.599 296.188 148.541 301 147L301 149C304.124 153.064 307.177 157.19 309 162L307 162L303 165L303 167L305 167C309.19 164.602 312.2 163.91 317 164L317 162C309.635 153.916 304.679 146.225 298.765 137C293.472 128.745 295.088 122.043 283 122L283 124L295 146L293 146L285 152L284 151C280.502 141.772 272.325 135.183 271 125L273 125L274 124L273 123C265.351 119.79 253.288 122 245 122L245 124L245 132L248 132L249 133L249 135L249 137L246 137L245 138C245 144.298 246.934 152.735 239 154L239 156C239 162.967 237.698 171.397 240.174 178C242.512 184.234 246.749 192.43 250.6 197.715C252.312 200.064 255.935 201.89 256.37 205.004C256.781 207.953 253.195 211.415 252 214L250 214L242 207L241 208L241 210C242.639 212.894 243.619 216.398 246.147 218.687C248.473 220.793 252.806 221.192 254.083 224.34C256.047 229.18 249.109 232.149 245.573 229.678C239.123 225.173 243.579 215.352 233 215L233 217L240 248L242 248C246.811 246.87 255.918 248.164 253.638 255.573C250.776 264.873 229.959 272.923 222 277.515C218.612 279.471 214.038 283.424 210.186 280.574C201.086 273.841 203 251.035 203 241L221 239L221 237C220.984 231.182 221.421 219.13 215 217L215 219C216.579 224.967 217.872 230.794 218 237L216 237C207.6 237.07 199.202 239.308 191 241L191 243L194 244L194 246L187 247L187 245L188 239L187 240L185 240L185 238C187.194 231.923 185.069 227.218 185 221L187 221L188 220C187.35 218.7 187.853 219 186 219L186 217C187.647 209.791 183.318 198.419 182.08 191C179.38 174.815 175.754 158.964 172.478 142.985C171.086 136.194 171.727 128.439 169 122z"/>
<path style="fill:#bf80ff; stroke:none;" d="M170 122L170 124C170.491 147.67 178.841 172.53 182.753 196C183.9 202.879 183.259 216.303 192 217L192 215C188.919 191.142 182.658 167.785 179.285 144C178.286 136.948 178.87 122.691 170 122z"/>
<path style="fill:#ccc3c6; stroke:none;" d="M175 122C180.991 146.319 183.702 171.458 188.6 196C190.346 204.745 188.708 218.865 200 219L200 217C194.765 210.348 195.489 199.042 193.789 191C188.989 168.287 184.935 145.103 182 122L180 122L175 122z"/>
<path style="fill:#bf80ff; stroke:none;" d="M182 122L182 124L198 215L200 215L203 214L203 212C200.443 203.932 200.966 196.149 199.536 188C195.672 165.976 191.49 143.868 187 122L185 122L182 122z"/>
<path style="fill:#cdc0c5; stroke:none;" d="M189 122L189 124C189 140.18 193.525 156.132 196.386 172C198.912 186.009 199.601 200.21 203 214L201 214C201.65 215.3 201.147 215 203 215C202.014 216.479 202 216.203 202 218L204 218L210 217L210 215C202.82 184.858 198.506 152.645 194 122L192 122L189 122z"/>
<path style="fill:#c082fc; stroke:none;" d="M194 122L194 124C197.09 137.517 198.259 151.425 201.004 165C204.208 180.846 208.955 197.791 209 214L211 214L213 214L213 212C209.191 181.863 201.812 152.16 198 122L196 122L194 122z"/>
<path style="fill:#e4e2a6; stroke:none;" d="M198 122L198 124C202.255 146.906 205.967 169.974 209.576 193C210.512 198.975 210.647 212.898 217 215L217 213C216.879 198.387 212.942 183.26 210 169L212 169L213 168L211 168C208.213 153.043 204.95 138.099 203 123L205 123L223 123C216.053 135.402 220.622 156.479 222.579 170C223.34 175.254 227.594 183.273 225 188L226 189L231 189L230 190L226 190L226 192C226.178 199.348 231.393 204.315 232 212L234 212L240 212L239 213L233 214L234 215C242.31 216.352 242.661 236.492 252.682 229.821C254.959 228.305 255.374 225.012 253.681 222.889C248.089 215.875 242.491 215.64 241.169 205C239.571 192.138 230.855 181.729 229.286 169C227.388 153.601 232.87 137.457 233 122L231 122L198 122z"/>
<path style="fill:#b3a09f; stroke:none;" d="M233 122C232.663 137.817 227.336 154.179 229.286 170C230.301 178.23 234.665 185.421 237.81 193C241.382 201.605 241.307 210.999 252 214L252 212C254.513 210.169 258.117 207.669 256.824 204.015C254.358 197.047 246.383 189.848 242.749 182.961C237.907 173.782 239 164.05 239 154C247.503 153.337 245 143.472 245 137L248 137L249 136L249 134L249 132L246 132L245 131L245 123L243 123L240 123L240 125L239 126L237 126C236.264 123.438 235.481 123.017 233 122M273 122L274 123L274 125L272 125C268.907 133.191 280.718 145.653 285 152L287 152L295 146L295 144C290.799 136.455 285.635 130.352 283 122L281 122L273 122M291 122L292 124C300.542 134.098 303.331 148.184 313 158L315 158L323 154L323 152L317 143L319 143L323 149L325 149L340 136L340 134C338.16 130.286 335.99 126.875 333 124L334 123L336 123L340 130L342 130C344.279 127.87 346.181 126.299 349 125L349 127C346.234 130.289 343.738 134.074 342 138L344 139C350.852 140.94 353.404 148.154 361 149L361 147L348 138L349 137C353.068 139.913 361.609 147.954 366.941 147.094C377.72 145.356 359.564 135.025 357 134L357 132C361.477 129.43 374.71 132.037 374.953 138.831C375.111 143.261 368.864 146.357 370.306 150.91C372.168 156.787 382.216 162.227 387.946 159.617C397.195 155.404 389.233 150.989 389.345 145.001C389.468 138.399 402.332 127.837 388.957 122.603C380.936 119.465 367.582 122 359 122L291 122z"/>
<path style="fill:#dbdbdb; stroke:none;" d="M390 122L391 124C398.151 134.172 390.991 134.792 388.89 144.004C388.063 147.631 391.714 149.685 392.208 152.981C393.119 159.057 384.123 161.128 380 159.011C376.905 157.421 370.459 152.992 370.903 148.985C371.487 143.705 378.725 139.812 373.485 134.331C369.723 130.395 358.863 127.886 357 134L359 134C361.711 136.978 367.372 138.594 369.079 142.296C370.366 145.088 367.461 146.873 364.995 146.292C359.252 144.938 354.227 139.6 349 137L348 138L349 139C358.773 146.238 371.261 160.949 383 164.179C387.537 165.427 393.228 162.112 398 162L398 159C399.255 157.25 399.614 156.143 400 154L402 154L402 156C398.726 164.553 395.868 181.09 398 190L397 191L385 191L386 192L391 192L390 194C382.57 202.967 381.731 213.608 378.726 224C376.293 232.415 371.564 241.225 371 250L373 250C377.468 244.463 378.057 236.66 380.036 230C383.749 217.509 390.69 205.073 392 192L394 192L403 193C405.933 169.789 404 145.4 404 122L402 122L390 122z"/>
<path style="fill:#edeae4; stroke:none;" d="M203 123L203 125C205.133 135.998 207.073 147.005 209.195 158C210.203 163.223 210.199 169.08 216 171L216 173L216 178L218 178C223.708 178.932 223.954 182.871 224 188L226 188L227 187L227 185C220.72 170.425 214.936 138.395 223 124L222 123L203 123z"/>
<path style="fill:#f3abb0; stroke:none;" d="M333 123L334 125C336.252 128.595 338.663 131.961 340 136L338 136C333.317 140.89 329.312 146.187 323 149L323 147L320 143L318 143L317 144L317 146C319.48 148.553 321.504 150.776 323 154L321 154L313 158L314 160C318.403 160.939 321.814 159.341 326 158L326 160C334.248 171.408 348.638 182.333 353 196L351 196C345.225 199.483 340.16 199.179 334 201L334 203L336 203L337 204L336 205C325.556 211.037 317.456 220.677 307 227L307 229L309 229C323.33 217.985 342.73 196.215 362 196L361 195L358 195L358 193C366.978 175.958 379.599 167.428 398 164L398 166C396.276 173.541 395.16 181.236 395 189L393 189L377 189L378 190C384.469 192.29 391.178 191 398 191L397 190C399.835 178.493 400.418 165.741 402 154L400 154L398 162L396 162C391.885 162.211 386.956 164.981 383 163.675C374.268 160.793 369.214 151.184 360 149L361 150C366.152 155.421 373.097 161.082 380 164L380 166C370.231 172.591 359.495 181.207 356 193L354 193C350.936 183.762 342.591 175.9 337.036 168C334.017 163.706 331.698 158.57 327 156L327 154C335.285 145.715 345.648 136.61 349 125L347 125L340 130L340 128C337.776 125.461 336.241 123.94 333 123z"/>
<path style="fill:#bcbcbc; stroke:none;" d="M433 127L433 233L434 232L434 159C434 149.678 436.607 135.596 433 127z"/>
<path style="fill:#b3a09f; stroke:none;" d="M255 136L255 138C260.684 144.072 266.825 147.626 270 156L272 156C284.123 148.326 273.005 138.404 268 129L266 129L255 136z"/>
<path style="fill:#515151; stroke:none;" d="M432 133L432 249L433 248L433 168C433 157.89 435.908 142.312 432 133z"/>
<path style="fill:#edeae4; stroke:none;" d="M339 140L340 141C342.75 143.533 349.888 147.69 349.373 152.001C348.931 155.694 342.762 158.592 344.292 162.664C344.885 164.243 358.386 168.827 361 170L361 172C357.471 175.529 354.084 179.123 350 182L349 181C347.535 178.878 346.543 178.526 344 178L345 180C348.287 184.142 351.638 188.258 354 193L356 193C360.682 182.289 369.851 172.657 380 167L380 165C372.673 157.529 363.185 152.914 355.039 146.6C349.626 142.404 346.457 136.344 339 140z"/>
<path style="fill:#b3a09f; stroke:none;" d="M327 156L329 156C332.939 164.327 338.995 174.18 347 179L348 178L348 176L352 176L352 178C350.521 178.986 350.797 179 349 179L349 181L350 182L352 182C355.668 178.329 359.569 175.098 361 170L359 170C356.308 166.186 346.181 165.007 345.078 162.553C343.067 158.08 351.574 154.964 349.824 150.015C344.631 135.325 329.73 146.275 327 156M294 155L293 157C285.091 161.408 279.766 170.683 270 171L270 168C261.888 164.563 255.93 175.111 258 182L260 182C263.781 180.793 266.182 179.615 268 176L270 176L272 182L270 182C263.251 189.919 259.769 193.945 267 202L269 202L271 201L271 203C267.242 206.761 256.344 215.817 257.752 221.91C258.628 225.707 264.305 229.403 267 231.961C269.477 234.313 273.176 238.558 277 238.108C286.814 236.954 299.896 221.541 308 216L308 214C304.077 207.206 297.157 202.12 294 195C299.009 194.622 307.863 190.28 306.123 183.985C305.614 182.14 299.947 175.417 301.838 173.832C304.033 171.991 306.62 177.797 307.243 179.001C311.086 186.417 313.774 193.511 319 200L321 200L331 195L331 193C329.521 189.465 326.412 185.67 328 182L328 180L327 179L328 178C332.307 182.352 335.131 186.548 338 192L340 192L346 189L346 187C340.047 177.649 330.411 167.741 326 158L324 158L316 161L317 162L317 164L315 164C310.184 163.369 307.33 165.221 303 167L303 165L309 162L309 160L301 147L299 147C295.48 148.717 291.467 150.902 294 155z"/>
<path style="fill:#4d8a7a; stroke:none;" d="M154 149L154 302L152 302L60 302L61 303L155 303L155 301L155 195C155 182.009 159.007 160.932 154 149z"/>
<path style="fill:#bf80ff; stroke:none;" d="M170 154L170 157C162.301 175.348 172.538 200.475 174 219L176 219C181.015 215.749 178.51 208.086 177.725 203C175.811 190.601 173.065 178.333 170.805 166C170.073 162.007 171.329 157.705 170 154z"/>
<path style="fill:#b3a09f; stroke:none;" d="M245 158L245 161C243.124 165.471 244 171.183 244 176L246 176C253.787 174.712 252.208 164.269 253 158L251 158L245 158z"/>
<path style="fill:#dddddd; stroke:none;" d="M358 195L360 195C372.363 192.346 382.115 189 395 189L395 187L398 164L396 164C380.268 167.789 360.453 176.247 358 195z"/>
<path style="fill:#b3a09f; stroke:none;" d="M210 169L210 171C213.863 184.741 216.961 200.709 217 215L219 215C225.585 208.143 212.614 190.975 225 189C223.371 182.177 224.174 178.097 216 178L216 176L216 171L214 171C212.406 169.703 211.982 169.465 210 169z"/>
<path style="fill:#b29f9f; stroke:none;" d="M380 170L380 172C380.181 174.074 380.42 176.007 381.055 178.005C385.407 191.701 395.717 181.12 389.244 173.549C387.081 171.019 383.09 170.379 380 170z"/>
<path style="fill:#4f3433; stroke:none;" d="M348 176L348 178L352 179L352 177L348 176z"/>
<path style="fill:#f1f0f1; stroke:none;" d="M291 177L289 178C283.429 183.525 277.756 187.982 274 195L275 196L277 196C280.64 189.703 286.069 184.178 292 180L292 178L291 177z"/>
<path style="fill:#c5ea98; stroke:none;" d="M377 177C375.208 177.567 373.642 178.142 371.98 179.045C356.049 187.701 384.494 192.676 377 177z"/>
<path style="fill:#eb7982; stroke:none;" d="M210 214L210 216L202 218L202 216L203 215L201 215L198 215L198 217L200 217L200 219L198 219L186 217L186 219L188 219L188 221L186 221C183.864 226.103 185.568 234.246 185 240L187 240L188 239L188 241L187 247L189 247L194 246L194 244C188.567 240.676 187.821 228.097 187 222L190 222C198.374 219.502 216.327 221.048 222 214L224 214C228.886 216.049 235.098 214.55 240 213L239 212L231 211L231 213L224 213C223.22 203.112 217.279 191.131 231 190L230 189C227.193 189 222.007 188.081 220.029 190.603C215.808 195.984 227.149 214.125 215.996 214.566C214.048 214.643 211.946 214.152 210 214z"/>
<path style="fill:#6fc2c1; stroke:none;" d="M403 189L403 192L402 193L400 193C397.271 192.19 394.85 192.021 392 192C388.619 211.647 379.261 230.718 374 250L372 250L371 249L371 247C379.46 229.188 379.247 209.508 391 193L390 192C381.983 192.417 370.609 198.373 364.839 204.029C361.723 207.083 359.739 211.8 355.826 213.973C351.994 216.101 347.141 215.358 343.039 217.541C319.909 229.852 298.137 244.686 275 257L275 259C277.237 261.224 278.197 262.95 279 266L277 266C274.711 263.628 271.858 266.231 269 267L269 265L274 260L273 259C266.014 261.714 258.498 264.395 256 272L258 272L260 277L259 278C253.681 278.21 249.323 278.556 245 275L243 275C237.869 278.38 235.902 284.302 244.04 284.945C254.888 285.803 266.116 285 277 285L403 285L403 283C403 261.054 404 239.018 404 217C404 208.729 406.206 196.639 403 189z"/>
<path style="fill:#aaa7a3; stroke:none;" d="M362 194L362 196C369.312 195.849 378.052 195.239 385 193L384 192L382 192C376.098 188.026 368.206 192.674 362 194z"/>
<path style="fill:#b3a09f; stroke:none;" d="M224 213L226 213C238.286 212.02 226.153 197.305 226 191L224 191C218.714 194.529 223.291 207.397 224 213z"/>
<path style="fill:#edeae4; stroke:none;" d="M283.015 204.346C277.739 205.697 267.502 222.629 278.005 220.745C281.3 220.153 288.58 214.992 289.824 211.816C291.192 208.324 286.572 203.435 283.015 204.346z"/>
<path style="fill:#b29fa0; stroke:none;" d="M345 208L345 210C346.961 212.723 348.699 212.893 352 213L352 211L351 207L345 208z"/>
<path style="fill:#b3a09f; stroke:none;" d="M222 214L222 216L218 216L218 218C220.137 224.759 220.995 231.927 221 239L203 241L203 243C203 252.488 201.118 275.429 210.185 281.353C214.091 283.905 218.658 279.995 222 278.08C230.122 273.427 251.448 265.201 254.127 255.573C256.638 246.544 245.196 247.035 240 248C240 246.147 240.3 246.65 239 246C237.921 235.162 235.284 225.555 233 215L231 215L222 214M187 222L187 224C188.178 229.708 189.878 235.133 190 241L192 241C200.568 239.232 209.221 237.024 218 237L218 235C217.749 229.149 216.49 223.633 215 218L213 218C204.477 218.177 195.4 220.44 187 222z"/>
<path style="fill:#b0b1d4; stroke:none;" d="M81 221L81 223L123 223L123 221L81 221z"/>
<path style="fill:#9c9698; stroke:none;" d="M172 228L172 230L172 232L174 232C174.797 236.388 174.896 238.591 178 242L179 241L179 239C177.756 234.311 177.391 228.936 172 228z"/>
<path style="fill:#8f8e8d; stroke:none;" d="M254 237L254 239L256 242L258 242L258 240C256.55 238.392 255.949 237.936 254 237z"/>
<path style="fill:#959493; stroke:none;" d="M253 246L253 248L255 251L257 251L257 249C255.55 247.392 254.949 246.936 253 246z"/>
<path style="fill:#d0b7c1; stroke:none;" d="M131 258L131 260C144.538 268.876 154.895 237.419 138.002 252.17C135.676 254.2 133.524 256.224 131 258z"/>
<path style="fill:#c5ea98; stroke:none;" d="M129 268L127 268C121.26 262.801 120.568 269.233 122 274L120 274C115.909 277.735 111.486 281.056 112 287L114 287C117.532 284.232 119.764 283.716 122 288L124 288C128.688 285.455 132.934 281.94 138 280.13C142.825 278.405 149.873 278.934 152.821 273.856C156.312 267.843 154 255.807 154 249C147.067 251.848 132.318 261.206 129 268z"/>
<path style="fill:#b1b1b1; stroke:none;" d="M432 249L432 279L433 278C433 269.449 435.31 256.888 432 249z"/>
<path style="fill:#edeae4; stroke:none;" d="M218 264L220 264C221.86 262.586 224.523 261.122 225.355 258.789C228.202 250.807 214.655 246.241 216.439 257.996C216.756 260.086 217.326 262.009 218 264z"/>
<path style="fill:#484848; stroke:none;" d="M431 257L431 283L432 282C432 274.503 433.907 263.928 431 257z"/>
<path style="fill:#b9d9d4; stroke:none;" d="M387 272L387 274L389 274C393.668 272.424 398.091 270.664 403 270L403 268C397.644 268.341 392.077 270.277 387 272z"/>
<path style="fill:#7d7d7d; stroke:none;" d="M430 292L430 301L431 300C430.993 297.165 431.098 294.613 430 292z"/>
<path style="fill:#454545; stroke:none;" d="M263 316L263 318L264 319L265 318L266 317L265 316L263 316z"/>
<path style="fill:#818181; stroke:none;" d="M415 320L416 321L418 321L422 319L421 318L415 320z"/>
<path style="fill:#c1c1c1; stroke:none;" d="M169 328L169 330L357 330C371.272 330 385.826 330.851 400 329.155C405.942 328.444 413.414 329.343 414 322L412 322C407.159 323.034 402.864 325.858 398 326.738C369.359 331.916 337.061 328 308 328L169 328z"/>
<path style="fill:#686868; stroke:none;" d="M169 326L170 327C241.594 327 313.43 328.739 385 326.985C392.816 326.794 400.261 324.085 408 324L407 323C385.518 323 363.6 325.456 342 325.985C284.411 327.396 226.609 326 169 326z"/>
<path style="fill:#888888; stroke:none;" d="M168 327L168 329L167 346L168 345L169 328L171 328L326 328C350.939 328 381.024 332.481 405 325L404 324L402 324C378.005 331.487 347.958 327 323 327L168 327z"/>
<path style="fill:#b6b6b6; stroke:none;" d="M168 341C165.633 359.995 146.439 356 132 356C93.3433 356 52.3317 359.844 14 355L14 357C25.9174 360.523 41.5814 358 54 358L138 358C150.546 358 176.852 359.99 168 341z"/>
<path style="fill:#545454; stroke:none;" d="M165 348L164 349C156.42 358.189 134.904 354 124 354C86.6677 354 49.2447 354.599 12 353L13 354C23.9317 358.613 39.2745 356 51 356L130 356C139.961 356 161.293 360.193 166 349L165 348z"/>
</svg>
