<?xml version="1.0" encoding="UTF-8" standalone="no"?>
				  <svg
				  xmlns:rdf="http://www.w3.org/1999/02/22-rdf-syntax-ns#"
				  xmlns:svg="http://www.w3.org/2000/svg"
				  xmlns="http://www.w3.org/2000/svg"
				  xmlns:xlink="http://www.w3.org/1999/xlink"
				  version="1.1"  width="225" height="440">
<path style="fill:#fefefe; stroke:none;" d="M0 0L0 2L0 440L2 440L225 440L225 438L225 0L223 0L0 0z"/>
<path style="fill:#ababab; stroke:none;" d="M94 4L95 5L137 5L136 4L94 4z"/>
<path style="fill:#787878; stroke:none;" d="M64 6L65 7L95 6L94 5L64 6z"/>
<path style="fill:#323232; stroke:none;" d="M8 420L9 419L8 418L8 187L9 188L10 290L12 290L13 283L14 284C14.0151 289.474 14.2455 294.74 18 299L17 300L15 300L15 315L17 315L18 318L20 318C21.8209 315.404 23.2209 313.513 26 312L25 311C20.5443 309.835 19.3065 307.469 19 303L17 303L16 302L17 301L19 301L21 301L21 303L22 304L24 304L24 302L22 302L22 300L24 300L25 301L25 299L25 297C23.7003 297.65 24 297.147 24 299L22 299L21 298C22.8759 295.248 22.4954 293.916 21 291C19.3648 291.545 19.5451 291.365 19 293L18 292L17 291L18 286L20 286C22.6125 286.174 23.9434 286.418 26 288L27 287L27 285C24.914 282.856 23.9881 280.829 23 278C21.7003 278.65 22 278.147 22 280L20 280L20 278L15 278L15 276C15.8453 272.71 15.4495 270.567 18 268L17 267L15 267L15 265C16.3306 261.669 17.5435 260.064 21 259L21 257C24.2954 251.76 18.3528 252.99 15 254L15 252C15 247.213 13.1346 228.473 20.1489 227.817C23.8618 227.47 27.633 231.868 32 232L32 229L33 228L35 228L38 229L38 234L41 234C42.8465 234.468 44.0685 234.301 46 234L46 237L47 238L48 237L56 239L57 238L56 237C51.5508 232.784 48.9829 232.76 43 233L43 230L40 224L42 224L44 224L44 227L45 231L47 231L52 230L52 227C53.6115 222.871 51.7412 218.381 53 214L52 213L47 215L47 213L46 208L44 208L44 210C43.5031 213.207 42.8496 214.444 40 216L40 214L42 214L42 212L40 212L36 215L35 214L36 213L36 206L34 206C27.2481 206.289 21.9422 199.584 19 194L16 194L15 193L15 41L17 41L162 41L161 40L148 40L149 39L158 39L158 37C154.818 35.3084 151.575 35.0742 148 35L149 34L167 29L166 28L162 28L162 26C162.816 19.8615 170.674 9.83163 160 9L161 8C178.464 8 202.759 8.22278 217 19L218 18C208.889 7.07544 184.317 7.06497 171 7.00076C132.296 6.81415 92.8269 2.32645 54 7.42438C41.3888 9.08023 15.5994 6.74261 8.60802 20.0401C4.15129 28.5168 7 43.6045 7 53C7 76.501 4 98.4837 4 122C4 132.034 2.72302 143.029 4.14352 152.961C4.65633 156.546 6.82466 159.263 6.98071 163.004C9.18281 215.796 7 269.156 7 322L7 387C7 397.369 5.05519 410.037 8 420z"/>
<path style="fill:#bebebe; stroke:none;" d="M55 6L56 7L64 7L63 6L55 6z"/>
<path style="fill:#929292; stroke:none;" d="M157 6L158 7L171 7L170 6L157 6z"/>
<path style="fill:#969696; stroke:none;" d="M38 8L39 9L41 9C45.3378 7.96725 49.5615 8 54 8L53 7C47.8995 7 43.0285 7.0665 38 8z"/>
<path style="fill:#0c0c0e; stroke:none;" d="M160 8L161 9C169.721 11.6477 162.072 21.5264 162 28L167 28L166 29L148 34L149 35L158 36L158 38C154.65 38.9904 151.486 38.9981 148 39L149 40L212 41L212 43L211 287L208 287L205 287L205 290C203.046 291.264 201.387 292.179 200 294L198 294L198 292C199.3 291.35 199 291.853 199 290L197 290L191 291L192 292C193.274 294.194 194.068 296.412 196 298L196 300C190.886 304.631 186.463 313.099 186 320L183 320C174.873 320.727 166.04 321.658 158 320L158 318L161 314L160 313L151 314L151 312L152 311L151 310L147 312L147 310L146 309C144.7 309.65 145 309.147 145 311L143 311L143 309L140 310L140 308C137.725 305.793 136.638 304.119 136 301L138 301C139.479 301.986 139.203 302 141 302C141.583 298.316 142.857 296.956 146 295L145 294L138 292L137 293L138 298L136 298L136 296L134 296L134 298L126 298L126 296C126.986 294.521 127 294.797 127 293L125 293L123 290C121.7 290.65 122 290.147 122 292L118 293L118 295L119 297L117 297C115.127 294.626 113.762 293.226 111 292L111 290L113 290C113.65 291.3 113.147 291 115 291L115 288C116.282 284.918 115.763 282.208 115 279L113 279L112 280L113 281L112 282L110 282C108.584 275.536 106.281 274.804 100 275L100 273L97 272L98 270C100.428 270.183 101.17 270.423 103 272L105 272L105 270C103.605 267.962 102.651 266.373 102 264L100 264C98.2854 262.449 97.1773 261.756 95 261L94 262L94 264L93 263L92 262C90.4186 257.25 78.9344 256.328 74 256L74 254C76.0487 250.138 76.7444 246.575 72 245L72 247L73 249L72 250L69 249L68 250L69 251L71 252L71 254L69 254C66.0968 253.263 63.9507 253.471 61 254C61 252.147 61.2997 252.65 60 252L60 250L62 250L65 251L66 250L65 249C66.6268 246.423 67.5978 244.024 68 241L66 241C59.5502 240.928 53.3839 236.58 47 238L46 237L46 235L45 234L43 234L38 234L38 229L35 229C34.3502 227.7 34.8532 228 33 228L32 229L32 232L30 232C26.6436 231.129 23.6204 227.151 20.1489 227.423C12.6601 228.01 15 248.877 15 254L17 254C21.912 252.602 21.8314 254.818 21 259L18 259C15.8066 261.54 15.2213 263.665 15 267L17 267L18 268L16 268L15 278C17.2943 278.303 18.2115 278.578 20 280L22 280L22 278C23.1561 276.098 23.1565 275.278 23 273L25 274C25.8465 279.426 29.4925 283.406 30 289L28 289C25.9143 287.133 24.7536 286.434 22 286L22 288C24.5964 292.376 25.7088 295.711 31 297L31 299L30 301L31 302L32 301L33 302L34 303L33 307L34 308L36 308L36 310L35 311L34 309C27.7051 309.784 22.8382 312.212 20 318L18 318C17.1007 315.876 17.1236 315.899 15 315L15 313C15.9578 309.013 15.0005 304.176 15 300L17 300L18 299C14.8066 293.857 14.0165 288.979 14 283L13 284C12.1257 286.052 12.0472 287.747 12 290L10 290L9 187L8 188L8 326L8 397C8 404.859 5.63518 417.436 11.419 423.736C20.1501 433.246 42.1789 431.136 54 432.086C92.977 435.218 131.985 433.431 171 432.011C183.676 431.549 208.51 432.94 217.231 421.787C222.363 415.224 220 402.834 220 395C220 372.995 221 351.05 221 329C221 255.281 220 181.677 220 108L220 46C220 39.0834 222.256 27.2622 218.972 21.0432C215.352 14.1877 206.85 12.5185 200 11.831C186.519 10.4779 173.667 8 160 8z"/>
<path style="fill:#a1a1a1; stroke:none;" d="M190 8L191 9L194 9L193 8L190 8z"/>
<path style="fill:#8c8c8c; stroke:none;" d="M8 19L7 20C1.25538 39.4347 6 66.6909 6 87L7 86L7 43C7 35.3233 5.9541 27.1883 9 20L8 19z"/>
<path style="fill:#545758; stroke:none;" d="M220 24L220 183L221 182C221 153.667 220.944 125.333 221 97C221.028 82.8766 222.806 70.2462 221.129 55.9606C219.97 46.0887 223.861 33.2016 220 24z"/>
<path style="fill:#babfbf; stroke:none;" d="M221 25L221 60L223 60C220.389 49.0343 225.305 35.2583 221 25z"/>
<path style="fill:#773855; stroke:none;" d="M15 41L15 43L15 47L16 46L16 42L18 42L211 42L211 44L211 165L212 164L212 41L210 41L15 41z"/>
<path style="fill:#e063a7; stroke:none;" d="M16 42C13.9347 68.1699 15 94.7212 15 121L16 120L16 59L17 60L17 63L19 63L20 67L21 66L21 61L23 61L165 61L198 61C201.374 61 207.226 62.0631 209.682 59.1065C212.718 55.4512 211 46.4921 211 42L209 42L16 42z"/>
<path style="fill:#f1cedd; stroke:none;" d="M168 51L169 50L172 46L171 45C164.068 40.2714 160.06 47.1711 168 51z"/>
<path style="fill:#fcfeff; stroke:none;" d="M183 52L185 52L188 52L188 50C187.693 40.6628 183.025 44.9111 183 52z"/>
<path style="fill:#f4cde2; stroke:none;" d="M179 44L177 45L172 51L173 52L180 52L180 50C179.953 47.7472 179.874 46.0521 179 44z"/>
<path style="fill:#fd95bc; stroke:none;" d="M16 59C16 79.9048 13.7416 102.227 16.1088 122.985C16.5458 126.817 19.4337 129.302 20 133L21 134L23 134C24.9779 135.732 26.4345 136.402 29 137L29 135C32.1408 133.811 33.4501 133.778 36 136L38 136L39 135L38 134L26 127L27 126L29 126C34.6169 130.025 41.0101 123.534 47 123.314C56.0321 122.982 63.7256 124.83 72.8302 122.673C88.3422 118.998 100.42 111 117 111L117 114C123.913 120.442 133.159 129.406 137 138L139 138C144.214 140.07 147.894 143.682 154 143.356C158.166 143.134 161.853 140.07 166 139.265C175.234 137.474 182.596 145.075 184 154L186 154C198.361 153.135 200.371 161.931 211 165L211 163L211 59L209 59C204.923 62.089 198.941 61 194 61L159 61L21 61L21 63L21 67L20 66L20 63L18 63L16 59z"/>
<path style="fill:#c8c6c7; stroke:none;" d="M223 60L223 88L224 87C224 78.9755 226.109 67.4089 223 60z"/>
<path style="fill:#9f9ea0; stroke:none;" d="M221 88L221 413L222 412L222 183L222 117C222 108.466 224.306 95.879 221 88z"/>
<path style="fill:#adadad; stroke:none;" d="M3 89L3 155L4 154L4 110C4 103.58 5.49716 94.951 3 89z"/>
<path style="fill:#6b3074; stroke:none;" d="M100 112L100 114L101 115L103 115C101.884 118.474 100.257 121.298 100 125L98 125L97 126L98 127L99 126L103 128L102 129L100 129L100 133L102 132L106 130L106 132L105 133L106 134L108 134L108 136L107 137L102 136L102 138C92.326 142.382 86.5201 154.42 77.9853 160.858C74.2425 163.681 70.259 165.98 71 171L73 171C76.2674 167.959 79.5942 167.128 84 167L84 169L88 174L90 174C94.9773 171.438 96.8308 167.376 101 164L101 162C100.37 154.312 105.874 148.149 107 141L109 141C110.786 138.21 111.952 135.144 113 132L115 132C115.65 133.3 115.147 133 117 133L117 131C114.506 121.36 112.37 109.063 100 112z"/>
<path style="fill:#e96d86; stroke:none;" d="M109 111L109 113C113.852 118.884 115.571 125.631 117 133L115 133C114.35 131.7 114.853 132 113 132L113 134C107.032 141.897 119.386 145.955 122 135L121 136L119 136L119 134C134.523 128.543 120.114 119.789 117 111L115 111L109 111z"/>
<path style="fill:#90518b; stroke:none;" d="M88 115L89 116L93 116L93 118C85.3584 120.112 75.7341 126.814 74 135L72 135C70.4602 133.197 69.4025 133.168 67 133L67 135C58.8621 139.107 55.5474 152.06 52 160L51 159L50 160L51 161C51.2721 164.564 51.9323 166.121 55 168L55 170L53 170C49.1497 168.384 44.1864 168.529 40 168L40 170C41.1819 172.918 42.3147 174.358 45 176L45 178L43 178L37 174L36 175L35 176L35 178L37 178L36 179L35 180L31 180L31 182C33.5343 183.059 35.4657 183.059 38 182L39 183L37 184L37 186L39 190L40 189L40 184L42 184L49 184L49 186C46.9541 187.494 47.0315 193.136 46 196L48 196L50 206L52 206L54 206L54 201L57 201L58 197L60 197L61 198C54.842 205.525 56.9842 212.046 57 221L59 221L70 230L72 229C72.9902 226.477 72.6169 224.642 72 222L73 221L75 221L76 222L76 224C72.6511 227.178 78.1876 230.494 80 225L82 225L83 226L82 227C82.4155 230.333 81.7257 232.783 81 236L84 236C86.0716 237.946 87.7106 239.459 89 242L90 241L91 240C90.7492 236.305 91.8929 231.48 90.787 228.039C89.0965 222.78 80.9365 217.755 84 212L84 210L82 210C63.7868 210.836 61.5219 179.788 47 175L47 173L47 171L49 171C57.9876 173.14 61.046 168.247 69 167L69 169L69 171C65.6023 171.268 64.2851 171.795 63 175L65 175C68.5927 174.252 72.023 173.156 75 171L76 172L76 174C79.3952 174.823 81.669 173.741 85 173L84 175C81.6354 176.141 79.9321 177.222 78 179C78.6498 180.3 78.1468 180 80 180C78.3589 191.91 75.7729 193.882 89 190L88 191C83.1589 194.128 79.4471 196.971 79 203L80 202L83 204L85 204C91.6735 201.101 92.7608 196.117 97.6798 191.309C101.057 188.008 105.067 187.03 108 183L107 182L106 183L104 183L104 181L111 177L110 176L110 174L112 174C116.7 168.965 119.077 163.819 120 157L122 157L123 159L124 158L124 156C119.724 154.719 119.91 151.969 119 148C120.853 148 120.35 148.3 121 147C127.463 145.825 131.905 140.78 138 139L138 141C132.577 147.176 128.981 149.544 132 158L133 157C135.169 154.43 136.899 152.39 140 151C140.49 146.639 141.823 144.502 146 143L145 141C142.184 138.667 140.658 137.676 137 138L137 135C133.518 131.382 130.144 127.857 126 125L125 126C126.381 131.002 123.731 132.471 119 133L119 135L120 136L121 135L122 136L122 138C117.748 141.505 113.936 144.37 111 138L110 139L107 141L107 144C102.361 148.467 99.6766 157.669 101 164L99 164C95.9043 168.797 93.9189 171.16 89 174L88 173L88 171C85.882 169.782 85.1554 169.133 84 167L82 167C78.2437 167.242 75.2456 167.843 73 171L71 171L70 170C76.6603 156.846 94.5461 149.376 102 136L104 136C105.479 136.986 105.203 137 107 137L108 136L108 134L106 134L105 133L106 132L106 130L104 130L101 133L100 132L100 130L101 129L103 129L102 127C100.056 126.598 99.9435 126.598 98 127L97 126L98 125L100 125L103 115L100 115L88 115z"/>
<path style="fill:#501750; stroke:none;" d="M53 125C53.8837 127.536 54.1687 129.323 54 132L56 132L57 133L56 134C51.2444 135.787 48.8926 139.046 45 142L48 151L46 151L42 151L42 153L45 159L47 159L50 152L52 152L52 154C51.1257 156.052 51.0472 157.747 51 160L52 159C57.4747 152.766 58.4793 138.683 67 136L67 134C69.478 133.535 69.99 133.526 72 135L74 135L74 132C80.6311 127.16 85.1065 121.133 93 118L93 116L91 116C77.7979 117.786 66.6755 124.032 53 125z"/>
<path style="fill:#6c4f5c; stroke:none;" d="M15 123L15 194L16 193C16 176.366 16.7376 159.553 16.0394 143C15.7746 136.725 17.4493 128.837 15 123z"/>
<path style="fill:#b34572; stroke:none;" d="M42 124L42 126L44 126L50 125L51 131L49 131C45.5406 134.432 40.5861 137.424 36 139L36 141C38.6455 144.809 40.3583 147.722 45 149L45 147L47 147L45 142L47 142C49.6283 137.824 52.9641 135.702 57 133L56 132L54 132C54.4843 129.294 54.5686 128.224 53 126L55 125L54 124C49.7561 123.464 46.17 122.779 42 124z"/>
<path style="fill:#da6d89; stroke:none;" d="M26 126L27 127C30.1176 130.34 34.693 132.586 39 134L38 135L37 136L36 134C32.4181 133.335 30.2872 133.349 29 137L27 137C24.6001 135.399 22.8244 134.546 20 134L21 133C20.1943 130.146 18.8172 128.34 17 126L16 127L16 156L17 155C17.9628 150.127 19.2291 147.319 23 144L24 145L23 155L25 155C25.6293 147.037 26.6139 143.739 35 144L35 146L32 146L32 148L33 149L34 148L40 147L36 139L39 139C42.5888 135.937 46.8008 133.11 51 131L51 129L50 125L48 125C41.2265 126.767 32.8264 127.326 26 126z"/>
<path style="fill:#6c5974; stroke:none;" d="M140 151L138 151C135.525 153.056 134.198 155.017 133 158L132 157C128.728 148.365 135.969 146.601 138 139L136 139C130.253 142.07 125.272 145.86 119 148L119 150C119.824 153.607 120.16 155.328 124 156L124 158C119.978 169 113.458 174.206 104 181L104 183L106 183L107 182L108 183C104.628 186.263 100.09 188.058 96.9244 191.309C91.636 196.741 90.8966 201.588 83 204L83 202C78.6765 202.562 75.2016 202.994 73 207L74 208C77.3612 209.502 79.285 210.849 83 210L84 211C80.1484 217.023 87.3581 221.828 89.777 227.09C91.5692 230.988 90.8095 237.854 90 242L89 241C87.0979 237.658 84.7319 236.678 81 236L81 234C82.9727 231.118 82.7845 228.433 83 225L81 225C79.4138 227.947 79.8099 230.71 80 234L78 234L77 237L75 237L74 236L74 234L76 224L76 222L75 221L73 221L72 222C72.5017 225.174 72.5142 227.141 71 230L70 228C65.1757 226.369 61.9268 222.298 57 221L57 219C58.6104 210.964 56.2864 205.875 61 198L60 197L58 197C56.8464 199.249 56.2489 199.846 54 201L54 206L52 206L50 206L50 203C48.7465 200.483 48.1399 197.789 46 196L46 194C48.7324 191.297 47.418 188.981 49 186L49 184L47 184L40 184L40 186L40 190L39 189L37 184L39 184L39 182L31 183L31 181L37 179C36.3502 177.7 36.8532 178 35 178C36.384 172.171 35.4169 166.751 34 161L35 160L35 162L37 162L37 160C36.0143 158.521 36 158.797 36 157L34 157C31.0498 159.903 29.254 161.673 25 162L25 165C20.1959 171.341 25.266 185.278 28 192L29 191C34.1366 196.242 36.3604 202.711 40 209L38 209L38 212L37 211L37 207L36 208L35 214L36 215L41 212L42 213L40 214L40 216L42 216C43.9418 213.44 43.965 211.192 44 208L46 208L47 215L49 215L52 213L53 214C51.0163 218.738 52.6091 224.843 52 230L45 231L44 224L42 224L40 224L40 226L43 233L45 233C54.3484 232.772 58.0453 240.999 68 241L68 243C66.6941 245.397 65.6763 247.268 66 250L65 251L64 250L60 250L60 252L61 254L63 254L71 254L71 252C69.5215 251.014 69.7968 251 68 251L68 249L70 249C70.6499 250.3 70.1468 250 72 250L73 249L72 245L74 245C76.0603 249.082 74.8772 251.711 74 256C80.6907 256.853 90.0419 257.656 93 264L94 263L95 261L97 261L102 266C103.3 265.35 103 265.853 103 264L105 264L105 267L106 268L107 267L112 268L112 266C115.471 266.947 118.411 267.373 122 267L122 265L121 256L123 256C132.046 258.541 136.442 257.28 144 252L144 250L142 250L137 254L137 252L132 251L132 249L135 249C137.038 247.605 138.627 246.651 141 246L141 244C138.941 240.82 135.262 240.754 132 239L131 240L130 243L128 243C127.302 241.604 127.698 241.604 127 243L126 242L126 240C127.408 236.771 126.42 234 123 233L123 231L125 231L126 230L126 228L125 227L123 227L122 226L122 224L121 223L119 223C119.65 224.3 119.147 224 121 224C120.085 227.98 119.577 232.232 123 235L123 237L121 237C118.573 245.282 116.615 244.024 108 244L109 246C111.602 248.104 113.313 250.111 115 253L114 254L113 253C111.554 250.717 110.689 250.418 108 250L108 247L105 243L103 243L97 247L97 244C97.0313 242.168 96.9205 242.441 98 241L98 239L94 235L95 234L96 235C97.2997 234.35 97 234.853 97 233L100 233L100 236L103 238L104 237L103 236L103 234L105 234C107.016 231.641 108.188 229.976 109 227C104.673 226.408 101.868 223.756 98 222L97 223C97.6498 224.3 97.1468 224 99 224L99 226C97.7003 226.65 98 226.147 98 228L99 229L105 229L105 231L104 232L102 232C99.445 230.484 96.9071 229.606 94 229L95 227C94.4954 218.669 102.904 218.469 104 211L103 212L98 214L98 211L97 210L95 210L92 209L92 207L103 199C104.05 193.585 106.414 187.62 112 186L113 182L112 181L110 181L109 180L110 179C111.952 179.511 112.457 179.733 114 181L116 181L116 178C124.134 172.912 147.033 160.325 149 151L151 151C154.561 152.604 155.089 154.318 156 158L154 158L152 161L153 162L155 160L156 161L155 162C151.266 165.154 148.505 168.299 147 173L150 173L151 174L150 175C140.771 182.994 137.947 184.222 126 187L126 189L128 189L131 187L132 188L131 189C128.093 190.972 127.238 192.754 126 196L127 197L128 196L145 196L144 195L138 195L139 193C144.278 190.476 151.105 188.364 155 184L154 183L153 184L148 186L148 184C150.399 179.1 155.025 176.846 160 175L160 178L161 179L162 178L162 180C158.317 182.721 156.067 185.512 155 190L157 190C162.796 185.693 168.775 183.476 175 180L175 182L176 181L176 179L177 178L177 180L179 180L179 182C171.746 185.56 162.305 188.3 156.131 193.431C147.976 200.209 144.085 209.649 137 217L137 219C138.014 221.081 137.745 221.713 137 224L136 223L136 221L135 222L135 224L135 226L137 226C138.3 225.35 138 225.853 138 224L140 224L140 226C136.653 229.499 134.526 233.154 134 238L136 237L140 232L141 233C138.952 236.986 139.485 239.014 144 240L144 238C145.742 236.889 146.119 236.73 147 235L149 235C150.751 236.255 151.857 236.614 154 237L154 235C160.227 232.865 165.94 231.381 169 225L168 224L166 224L166 222C168.006 220.873 168.006 220.127 166 219C167.959 214.508 168.983 210.926 169 206L171 206C175.984 205.65 179.233 202.231 184 201L184 196L187 196C190.083 194.521 203.044 192.776 197 187L197 185C197.874 182.948 197.953 181.253 198 179L201 179L202 174L204 174L205 173L204 172C205.174 169.026 206.558 167.061 209 165L208 164C198.068 157.614 196.753 153.454 184 154C182.368 136.033 168.2 139.077 156 142.485C148.676 144.53 140.591 140.295 140 151z"/>
<path style="fill:#f49aa2; stroke:none;" d="M25 155L23 155L24 144L22 144C19.1306 146.754 14.3914 154.221 17.1181 158.411C20.3406 163.364 30.6402 161.28 33 157L35 157L36 158L36 160L37 161L36 162L35 160L34 161L34 163C36.4749 170.826 35.7187 176.056 45 178L45 176C42.2912 173.549 40.8519 171.563 40 168L42 168L46 169L45 168L46 166L45 165L41 165L42 163L47 161L47 159C44.5491 156.617 43.1776 154.207 42 151L44 151L48 151L48 149L48 147L46 147C44.7003 147.65 45 147.147 45 149L43 149C39.215 146.778 36.01 147.74 32 149L32 147C33.4785 146.014 33.2032 146 35 146L35 144C26.2451 143.339 25.3638 146.528 25 155z"/>
<path style="fill:#a66995; stroke:none;" d="M149 151L149 154C139.405 161.14 119.507 168.763 116 181L114 181C112.46 179.197 111.403 179.168 109 179L109 181L113 181L112 186L109 186C105.614 189.253 103.515 194.326 103 199L101 199C97.7374 201.722 94.5628 204.619 92 208L93 209L95 209L98 210L98 213L99 214L101 214L103 211L104 212L104 214C97.8469 218.936 95.424 220.171 94 228L95 229L97 229C99.4801 231.033 101.83 231.563 105 232L105 230L98 228L98 226C99.2997 225.35 99 225.853 99 224L97 224L97 222L99 222C102.083 225.009 104.652 226.698 109 227L109 229L103 234L103 236L104 237L103 238L100 233L98 233C96.7003 233.65 97 233.147 97 235L96 234L94 234L98 241L96 241L97 247L99 247L105 243L105 245C106.656 246.686 107.251 247.746 108 250L111 250L113 254L115 254L115 252C113.064 248.905 111.117 246.909 108 245L109 244C115.758 244.139 122.589 246.229 120 237L122 237L123 236L122 235L121 236C115.883 233.565 114.943 230.42 115 225L117 225L119 225L119 227L118 234L120 234L121 224L119 224C116.943 217.407 122.228 212.878 126 208L125 207C122.363 208.383 120.83 209.652 119 212L118 211L117 210L117 203L119 203C123.441 198.607 126.837 192.215 132 189L132 187L130 187L127 189L126 188L127 187C139.193 184.587 141.477 182.489 151 175L151 173L148 173L147 172L156 161L155 160C153.365 160.545 153.545 160.365 153 162L152 161L156 158L156 156C154.618 152.177 152.959 151.364 149 151z"/>
<path style="fill:#dd9ab6; stroke:none;" d="M50 152L49 153L47 158L48 159L49 158L47 163L48 164L50 164L50 167L52 167C50.7673 162.078 50.7673 157.922 52 153C51.3501 151.7 51.8532 152 50 152z"/>
<path style="fill:#747474; stroke:none;" d="M6 157L6 321L7 320L7 206C7 192.223 11.3062 169.645 6 157z"/>
<path style="fill:#ac7bb9; stroke:none;" d="M120 157L120 160C116.898 165.519 115.435 170.129 110 174L110 176L112 176C118.864 169.939 122.88 166.447 123 157L120 157z"/>
<path style="fill:#fbe4cd; stroke:none;" d="M48 158L47 159L41 164L42 165L46 165L45 166L45 168L46 169L54 170L55 169L54 168L50 167L50 165L47 164L47 162C48.303 160.332 48.553 160.008 48 158z"/>
<path style="fill:#a97e9a; stroke:none;" d="M16 159L16 194L18 194C22.382 200.435 27.4455 207.64 36 206L37 207L37 212L38 211C38.5451 209.365 38.3648 209.545 40 209L40 207C35.5689 201.885 35.4988 193.285 28 192L28 190C23.3585 181.399 23.1059 171.226 25 162L27 162L31 162L30 161C25.167 160.96 20.6736 160.209 16 159z"/>
<path style="fill:#33387f; stroke:none;" d="M205 174L203 174C201.478 176.296 200.443 177.698 198 179L198 181L197 187L199 187C197.038 194.428 190.631 194.533 184 196L184 201L181 201C176.785 203.618 174.143 205.846 169 206L169 208C168.742 211.962 167.182 215.251 166 219L168 219L166 222L166 224L168 224L169 225L169 227C164.008 230.222 160.093 233.45 154 234L154 236L153 237L151 237L147 235L147 237C144.636 237.482 144.482 237.636 144 240L142 240C139.737 237.385 139.829 236.237 141 233L140 232C137.782 233.827 136.455 235.514 135 238L134 237L134 235L140 225L139 224L135 226L135 224L135 221L136 222L136 224L138 223C138.453 220.792 138.646 220.449 137 219L137 217C145.258 211.328 149.388 199.28 157.87 192.739C164.466 187.652 174.744 187.989 179 180L177 180L177 178L176 179L176 181L175 182L175 180C168.033 182.743 162.093 185.643 156 190L155 189L155 187C157.749 184.615 159.943 182.002 162 179L161 178L160 179L160 175L158 175C152.976 178.068 148.495 179.496 148 186L150 186L154 183L155 184C151.372 187.129 147.82 192.68 143.812 194.973C139.227 197.595 132.958 195.535 128.004 196.532C123.376 197.464 120.923 200.907 117 203L117 205L118 212L120 211L125 207L126 208C121.811 211.911 118.397 216.359 117 222L119 223L122 223L122 226L123 227L125 227L126 228L126 230L125 231L123 231L123 233L125 233C126.416 236.527 126.394 239.254 126 243L127 242C128.478 242.986 128.203 243 130 243L130 240L131 239C135.208 241.261 139.457 240.918 141 246L138 246C135.971 247.486 134.425 248.359 132 249L132 251C134.106 251.819 135.347 252.487 137 254L139 254L143 250L144 251C137.629 256.322 128.167 263.358 138 271L138 273C136.733 274.543 136.511 275.048 136 277L134 277C125.66 274.744 120.5 267.848 112 266L112 268C109.408 267.492 107.592 267.492 105 268L105 265L104 264L103 265C102.014 266.479 102 266.203 102 268L104 268L105 272L103 272C101.101 269.402 99.8438 269.746 97 271L98 272L100 272L100 275L102 275C107.324 274.98 108.502 277.122 110 282L112 282L113 281L112 280L113 279L115 279C115.772 283.223 115.532 286.77 115 291L113 291L112 290L111 291L112 292C114.265 294.196 115.957 296.066 119 297L119 295L118 293L120 293L122 290L124 291L127 293L127 295L126 298C129.493 298.402 131.92 299.117 134 296L136 296L136 298L138 298L138 296L137 293L138 292L139 293L146 294L145 295C142.029 297.021 141.275 298.423 141 302L139 302L136 301L136 303L140 310L142 310L143 309L143 311L145 311L145 309L147 309L147 311C148.778 311.955 149.021 311.766 150 310L152 310L152 312C150.7 312.65 151 312.147 151 314L153 314L158 313L158 311C154.963 309.472 152.391 308.366 149 308L149 306L149 302L151 302L154 305C155.3 304.35 155 304.853 155 303C157.49 302.585 161.763 299.32 156.847 298.421C153.808 297.866 150.078 299.694 147 300L147 298C152.376 295.409 157.174 295.996 163 296L163 294L160 294L160 291L159 290L158 291L156 291L156 289L153 288L154 287L154 285L151 285C148.366 281.872 146.036 281.129 142 281L142 279L142 277L144 277L145 274L147 274C147.65 275.3 147.147 275 149 275L149 273L154 273L155 272L155 270L163 267L163 265C161.824 257.758 158.777 247.846 169 248L169 245C171.998 241.727 173.614 238.189 175 234L177 234L177 236L183 244L184 243L182 240L183 239C187.961 242.031 188.624 237.06 188 233L190 233L190 236L192 236C195.897 233.608 197.059 230.386 196 226L197 225L198 226C213.782 217.169 211 205.179 211 189L209 189C208.081 183.685 210.377 171.49 212 166L211 165L209 165C205.242 167.14 204.237 169.797 205 174z"/>
<path style="fill:#12285d; stroke:none;" d="M211 166L208 189L210 189C213.503 200.851 212.971 222.994 197 225L196 226L197 227C196.136 231.46 194.477 234.622 190 236L190 234L189 233L188 234L188 236C187.512 238.751 186.795 240.083 184 239L182 239L184 243L183 244L182 243L177 234L175 234C172.897 238.618 169.91 242.995 169 248L167 248C157.646 247.093 162.334 261.405 163 267L161 267C158.381 268.795 156.09 269.966 155 273L154 272C151.457 272.526 150.465 272.878 149 275L147 275C146.35 273.7 146.853 274 145 274L145 276C143.521 276.986 143.797 277 142 277L142 279L142 281L144 281L154 285L154 287L153 288L155 288C155.986 289.479 156 289.203 156 291L158 291L160 290L160 293L161 294L163 294L163 296L161 296C155.415 295.885 151.062 294.413 147 299L148 300L150 300C157.247 298.108 159.558 298.846 155 305L153 304C151.457 302.733 150.952 302.511 149 302L149 304L149 308C153.646 308.899 157.02 311.583 161 314L162 313L163 311L162 310L160 310C160.937 297.683 175.998 295.992 185 292L185 290L183 290L168 290L168 288C168 283.275 165.493 273.238 168.032 269.318C173.048 261.571 189.753 261.678 194.821 269.318C197.383 273.18 196 280.557 196 285L197 284L201 275L203 275L205 277L206 276L211 274L211 272C212.938 247.448 212 222.706 212 198C212 188.678 214.607 174.596 211 166z"/>
<path style="fill:#fcd3c2; stroke:none;" d="M47 171L47 173L47 175L50 175C52.29 183.31 58.6884 187.6 63.4406 194.424C65.7933 197.803 65.7839 202.536 70.0941 204.423C72.9605 205.678 76.1975 203.686 79 203C79.8884 197.042 84.1658 194.085 89 191L88 190L86 190C72.8956 197.754 82.7216 184.292 78 180L79 178L85 174L84 173L82 173C78.8971 174.445 77.653 173.954 76 171C71.7197 172.607 67.555 174.442 63 175L63 173C65.0749 171.83 66.6371 171.308 69 171L69 169L69 167L67 167C58.8628 169.448 56.1024 171.718 47 171z"/>
<path style="fill:#613366; stroke:none;" d="M63 177L63 179L65 179L77 179L77 177C72.1816 176.105 67.7485 175.596 63 177z"/>
<path style="fill:#cbacd2; stroke:none;" d="M138 194L139 195C144.804 194.931 146.191 192.954 150 189L150 187C145.708 188.77 141.671 191.159 138 194z"/>
<path style="fill:#d0cace; stroke:none;" d="M115 225C114.595 231.032 115.309 234.964 122 236L121 235L118 234L118 232L119 225L117 225L115 225z"/>
<path style="fill:#1f1d49; stroke:none;" d="M74 237L76 237L80 234L80 232L80 229L78 229C74.9163 230.942 74.4881 233.475 74 237z"/>
<path style="fill:#272650; stroke:none;" d="M23 238L24 239L26 239L26 241L19 247L20 248L21 249L27 250L28 249L32 242L30 242L30 239L29 240L27 240L27 238L23 238z"/>
<path style="fill:#524053; stroke:none;" d="M37 243L38 244C37.3591 247.666 37.5661 251.186 35 254L35 256L37 256L41 256L41 253C41.5743 251.191 41.4653 250.931 41 249L43 249C42.511 244.751 41.2967 243.343 37 243z"/>
<path style="fill:#576694; stroke:none;" d="M181 246L180 247L177 253L178 254L183 247C182.35 245.7 182.853 246 181 246z"/>
<path style="fill:#b5cbc3; stroke:none;" d="M121 256L121 258L122 267L120 267L119 268C123.828 273.577 128.642 276.414 136 277L136 274L138 271L136 271C135.364 266.109 133.188 262.901 135 258L134 257L133 258L121 256z"/>
<path style="fill:#6d6b71; stroke:none;" d="M32 288L33 287C33.1683 280.043 38.5479 276.713 39 270L41 270L45 270L45 265L47 265C49.7449 266.669 50.4965 267.824 51 271C52.2997 270.35 52 270.853 52 269L58 271L58 273L58 276L56 276L52 273L51 274L51 283L46 283L46 288L44 288L36 288L37 290C47.1907 294.904 59.8089 290.125 60.8565 278C61.2863 273.025 58.3202 268.882 58 264C47.3089 263.068 31.2833 259.6 30.1265 276C29.8403 280.059 31.7428 283.954 32 288z"/>
<path style="fill:#a5a3ac; stroke:none;" d="M167 276L168 275L168 269L170 269L175 269L175 271L176 272L176 270L177 269C180.732 269.003 183.96 268.697 187 271C188.3 270.35 188 270.853 188 269L195 269L195 267C189.78 266.833 186.811 262.845 181.997 262.387C174.045 261.631 167.025 269.012 167 276z"/>
<path style="fill:#2b3260; stroke:none;" d="M177 265L177 267L179 267L186 267L186 265C182.731 264.249 180.269 264.249 177 265z"/>
<path style="fill:#e0e8ca; stroke:none;" d="M45 265L45 267L45 270L47 270L51 270L51 268C49.3344 265.62 47.8771 265.318 45 265z"/>
<path style="fill:#dfd7a8; stroke:none;" d="M52 269L52 271C53.5169 273.918 54.8926 274.922 58 276L58 274L58 271L56 271C54.4056 269.703 53.9817 269.465 52 269z"/>
<path style="fill:#fdfbfc; stroke:none;" d="M168 269L168 271L168 289L170 289L195 289L195 287L195 269L193 269C190.597 269.168 189.54 269.197 188 271L187 269L176 269L176 271L175 272L175 270L174 269L168 269z"/>
<path style="fill:#8e96a5; stroke:none;" d="M195 269L195 289L196 288C196 282.099 197.295 274.469 195 269z"/>
<path style="fill:#b84b2f; stroke:none;" d="M39 270L38 275L39 276L41 276C42.3818 273.58 43.3626 272.939 46 272L46 274L46 283L48 283L51 283L51 281L52 271L51 270L39 270z"/>
<path style="fill:#bdbec2; stroke:none;" d="M41 276L38 276L37 277L37 279L39 279L44 278L44 280L43 281L42 280C39.0493 280.529 36.9032 280.737 34 280L33 281L33 288L35 288L46 288L46 286L46 272L44 272C42.0799 273.297 41.6839 273.791 41 276z"/>
<path style="fill:#5e5a72; stroke:none;" d="M23 273L23 275L27 289L29 289C31.078 283.661 26.7699 276.714 23 273z"/>
<path style="fill:#334b78; stroke:none;" d="M206 277L201 275L201 277C197.836 280.25 197.288 286.65 193.697 288.972C183.711 295.43 160.543 293.407 160 310L162 310L163 311C160.315 313.862 158.641 316.06 158 320L160 321C167.862 321.988 178.144 321.295 186 320C187.074 311.759 193.393 305.599 196 298L194 298C193.779 294.994 193.545 293.635 191 292L192 291L199 290L199 292L198 293L199 294C202.286 292.002 204.344 290.965 205 287L207 287L211 287L211 285L211 274L209 274C206.876 274.899 206.899 274.876 206 277z"/>
<path style="fill:#7facaf; stroke:none;" d="M176 275L176 277L176 286L178 286C180.966 281.301 181.766 277.415 176 275z"/>
<path style="fill:#e3a888; stroke:none;" d="M181 277L179 284L180 285C182.734 283.216 184.505 281.9 186 279L185 278L181 277z"/>
<path style="fill:#d53a40; stroke:none;" d="M34 278L34 280C37.15 281.297 40.6077 280.799 44 281L44 279C40.9055 277.854 37.3242 278.278 34 278z"/>
<path style="fill:#7e9bbd; stroke:none;" d="M136 282L136 284C138.911 288.688 144.532 291.819 150 292L150 290C144.491 288.379 140.993 284.413 136 282z"/>
<path style="fill:#5a5d7d; stroke:none;" d="M18 286L18 289L18 293C19.6352 292.455 19.455 292.635 20 291L21 293C22.2429 294.903 22.2429 295.097 21 297L21 299L23 299C24.2997 298.35 24 298.853 24 297L25 298L25 300L24 301L23 300L22 301C22.6498 302.3 22.1468 302 24 302L24 304L22 304C21.0143 302.521 21 302.797 21 301L19 301L16 301L16 303L19 303L19 305C20.4224 314.676 28.554 307.816 34 311L35 310L36 309L35 308L33 307L33 305L33 301L31 301L30 302L30 300L31 297L28 297C24.9117 292.765 23.5904 286.949 18 286z"/>
<path style="fill:#54516c; stroke:none;" d="M81 291L80 290L77 290L77 292C79.9339 292.64 82.0661 292.64 85 292L85 294L87 294L87 292C84.9914 289.887 83.1553 288.558 81 291z"/>
<path style="fill:#9d9eac; stroke:none;" d="M168 289L169 290L195 290L194 289L168 289z"/>
<path style="fill:#2f3757; stroke:none;" d="M75 294L74 295C72.3202 297.989 68.099 303.083 64.892 304.478C60.7014 306.3 56.7477 303.738 55 309L60 309L59 310L59 313L60 312C62.5276 309.316 64.5335 307.39 68 306L68 308C64.5263 309.758 63.4469 311.107 63 315L65 315L68 314L68 316L71 316L71 314C72.6352 313.455 72.4549 313.635 73 312L74 314C81.1937 315.939 85.3807 316.835 93 315L93 317L97 316L97 314C92.5661 308.489 91.8004 306.028 84 306L84 309C80.9443 311.2 78.7522 311.881 75 312L75 310C77.6269 307.989 79.7984 306.825 83 306L83 301L85 301L86 300C83.2742 296.568 81.4368 295.081 77 296L76 295L77 294L75 294z"/>
<path style="fill:#6a6d7a; stroke:none;" d="M42 295L42 297C29.6461 297.962 51.7053 308.788 56 298L53 298C50.6996 297.084 49.6232 297.121 48 299L46 298L42 295z"/>
<path style="fill:#9b9ca0; stroke:none;" d="M111 313L111 315C113.428 318.669 115.403 316.58 116 313L114 313L111 313z"/>
<path style="fill:#565658; stroke:none;" d="M103 314L103 316L106 317L106 315L103 314z"/>
<path style="fill:#575762; stroke:none;" d="M121 314L121 316L122 317L123 316L124 315L123 314L121 314z"/>
<path style="fill:#415073; stroke:none;" d="M41 315L41 317L41 320L44 320C44.6498 321.3 44.1468 321 46 321L46 319L45 315L43 315L41 315z"/>
<path style="fill:#5e5d72; stroke:none;" d="M138 320L137 322L137 324L139 324C140.267 322.457 140.489 321.952 141 320L138 320z"/>
<path style="fill:#b2b2b2; stroke:none;" d="M6 321L6 415L7 414L7 350C7 341.466 9.30616 328.879 6 321z"/>
<path style="fill:#363a51; stroke:none;" d="M36 335C40.3308 335.342 44.8472 335.761 49 337L50 336L50 334C45.1106 333.555 42.7533 332.041 40 328C36.4238 329.437 36.1227 331.286 36 335z"/>
<path style="fill:#545359; stroke:none;" d="M110.001 332.569C93.7318 336.241 100.526 361.101 116.999 356.566C132.215 352.378 124.909 329.203 110.001 332.569z"/>
<path style="fill:#50ac3c; stroke:none;" d="M151 356L153 356C155.401 354.29 157.593 352.581 159.144 349.995C160.247 348.155 160.746 346.124 160.902 344C162.337 324.459 131.201 333.486 141.894 348.891C144.18 352.185 148.305 353.155 151 356z"/>
<path style="fill:#4b8b49; stroke:none;" d="M64 334L64 336C64 347.386 64.7544 355.917 78 357L77 356L75 356L75 354C76.6352 353.455 76.455 353.635 77 352L76 351L74 351C70.6402 346.952 67.6026 342.573 65 338L66 337L68 337L67 336L66 334L64 334z"/>
<path style="fill:#f54764; stroke:none;" d="M65 338L65 340L69 345L70 344L70 342C75.1443 340.395 79.6255 340 85 340C81.2305 331.384 71.3357 333.444 65 338z"/>
<path style="fill:#b9bbb9; stroke:none;" d="M26 354L28 354C32.9412 354 44.402 356.136 48.3966 352.972C50.36 351.417 49.985 348.209 49.9992 346C50.0151 343.537 50.6152 339.683 48.9722 337.603C46.1475 334.028 29.2736 333.382 26.858 337.576C24.5079 341.657 26 349.412 26 354z"/>
<path style="fill:#4a6c9b; stroke:none;" d="M177 335L177 337L178 338L178 336L185 336L185 341L186 340L186 335L184 335L177 335z"/>
<path style="fill:#4382f3; stroke:none;" d="M178 336L178 338L179 343L181 343C184.168 341.256 184.731 339.565 185 336L183 336L178 336z"/>
<path style="fill:#55565a; stroke:none;" d="M34.1481 339.029C26.6158 343.442 33.9251 355.599 41.7716 350.821C49.4225 346.162 41.8697 334.504 34.1481 339.029z"/>
<path style="fill:#81a5d3; stroke:none;" d="M78 350L77 349C71.3858 347.289 72.2567 342.253 78 342L79 341L78 340C68.1951 340.66 68.8815 352.026 78 350z"/>
<path style="fill:#dfb208; stroke:none;" d="M78 340C79.9808 345.915 77.5558 349.65 75 355L76 356L78 356C85.4891 353.431 86.9391 347.261 87 340L85 340L78 340z"/>
<path style="fill:#b4b4b6; stroke:none;" d="M117 340L117 342L117 344L119 344L120 340L117 340z"/>
<path style="fill:#c7eab0; stroke:none;" d="M145 340L145 342L147 348L149 348C149.81 345.271 149.979 342.85 150 340L148 340L145 340z"/>
<path style="fill:#3c4eac; stroke:none;" d="M36.3326 342.072C32.7577 344.337 36.786 349.938 40.1065 347.624C43.7045 345.117 40.0667 339.706 36.3326 342.072z"/>
<path style="fill:#347bc3; stroke:none;" d="M74.314 342.137C70.2326 344.315 73.5363 350.583 77.6821 347.954C81.3413 345.633 78.057 340.139 74.314 342.137z"/>
<path style="fill:#b9b9b9; stroke:none;" d="M106 341L106 343L109 344L109 342L106 341z"/>
<path style="fill:#dfdfdc; stroke:none;" d="M112 341L112 343L114 343L114 341L112 341z"/>
<path style="fill:#eefae9; stroke:none;" d="M152 341L152 343L154 348L155 347L156 346L156 341L154 341L152 341z"/>
<path style="fill:#2649a4; stroke:none;" d="M180 343L180 345C184.736 351.161 189.208 353.93 197 354L197 352L197 347L194 347L191 346L191 348C187.212 347.341 185.77 345.368 184 342L180 343z"/>
<path style="fill:#544a56; stroke:none;" d="M87 343C86.0839 349.085 83.4996 353.121 78 356L79 357L81 357L83 355L84 356L84 358L86 360L87 359L88 358L88 353L90 353L91 348L89 348L87 343z"/>
<path style="fill:#b3b3b3; stroke:none;" d="M106 346L106 348L109 349L109 347L106 346z"/>
<path style="fill:#a9a9ad; stroke:none;" d="M117 346L117 348L120 349L120 347L117 346z"/>
<path style="fill:#594e65; stroke:none;" d="M25 347L25 359L24 358L23 354L21 354L21 356C21.9857 357.479 22 357.203 22 359L20 359C19.1425 361.43 19.8171 362.72 21 365L23 365C26.7592 363.009 30.0185 365.672 31 360L34 360L35 359L35 357L34 356L33 357L33 359L32 358L32 354L30 354L26 354L26 352L25 347z"/>
<path style="fill:#d7d9de; stroke:none;" d="M112 347L112 349L114 349L114 347L112 347z"/>
<path style="fill:#4d4c53; stroke:none;" d="M61 349L61 351C62.5196 359.314 57.5132 364.942 57 373L59 373L63 373L63 370L64 367L65 368L65 370L69 378L70 377L69 376C69.5355 370.616 72.4321 363.097 64 364L63 363C64.9232 360.777 66.0313 358.776 67 356L66 355C64.1158 353.02 63.5307 351.69 63 349L61 349z"/>
<path style="fill:#4d4c5a; stroke:none;" d="M207 356L207 359C204.206 362.688 205 367.519 205 372L207 372C210.386 367.196 210.911 361.411 209 356L207 356z"/>
<path style="fill:#9fa0a4; stroke:none;" d="M103 381L105 381L123 381L123 379C122.029 366.426 103.046 368.078 103 381z"/>
<path style="fill:#9899a2; stroke:none;" d="M165 370L165 372L178 372L178 374L178 378L180 378L180 370L178 370L165 370z"/>
<path style="fill:#94999e; stroke:none;" d="M48 371L47 373L48 377L50 377C53.9929 373.975 59.3358 374.89 64 376L64 378L55 379L56 380C58.6404 379.991 69.8972 377.435 62.6813 373.742C58.5311 371.618 53.9538 373.995 50 371L48 371z"/>
<path style="fill:#2a2835; stroke:none;" d="M104 379L106 379L122 379L122 377L122 375L119 375C113.791 370.858 105.232 371.547 104 379z"/>
<path style="fill:#a0a1a4; stroke:none;" d="M160 373L160 375L160 380L162 380L177 380L177 378C175.767 370.61 165.828 373 160 373z"/>
<path style="fill:#565656; stroke:none;" d="M220 373L220 416L221 415C221 403.043 224.611 383.988 220 373z"/>
<path style="fill:#020202; stroke:none;" d="M162 375L162 377L162 379L164 379L175 379L175 377L175 375L173 375L162 375z"/>
<path style="fill:#5d5d5d; stroke:none;" d="M219 418L218 419L218 421C219.289 419.557 219.401 419.766 219 418z"/>
<path style="fill:#919191; stroke:none;" d="M212 425L213 426L215 426L216 425L215 424L212 425z"/>
<path style="fill:#828282; stroke:none;" d="M14 426L17 428L14 426z"/>
<path style="fill:#8f8f8f; stroke:none;" d="M17 428L18 429C23.9109 431.214 29.7717 431 36 431L35 430L17 428z"/>
<path style="fill:#adadad; stroke:none;" d="M198 429L199 430L208 429L207 428L205 428L198 429z"/>
<path style="fill:#383838; stroke:none;" d="M37 431L38 432L73 434L72 433L37 431z"/>
<path style="fill:#4c4c4c; stroke:none;" d="M177 431L178 432L185 432L184 431L177 431z"/>
<path style="fill:#b2b2b2; stroke:none;" d="M42 432L43 433L52 434L51 433L42 432z"/>
<path style="fill:#696969; stroke:none;" d="M165 432L166 433L175 433L174 432L165 432M70 434L71 435L165 434L164 433L70 434z"/>
</svg>
