<?xml version="1.0" encoding="UTF-8" standalone="no"?>
				  <svg
				  xmlns:rdf="http://www.w3.org/1999/02/22-rdf-syntax-ns#"
				  xmlns:svg="http://www.w3.org/2000/svg"
				  xmlns="http://www.w3.org/2000/svg"
				  xmlns:xlink="http://www.w3.org/1999/xlink"
				  version="1.1"  width="440" height="440">
<path style="fill:#a8a7a5; stroke:none;" d="M170 31L171 32C179.612 31.9763 187.628 29.1165 196.039 28.1288C209.008 26.6062 222.938 28 236 28L235 27C212.898 27 191.782 26.9538 170 31z"/>
<path style="fill:#3c3b3a; stroke:none;" d="M121 85L122 84C122.066 60.1086 138.654 46.6065 159.424 38.9992C192.444 26.9058 236.035 28.9252 269.17 38.8195C284.103 43.2787 315.577 51.8137 317 71L316 70C307.039 55.8393 294.194 50.2949 279 45.0641C247.886 34.3526 206.917 34.6676 175 41.7932C158.63 45.4478 137.903 50.6375 129.595 67C124.023 77.9725 125 89.0261 125 101L125 154C125 195.958 126.013 238.056 124.985 280C124.244 310.24 121.861 340.256 128 370L127 369L125 366L124 367L124 369C125.666 375.608 129.596 380.907 134 386L135 385L132 382L133 381L135 381L135 377L137 377C145.028 388.388 160.191 393.147 173 397.05C206.937 407.391 249.383 405.64 282.946 394.073C291.152 391.244 297.852 383.427 306 380L306 382L308 385L310 384C326.685 359.166 322 329.716 322 301C322 260.598 322.808 220.118 323.985 180C324.426 164.955 321.856 148.823 323.439 134C324.898 120.336 323.637 106.638 323.039 93C322.324 76.6581 322.811 61.2377 308.985 49.6158C298.395 40.713 286.15 36.1132 273 32.4283C260.045 28.798 246.373 28 233 28C200.1 28 139.942 24.5034 123.843 62C120.744 69.22 121 77.3329 121 85z"/>
<path style="fill:#bfbfbe; stroke:none;" d="M162 33L163 34L165 34L170 33L169 32L162 33z"/>
<path style="fill:#757473; stroke:none;" d="M122 85L121 84L123 64L122 65C118.01 75.7051 119 86.7359 119 98L119 150L119 296C119 320.867 115.083 349.364 124 373L125 372L124 371L124 366L125 367L127 370L128 369L128 367C118.551 341.954 123.81 308.279 124.961 282C126.952 236.526 125 190.522 125 145C125 121.908 118.613 87.6504 130.106 67C139.101 50.8394 159.343 45.5119 176 41.7932C207.435 34.7753 247.356 34.5145 278 45.0641C293.706 50.4711 306.754 56.3884 316 71L317 70C315.518 50.4634 283.896 43.5247 269.17 38.5455C260.922 35.7567 252.561 35.7634 244.17 33.5594C234.15 30.9278 223.352 32 213 32C176.52 32 122.005 37.5557 122 85z"/>
<path style="fill:#8d8c89; stroke:none;" d="M125 58L126 59L127 58C132.824 51.3333 138.67 45.9865 146 41L145 40C136.66 43.9627 130.062 50.3475 125 58z"/>
<path style="fill:#0f100f; stroke:none;" d="M200 43.4244C178.438 46.2555 148.739 45.9721 135.403 67.0146C129.137 76.9019 131 90.8719 131 102L131 174L131 305C131 321.887 126.474 346.547 133.981 362C148.125 391.114 194.707 399.18 223.999 395.826C234.308 394.645 238.684 381.084 247 375.728C264.786 364.272 298.468 370.61 310.721 349.829C315.865 341.107 313 325.781 313 316L313 237L313 122C313 109.236 317.482 86.0267 311.775 74.5756C296.803 44.5332 252.913 43 224 43C216.075 43 207.867 42.3914 200 43.4244z"/>
<path style="fill:#cdcdcd; stroke:none;" d="M321 66L321 68C322.496 78.1722 323 87.6539 323 98L324 97C324 87.073 325.899 75.0158 321 66z"/>
<path style="fill:#cdcece; stroke:none;" d="M118 73L118 355L119 354L119 156L119 99C119 91.2563 121.004 80.1593 118 73z"/>
<path style="fill:#384125; stroke:none;" d="M155 94L155 96L155 167L156 166L156 95L158 95C169.604 97.7626 183.105 96 195 96C215.678 96 236.4 96.9433 257 97L257 95C224.912 89.0431 187.652 94 155 94z"/>
<path style="fill:#332f2e; stroke:none;" d="M257 94L258 95C263.589 95.1154 282.433 93.4066 286.397 96.7731C290.269 100.062 288 113.307 288 118C288 138.72 287.369 159.338 287 180L270 178L270 180C275.466 182.358 282.125 182 288 182L288 184L288 314L289 313L289 152L289 111C289 107.071 290.544 98.8503 287.972 95.6034C284.137 90.7614 262.98 94 257 94z"/>
<path style="fill:#716e47; stroke:none;" d="M156 95L156 97C156 122.41 152.361 151.015 157 176C161.655 173.848 169.32 172.111 171 167L173 167C179.273 168.216 193.405 174.832 197 168L199 168C202.082 169.282 204.792 168.763 208 168L208 170L211 170L211 168L211 166L208 166C202.929 163.871 196.075 165.702 191.433 162.062C186.479 158.179 188.587 152.132 194 151L194 153C191.96 160.689 198.729 162.219 205 163.246C213.127 164.577 216.934 166.62 224.174 169.411C230.359 171.796 237.667 170.602 239 179L241 179C246.178 179.168 248.952 180.813 252 185L254 185L254 183L251 179L252 178L254 178C258.248 172.274 251.34 166.25 252 160L251 159L249 159C246.204 165.23 251.531 168.767 252 175L250 175L242 175L242 173C235.423 168.21 222.998 162.717 215 161.256C210.522 160.438 201.774 161.544 198.693 157.566C192.076 149.024 204.612 137.536 197 128L198 127L256 126L256 124L160 124L160 122L160 97L162 97L249 97L248 96C217.433 96 186.444 97.4027 156 95z"/>
<path style="fill:#88829c; stroke:none;" d="M250 97L251 98L256 98L256 100C256 105.721 258.168 116.771 253.427 120.968C248.214 125.582 234.569 123 228 123L160 123L161 124L225 124C233.469 124 245.79 121.72 253.811 124.514C261.22 127.094 265.506 144.482 264 151L266 151L269 161L264 161L265 162C267.113 163.501 268.403 163.822 271 164L271 167C275.295 172.462 282.865 171.766 286 178L284 178L272 178L273 179C277.423 179 281.739 178.741 286 180L287 179C288.566 158.444 288 137.656 288 117C288 112.788 290.224 98.7335 286.397 96.1173C284.06 94.5203 278.726 95.9863 276 95.9992C267.065 96.0417 258.739 96.7452 250 97z"/>
<path style="fill:#aea6a9; stroke:none;" d="M160 97L160 99L160 123L162 123L230 123C235.948 123 249.633 125.538 254.106 120.968C258.418 116.563 256 103.762 256 98L254 98C223.388 94.1313 190.867 97 160 97z"/>
<path style="fill:#d5d5d5; stroke:none;" d="M171 98L171 100C174.545 102.418 177.936 101.752 182 101C182 102.853 181.7 102.35 183 103L181 106L182 107L182 110L180 110C174.086 107.192 167.244 108.837 161 110L161 112L161 122L163 122L175 122L176 114L178 114L178 118L180 118L180 116L179 113L181 113C184.798 114.275 188.032 114.566 192 114L192 119L194 119C196.474 112.272 203.102 114.059 208.999 114.969C212.528 115.513 214.853 117.837 218.17 118.687C228.955 121.451 241.847 121 253 121L253 119L252 117L254 117L255 116C253.095 111.462 255 104.062 255 99L253 99L216 99L216 101C215.858 112.976 207.452 108.351 199 110L198 109L198 102L197 103C196.731 106.565 196.168 108.257 193 110L193 108C192.959 104.298 192.236 101.459 191 98L189 98L171 98z"/>
<path style="fill:#c3babc; stroke:none;" d="M265 98L265 100C265 104.718 262.632 118.827 266.603 121.972C270.161 124.79 279.637 123 284 123L284 121L284 98L282 98L265 98z"/>
<path style="fill:#848484; stroke:none;" d="M324 98L324 133L325 132C325 122.137 327.811 107.083 324 98z"/>
<path style="fill:#454646; stroke:none;" d="M162 99L162 101L162 108L164 108L166 107L166 109C171.525 108.876 176.546 109.112 182 110L182 108L181 106L183 106L182 101L180 101C176.632 101.802 173.455 101.99 170 102L170 100L169 99L169 101L162 99z"/>
<path style="fill:#515150; stroke:none;" d="M192 99L192 101C193.759 103.308 193.917 105.092 194 108L196 108C196.19 105.029 196.834 102.74 198 100L197 99L192 99z"/>
<path style="fill:#545453; stroke:none;" d="M210 99L210 101L199 102L199 104L199 108L201 108L202 103L204 103L204 105L203 109L205 109L215 108L215 106L215 100L213 100L212 103L211 102L211 100L210 99z"/>
<path style="fill:#41403e; stroke:none;" d="M185 101L185 103L185 108L186 107L186 104L188 104L189 103L189 101L187 101L185 101z"/>
<path style="fill:#90908e; stroke:none;" d="M193 101L193 110L195 110C196.942 107.44 196.965 105.192 197 102L196 103L196 108L194 108C193.981 105.457 193.985 103.332 193 101z"/>
<path style="fill:#656565; stroke:none;" d="M267 104L267 106C271.471 107.876 277.183 107 282 107L282 105C277.529 103.124 271.817 104 267 104z"/>
<path style="fill:#a6a97f; stroke:none;" d="M286 105C286 110.064 287.553 118.303 284.821 122.772C282.116 127.196 267.007 128.147 264.028 123.682C261.421 119.775 263 111.537 263 107L261 107C261 120.055 258.179 143.344 276 146L275 145L273 145L274 144L276 144C277.582 141.943 277.826 140.613 278 138L279 139L279 143L281 143C282.952 143.511 283.457 143.733 285 145L286 144L287 143C287 132.089 290.211 115.036 286 105z"/>
<path style="fill:#838283; stroke:none;" d="M267 109L267 111L267 113L269 113L281 113L280 112L268 112L268 110L281 110L280 109L267 109z"/>
<path style="fill:#353535; stroke:none;" d="M268 110L268 112L281 112L281 110L268 110z"/>
<path style="fill:#575557; stroke:none;" d="M179 113L179 115C179.986 116.479 180 116.203 180 118L178 118L178 114L176 114L175 121L177 121L192 120L192 118L192 114L190 114L179 113z"/>
<path style="fill:#333231; stroke:none;" d="M268 115L268 117C271.959 118.661 276.737 118 281 118L281 116C277.041 114.339 272.263 115 268 115z"/>
<path style="fill:#9eba69; stroke:none;" d="M157 124L157 126C157 138.817 155.025 153.503 158 166L160 166L163 165L163 168L164 169L166 169C172.296 164.774 175.653 164.939 183 165L183 163L183 159L185 159L186 158L186 156C184.095 152.94 185.959 148.649 186 145L188 145L190 148L192 147C194.009 144.203 196.831 141.265 198.019 138C199.74 133.268 195.423 128.44 190.999 127.318C179.779 124.472 168.219 127.501 157 124M197 127L197 129C203.749 137.464 191.846 151.356 198.618 158.258C201.804 161.504 209.802 160.49 214 161.256C221.099 162.551 238.361 168.744 242 175L244 175L252 175L252 173C251.141 167.399 245.164 162.636 252 159L251 161C252.083 166.695 259.308 175.469 251 178L254 185L252 185C249.195 179.18 244.926 179.005 239 179C238.399 171.266 232.147 171.258 226.039 169.687C222.404 168.751 220.477 165.124 216.826 164.279C207.183 162.045 192.355 165.347 194 151L192 151C187.468 152.828 187.092 159.746 191.433 162.57C196.541 165.894 205.133 165.258 211 166L211 168L211 170L209 170L208 168L206 168C202.769 168.889 200.284 168.602 197 168L197 170C188.937 172.637 179.419 167.362 171 167L171 170C166.787 171.202 159.655 172.695 157.027 176.568C152.62 183.064 156 201.221 156 209L156 315L158 315L172 315L172 313L176 312L175 311L171 311L171 309C184.449 307.974 170.606 303.502 166 302L167 301L171 299L171 297C171.777 292.502 174.584 290.682 179 290L179 292C176.447 294.904 174.561 297.13 174 301L177 301C178.486 303.029 179.359 304.575 180 307L181 306C181.134 308.904 180.391 310.404 179 313L180 314L213 311L213 313L217 314L217 312L216 311L216 313L215 312C212.196 309.875 209.466 310.011 206 310L206 308L208 301L211 301C212.3 300.35 212 300.853 212 299L214 299L217 300L217 298L228 295L228 293C228.206 288.531 231.065 288.069 235 287L235 289C237.019 290.15 237.723 291.015 239 293L238 294L237 293L236 294L235 295L236 296L238 296L239 300L241 300C242.3 299.35 242 299.853 242 298L244 298L244 300C246.261 301.618 248.283 302.415 251 303L251 305L251 309L249 309L244 306L243 307L245 310L244 311L229 310L230 311L236 311L236 313C243.169 316.008 254.239 314 262 314L262 312C261.014 310.521 261 310.797 261 309L263 309L264 308L263 307L263 305L265 305L265 303L263 303L262 299L264 299C267.2 302.663 275.399 301 280 301L280 299C275.03 300.183 270.081 300 265 300L265 298L278 298C275.191 292.496 270.443 288.042 268.634 282C263.584 265.127 264.393 244.775 252 231L253 230C267.268 244.612 265.249 265.99 271.688 284C274.511 291.899 281.323 298.202 286 305L287 304L287 215L285 215C282.988 216.758 281.419 217.916 279 219L279 217C286.404 211.264 284.17 205.213 284 197C274.535 195.09 274.984 189.687 276 182L274 182L269 182L268 176L270 176C274.469 179.13 280.719 178 286 178L286 176C280.933 170.678 273.33 172.371 271 164C261.579 162.679 263.388 154.084 264 147L262 147L258 147L258 145C257.893 141.699 257.723 139.961 255 138L255 136L260 134L258 126L256 126C236.279 126 216.653 126.156 197 127z"/>
<path style="fill:#cecfae; stroke:none;" d="M255 136L255 138C257.693 140.852 257.955 143.141 258 147L260 147L266 148L266 146L261 134L259 134L255 136z"/>
<path style="fill:#d2d1d3; stroke:none;" d="M278 138C277.432 141.582 276.492 142.943 273 144L274 145C276.061 146.988 276.579 148.157 277 151L279 151C279.874 148.948 279.953 147.253 280 145L285 145L285 143L279 143L278 138z"/>
<path style="fill:#8d8d8d; stroke:none;" d="M324 141L324 184L325 183C325 171.043 328.611 151.988 324 141z"/>
<path style="fill:#c1c0c5; stroke:none;" d="M165 151L167 151L173 151L173 149C169.627 146.459 166.391 146.81 165 151z"/>
<path style="fill:#cacaae; stroke:none;" d="M263 151L263 154C262.327 156.42 263.456 158.536 264 161L266 161L269 161L269 159L267 151L265 151L263 151z"/>
<path style="fill:#677267; stroke:none;" d="M268 176L268 178L269 182L271 182L276 182L276 184C272.37 190.99 276.554 196.171 284 197L284 199C284.366 207.53 283.793 210.716 279 218L280 219L282 219L286 215L287 216L287 305L285 304C281.945 296.213 274.547 290.999 271.688 283C265.95 266.953 268.227 240.985 253 230L252 231C266.17 252.697 262.789 280.237 280 300L279 301C274.055 301 268.077 302.089 264 299L262 299L262 301C266.441 304.365 273.61 303 279 303L279 305L263 305L263 307L264 309L262 309C261.378 310.943 261.564 311.949 262 314L260 314L236 314L236 312C230.383 309.648 223.153 312.142 217 311L217 313L213 314L213 312C208.317 310.091 204.619 312.926 200 313.737C193.744 314.835 185.059 314.791 179 313L178 314L179 315L288 315L288 313L288 182L286 182L270 181L270 179C270.986 177.521 271 177.797 271 176L268 176z"/>
<path style="fill:#cb262a; stroke:none;" d="M227 200C231.588 200.565 234.642 199.448 239 199L240 198L240 196C248.291 184.101 223.603 176.032 224.098 191.961C224.19 194.922 225.877 197.355 227 200z"/>
<path style="fill:#8c8c8c; stroke:none;" d="M322 187L322 265L323 264L323 211C323 203.784 324.802 193.678 322 187z"/>
<path style="fill:#804000; stroke:none;" d="M174 203L175 204C174.647 208.993 174.992 213.098 176 218L178 218L180 217L180 219C179.014 220.479 179 220.203 179 222L180 223L193 222L193 220L197 220L197 218C199.579 215.675 201.814 213.416 205 212L205 210C204.457 204.087 202.121 200.928 196 200L196 203L195 204L192 200L187 200L187 198C181.576 195.887 178.324 200.391 174 203z"/>
<path style="fill:#000100; stroke:none;" d="M235 199L235 201C238.17 208.224 242.901 220.659 251 223L251 221C250.013 214.079 243.256 197.808 235 199z"/>
<path style="fill:#8a743a; stroke:none;" d="M205 204L205 212L203 212C200.435 214.042 198.434 216.042 197 219L198 220L198 218C199.479 218.986 199.203 219 201 219L201 216L203 213L205 213L205 215L207 215L207 213C206.515 209.84 206.491 206.863 205 204z"/>
<path style="fill:#625d65; stroke:none;" d="M262 219L262 221C266.812 223 272.047 220.667 277 220L277 218C271.972 218.934 267.1 219 262 219z"/>
<path style="fill:#66ccff; stroke:none;" d="M205 224L205 227L200 228L202 232L200 232L198 234L197 232C194.908 232.406 194.98 232.217 194 234L193 233C178.021 236.092 172.261 241.584 176 256L178 256C179.207 259.155 179.711 260.915 183 262L183 264C182.641 268.555 181.691 272.531 183 277L185 277C187.797 276.036 190.045 275.881 193 276L193 274C193.569 269.33 195.077 265.742 194 261L196 261C198.667 259.013 201.985 257.596 204 255L206 255C209.293 257.494 212.528 257.427 215 254L217 254L217 256L219 256C221.066 254.661 221.525 254.365 222 252C226.612 254.074 230.301 253.677 235 252L235 254L245 251L245 249L246 235L243 235L242 234L242 230L240 230C231.812 229.286 225.369 225.008 217 227L217 225L205 224z"/>
<path style="fill:#d3d3b1; stroke:none;" d="M157 239L157 241L157 244L159 244C160.87 242.771 161.224 242.132 162 240L161 239L157 239z"/>
<path style="fill:#b9b9ba; stroke:none;" d="M322 265L322 351L323 350L323 291C323 283.256 325.004 272.159 322 265z"/>
<path style="fill:#d5d5d5; stroke:none;" d="M228 295C226.147 295 226.65 294.7 226 296C221.949 296.098 219.135 296.345 217 300L215 300C213.521 299.014 213.797 299 212 299L212 301L208 301L208 304C206.418 306.057 206.174 307.388 206 310L208 310C211.198 310.23 212.766 310.704 215 313C216.3 312.35 216 312.853 216 311C225.346 312.735 235.415 310.802 245 311L245 309L243 307L244 306C246.442 307.775 248.023 308.568 251 309L251 307L251 303L248 303L244 298L242 298L239 300L239 297L235 296L235 294L236 293L238 293L239 294L239 292L235 287C229.505 288.089 227.072 289.012 228 295z"/>
<path style="fill:#c7c5c7; stroke:none;" d="M171 299L169 299L166 301L167 302C170.374 304.132 182.962 307.127 171 309L171 311C178.599 310.909 183.509 302.983 174 301L174 299C176.084 296.003 178.067 293.569 179 290L177 290C172.178 291.37 170.186 293.998 171 299z"/>
<path style="fill:#d4d8cf; stroke:none;" d="M265 298L265 300L279 300L279 298L265 298z"/>
<path style="fill:#d0d0ac; stroke:none;" d="M157 314L159 314L170 314L170 312L170 307L169 306C166.643 304.896 165.624 304.044 164 302L162 302C159.002 305.431 157.622 309.515 157 314z"/>
<path style="fill:#aba7a8; stroke:none;" d="M265 303L265 305L279 305L279 303L265 303z"/>
<path style="fill:#b9b4b8; stroke:none;" d="M265 308L265 310L278 310L278 308L265 308z"/>
<path style="fill:#636260; stroke:none;" d="M246 334L246 337L245 341L247 341L251 341L251 339C249.912 336.003 249.05 334.948 246 334z"/>
<path style="fill:#7b7675; stroke:none;" d="M203 346L201 346L200 349L198 349L196 349L196 347C197.988 344.939 199.157 344.421 202 344L202 342C184.743 337.062 200.544 360.714 203 346z"/>
<path style="fill:#6d6662; stroke:none;" d="M204 351L206 351C210.239 351 214.518 351.638 218 349L223 351L223 349C222.788 342.534 219.937 342.021 214 342L214 344L214 349L213 348C208.884 339.997 205.477 343.966 204 351z"/>
<path style="fill:#7a7270; stroke:none;" d="M225 343L225 345L225 351L227 351C228.3 350.35 228 350.853 228 349L236 352L236 350C235.918 347.508 235.28 341.536 232 345L230 345C228.212 343.578 227.294 343.303 225 343z"/>
<path style="fill:#837d78; stroke:none;" d="M244 343L243 344L243 351L245 351L246 348L248 348L251 351L252 350L252 344L251 345L251 347L249 347C247.376 344.956 246.357 344.104 244 343z"/>
<path style="fill:#919090; stroke:none;" d="M246 377L246 379L248 379C265.925 368.957 296.399 372.331 310 355L309 354C289.613 365.658 264.467 364.936 246 377z"/>
<path style="fill:#7a7875; stroke:none;" d="M136 368L136 370C150.39 390.429 178.812 395.512 202 398.285C211.665 399.441 223.144 400.642 232 396L232 394L230 394C219.226 398.035 206.019 396.235 195 394.321C173.956 390.665 151.737 386.018 138 368L136 368z"/>
<path style="fill:#0d0a07; stroke:none;" d="M301 370L298 370C289.363 366.485 274.727 376.041 265.961 378.157C261.337 379.272 256.29 378.795 252.001 381.14C248.86 382.857 240.807 390.055 244.071 394.356C245.907 396.775 256.153 394.11 259 393.7C270.538 392.036 299.911 383.822 301 370z"/>
<path style="fill:#191916; stroke:none;" d="M135 377L135 380L134 381L132 381L133 383C142.334 396.566 155 400.702 170 405.285C200.787 414.693 229.749 412.574 261 407.084C273.658 404.861 287.953 401.88 298.424 393.776C303.745 389.659 308.397 386.97 306 380L304 380C297.352 384.103 290.835 390.024 283.871 393.363C274.651 397.785 262.919 398.89 253 400.439C224.044 404.962 194.852 404.615 167 394.91C154.743 390.64 146.2 382.223 135 377z"/>
<path style="fill:#bbb9b8; stroke:none;" d="M286 401L287 402C293.252 402.129 298.916 403.97 305 405L305 407C301.254 420.025 278.43 416.999 268 417C236.346 417.002 204.678 417.791 173 417.015C163.132 416.773 145.085 419.864 137.319 412.28C128.495 403.664 147.112 401.003 152 401L152 399C143.066 395.084 119.723 405.12 132.475 415.2C141.711 422.501 159.968 419 171 419C202.946 419 235.056 419.155 267 419.001C277.821 418.949 298.478 422.955 307.695 416.501C313.18 412.66 313.679 403.626 307.941 399.742C304.286 397.268 299.188 398 295 398L296 397L295 396C291.474 397.126 288.975 398.848 286 401z"/>
<path style="fill:#9e9a98; stroke:none;" d="M152 399L152 401C146.545 401.001 125.924 405.21 138.148 413.606C147.004 419.688 162.866 416.596 173 417.039C203.7 418.384 234.319 417.369 265 417.004C276.107 416.872 304.471 421.243 305 405L302 405C297.527 401.927 291.296 402.015 286 402L287 401L289 400L288 399L287 400C283.276 400.664 280.262 402.105 277 404L277 406L280 406C284.084 407.718 287.592 406.634 290 411L288 411C277.478 411.217 267.371 414.486 257 415.715C243.322 417.335 228.772 416 215 416C202.707 416 189.65 417.34 177.715 414.455C170.603 412.737 152.132 416.806 147.752 409.66C144.034 403.596 156.149 404 159 404L159 402L152 399z"/>
<path style="fill:#555250; stroke:none;" d="M290 411L290 409C286.04 405.999 280.929 407.416 277 404C247.167 411.718 211.289 417.044 181 408.841C172.03 406.412 165.505 402.91 156 403.83C153.218 404.1 148.749 403.394 147.086 406.303C145.164 409.668 149.266 412.144 152.005 412.721C161.467 414.718 171.644 414.018 181.17 415.741C190.577 417.442 201.443 416 211 416C226.148 416 241.922 417.266 257 415.83C268.087 414.774 278.763 411.093 290 411z"/>
</svg>
