<?xml version="1.0" encoding="UTF-8" standalone="no"?>
				  <svg
				  xmlns:rdf="http://www.w3.org/1999/02/22-rdf-syntax-ns#"
				  xmlns:svg="http://www.w3.org/2000/svg"
				  xmlns="http://www.w3.org/2000/svg"
				  xmlns:xlink="http://www.w3.org/1999/xlink"
				  version="1.1"  width="440" height="440">
<path style="fill:#b9baba; stroke:none;" d="M144 59L145 60L286 58L285 57L144 59z"/>
<path style="fill:#87888a; stroke:none;" d="M168 58L169 59L296 61L295 60C253.639 54.734 209.899 58 168 58z"/>
<path style="fill:#767a7e; stroke:none;" d="M129 405L130 404C129.278 316.752 129 229.332 129 142L129 92C129 82.7322 129.433 72.3226 137.26 65.8033C143.014 61.0102 155.724 60.155 163 60L162 59C154.533 59.0049 144.685 58.8556 138.004 62.5579C117.618 73.8544 127 112.265 127 131L127 320L127 375C127 384.768 125.526 395.724 129 405z"/>
<path style="fill:#18191f; stroke:none;" d="M268 422L267 421C234.984 421 202.934 421.371 171 420L172 419L266 419C278.245 419 295.243 420.698 304.467 410.671C310.337 404.29 310 395.034 310 387L310 339L310 142L310 95C310 83.4355 310.395 73.3894 300 66L301 65C304.826 68.2656 307.377 71.7371 310 76L311 75L311 73C304.845 59.8098 287.818 59.0008 275 59L175 59C164.81 59 143.159 58.6377 135.728 66.5332C128.733 73.9666 129 83.5453 129 93L129 139L129 337C129 354.666 128.916 372.334 129.001 390C129.041 398.396 128.989 408.468 135.301 414.695C145.022 424.286 161.606 422 174 422L268 422z"/>
<path style="fill:#8b8e93; stroke:none;" d="M199 63L199 65L203 65L203 67L203 71L205 71L235 71L234 70L204 70L204 68C213.408 65.2192 225.21 67 235 67L234 66L208 66L209 65L212 65L212 63L199 63z"/>
<path style="fill:#797c80; stroke:none;" d="M300 65L301 67C317.089 83.4859 310 118.376 310 140L310 333L310 385C310 393.825 310.437 403.865 303.671 410.671C293.683 420.718 276.872 419 264 419L171 419L172 420C202.908 423.906 234.991 420 266 420C278.367 420 295.154 422.171 304.895 412.812C312.476 405.527 312 394.694 312 385L312 327L312 170C312 139.433 313.403 108.443 311 78L312 79C312.811 76.7607 312.529 75.353 312 73L311 74L311 76L310 75C307.246 70.5339 305.019 66.9865 300 65z"/>
<path style="fill:#e9eaea; stroke:none;" d="M204 67L204 69C212.367 72.5108 225.924 70 235 70L235 68C226.633 64.4892 213.076 67 204 67z"/>
<path style="fill:#67696e; stroke:none;" d="M195 77L195 79C195.146 91.3282 222.854 91.3282 223 79L221 79L195 77z"/>
<path style="fill:#5e6062; stroke:none;" d="M311 78L311 80C314.462 107.394 312 136.38 312 164L312 319L312 379C312 388.402 313.366 399.689 308.03 407.999C297.209 424.85 270.081 420 253 420L254 421C270.972 421 298.655 427.73 309.518 409.985C314.718 401.491 314 391.521 314 382L314 336L314 155L314 100C314 93.079 315.815 83.537 311 78z"/>
<path style="fill:#a5a9ae; stroke:none;" d="M197 79L197 81L197 86L199 86L201 86L201 84L201 79L199 79L197 79z"/>
<path style="fill:#9fa5ab; stroke:none;" d="M203 86L205 86L208 86L208 84L207 79L205 79C203.241 81.3079 203.083 83.0923 203 86z"/>
<path style="fill:#545a63; stroke:none;" d="M231 80L231 82L231 86L233 86L233 84L235 86C237.699 86.0435 250.025 83.0399 241.682 79.6929C238.854 78.5584 234.064 79.9746 231 80z"/>
<path style="fill:#676c75; stroke:none;" d="M225 80L225 82C225.497 85.0661 226.036 86.0317 229 87L229 85L229 80L228 81L228 85L227 84L227 80L225 80z"/>
<path style="fill:#cacbcd; stroke:none;" d="M314 82L314 394L315 393L315 173L315 110C315 101.729 317.206 89.6394 314 82z"/>
<path style="fill:#bfb4b7; stroke:none;" d="M137 95L137 97L138 180L139 179L139 177L140 178L144 184L146 184L146 182C141.897 172.499 133.716 161.867 143 152L143 150L140 150L139 149C139 143.176 136.571 130.212 140.603 125.637C143.336 122.537 148.509 121.067 152 118.938C154.794 117.235 159.241 113.147 162.786 113.878C165.803 114.5 166.74 118.691 168.034 120.985C173.32 130.356 174.242 137.155 165 145L166 146L168 146C177.823 140.112 173.457 126.589 180.394 119.153C185.942 113.206 189.425 121.642 195 122.122C201.112 122.648 210.55 113.714 211 108L213 108L213 111L215 111L220 110L220 112C222.032 123.653 230.778 106.928 232 103L234 104C236.672 108.526 239.842 111.658 245 113L245 111C245.888 94.7945 268.146 109.516 271.326 118.04C276.529 131.99 279.006 150.119 279 165C278.998 170.988 275.295 177.925 276.564 183.696C277.796 189.302 290.396 195.571 295.297 191.968C298.548 189.579 299.158 181.663 301 178L302 179L302 202L303 201L302 97L300 97L137 95z"/>
<path style="fill:#e2cabb; stroke:none;" d="M245 113L243 113L233 103L231 104C229.704 109.372 220.92 121.861 220 110L218 110L213 111L213 109L212 108L211 109C209.342 114.44 198.751 120.808 200.662 126.946C204.125 138.066 223.296 127.215 229.377 133.6C233.095 137.502 226.197 141.632 222.961 142.171C213.323 143.777 199.48 143.21 190 141L190 143C186.58 144.723 184.203 146.293 183 150L180 150C166.358 157.854 170.681 171.263 183.015 178.811C191.74 184.151 204.04 178.159 214 180.532C220.72 182.133 222.228 187.508 227.415 190.57C230.961 192.663 236.056 192 240 192L240 190L238 182L240 182C244.13 189.879 244 199.281 244 208L241 208C236.531 209.309 232.555 208.359 228 208L228 206L228 204L230 204C233.694 204.879 237.214 204.997 241 205L241 203L242 197L241 196C229.574 196 211.536 191.991 201 195.995C195.985 197.9 186.62 209.077 181.189 206.172C176.402 203.612 175.305 194.65 173.62 190C170.403 181.119 161.813 171.093 152 170L152 172L151 171L151 169C148.483 163.036 148.78 158.99 153 154L152 153L145 152L146 151C161.851 150.998 180.307 139.099 169.229 121.961C167.664 119.54 166.534 114.772 163.606 113.658C155.716 110.655 124.947 132.981 149 133L149 135L149 143L147 143L143 143L143 148L140 148L139 149L140 150L143 150L143 152C131.752 159.914 143.493 175.482 146 184L144 184L140 177L139 178L139 180L145 191L144 192L142 192L142 189L141 187L139 187L139 189L139 255L141 255L148 254L148 256C144.959 257.85 142.555 258.765 139 259L139 261L139 278L141 278C146.147 275.025 151.414 274.7 157 273L157 275C153.254 279.293 146.943 280.042 144 285L142 285L141 284L141 282L140 281L139 282L139 316L140 315C143.78 307.545 150.864 306.281 155 314L153 314L148 314L148 316L148 322L146 322L145 320L143 320L139 321L139 323L139 326L141 326C152.06 325.962 162.256 321.684 173 321L173 323C171.217 323.98 171.406 323.908 171 326C157.164 326.643 167.805 333.617 163.929 340.621C157.946 351.433 147.575 347.348 139 345L139 347L139 386L141 386C151.212 385.964 157.076 375.863 157.892 366C158.16 362.763 156.372 358.315 158.067 355.39C161.66 349.188 174.148 345.959 180 342.046C193.442 333.058 197.909 318.363 208.188 307.039C211.881 302.972 217.189 297.414 222 294.769C225.14 293.044 228.866 293.813 231.677 291.195C234.867 288.225 233.028 284.912 230 283L230 281L232 281C235.251 278.111 236.489 276.39 236 272L238 272L253 276L252 277L250 277L240 273L239 274L239 276L240 277L242 277C252.822 282.783 280.296 275.845 278.424 296C278.128 299.184 274.895 301.836 274 305L275 304L278 304L277 305C274.151 307.44 272.748 309.31 272 313L274 313C277.551 310.197 281.2 308.719 282 304L284 304L294 304L294 302C294.142 295.353 296.581 289.657 295 283L297 283C299.761 271.794 300.485 247.41 285 245L285 243C286.16 238.04 280.848 231.691 279 227L278 228L278 230C279.095 233.723 280.87 236.768 283 240L282 241L281 240L278 235L276 235C270.768 236.928 265.107 233.253 269.028 227.317C270.809 224.62 275.125 224.544 278 224L278 222L276 208L274 208L270 209L270 211C277.166 217.961 274.888 222.318 266 224L266 221C264.847 215.676 266 209.516 266 204L263 204C262.455 202.365 262.635 202.545 261 202L260 203L260 207L258 207L258 201L256 201L251 201L251 203L251 207L249 207L249 199L251 199L275 201L275 199L275 195L277 195C277.033 206.995 278.352 223.393 284 234L286 234L285 233L285 231L287 231L291 229L291 231L292 232L293 231L294 232L294 234L287 237L287 239C290.976 245.98 297.708 251.859 299 260L301 260L302 178L300 179C298.249 182.617 298.336 188.617 295.297 191.381C290.731 195.534 278.396 188.958 276.938 183.696C275.385 178.097 279.009 170.005 279 164C278.977 149.11 276.796 129.96 270.982 116.184C266.556 105.695 245.051 95.3247 245 113z"/>
<path style="fill:#6fc2c1; stroke:none;" d="M170 147L171 148L179 145C179.743 137.59 184.335 131.396 185 124L187 124C196.042 134.264 202.926 141.001 217 141C220.862 141 232.051 141.967 230.623 135.105C228.673 125.726 202.638 138.84 200.921 125.995C200.517 122.981 204.138 119.864 205 117L203 117C200.835 118.73 198.037 121.74 195 121.473C190.586 121.085 187.933 115.192 183.043 116.662C176.78 118.545 171.51 140.753 170 147z"/>
<path style="fill:#c9ccce; stroke:none;" d="M126 118L126 395L127 394L127 199L127 143C127 135.52 128.903 124.919 126 118z"/>
<path style="fill:#afb976; stroke:none;" d="M185 124C183.862 131.32 179.386 137.472 179 145L176 145C173.178 146.7 172.171 146.898 169 146L168 147L169 148C165.565 152.488 157.353 156.137 156.377 162.003C155.099 169.681 169.295 175.416 173.436 180.464C178.011 186.041 178.878 196.214 181 203L183 203C190.103 200.268 195.136 193.061 202.09 190.593C207.969 188.505 218.446 190.517 225 190L225 188C222.845 183.724 218.719 181.174 214 180.329C205.131 178.742 192.904 183.391 185.001 179.347C172.07 172.73 164.348 154.432 183 150L183 148C185.894 145.897 188.299 144.159 190 141L192 141C198.698 145.324 219.017 143.339 227 142L226 141C218.445 141 209.798 142.351 203.015 138.401C196.408 134.554 192.422 126.176 185 124z"/>
<path style="fill:#fda199; stroke:none;" d="M139 131L139 148L141 148L143 148L143 143L145 143L149 143L149 141L149 133L147 133C143.913 132.91 141.706 132.507 139 131z"/>
<path style="fill:#615482; stroke:none;" d="M137 138L137 144L134 144L133 145L133 147C138.334 152.092 137 159.138 137 166L137 211L138 210L138 161C138 154.049 139.701 144.436 137 138z"/>
<path style="fill:#6fc2c1; stroke:none;" d="M145 151L146 152C148.332 152.985 150.457 152.981 153 153L152 155C147.106 159.792 149.646 166.076 151 172C152.3 171.35 152 171.853 152 170C161.264 172.447 169.812 181.152 173.251 190C175.064 194.667 176.116 204.551 181.189 206.864C187.197 209.604 196.582 198.053 202 195.995C212.362 192.058 230.702 196 242 196C241.1 199.041 241.008 201.831 241 205L239 205L228 204L228 206L228 208C233.604 208.708 238.401 209.04 244 208L244 206C244 197.844 243.477 189.813 241 182L239 182L238 183L238 185C239.337 187.479 239.816 189.19 240 192L238 192C233.571 191.963 229.519 191.88 226 189C218.096 191.045 208.26 187.917 201.17 190.589C193.751 193.384 189.054 201.09 181 203L181 200C177.693 193.899 177.993 185.053 173.436 179.665C169.314 174.791 158.171 170.46 156.752 163.985C155.691 159.146 171.29 149.963 167.338 147.129C164.772 145.289 149.463 151 145 151z"/>
<path style="fill:#fdfdfd; stroke:none;" d="M235 156L235 159L234 160L232 160L231 161L231 172L233 172C234.594 173.297 235.018 173.535 237 174L237 172L237 156L235 156z"/>
<path style="fill:#6fc2c1; stroke:none;" d="M184.314 158.747C179.07 161.337 184.394 171.208 189.683 167.953C194.816 164.794 189.933 155.971 184.314 158.747z"/>
<path style="fill:#76ac71; stroke:none;" d="M199 165L199 167L202 167C206.348 168.807 211.378 167.095 216 167L216 165C210.122 164.879 204.833 163.612 199 165z"/>
<path style="fill:#b8a9aa; stroke:none;" d="M145 169L145 171C146.17 173.075 146.692 174.637 147 177L149 177C155.085 185.714 163.339 197.769 166 208L168 208L169 207L169 205C162.616 196.187 156.648 170.971 145 169z"/>
<path style="fill:#82b5a6; stroke:none;" d="M138 180L138 386L139 385L139 345L141 345C147.776 350.169 160.352 350.13 164.381 340.621C167.42 333.449 158.265 327.156 171 326L171 324L173 323L173 321L171 321C160.279 322.316 150.055 325.991 139 326L139 324L139 321L145 320L145 322L148 322L148 320L148 314L150 314L155 314L155 312C149.559 305.902 141.391 307.375 140 316L139 315L139 281L140 282C140.986 283.479 141 283.203 141 285L143 285C147.887 281.282 155.93 279.559 157 273L155 273L139 278L139 276C139.915 270.59 139 264.548 139 259L141 259L148 257L148 255L147 254L145 254L139 255L139 253L139 187L141 187L142 192L144 192L145 191L145 189C142.831 185.726 140.999 182.551 138 180z"/>
<path style="fill:#b9a4a6; stroke:none;" d="M146 186L146 188C144.553 198.018 149.125 201.135 153 210L152 211L150 211L150 213L151 214C155.308 211.287 158.925 209.659 164 209L164 207C159.535 204.566 157.185 202.092 156 197L153 197L152 196L153 195L150 186L148 186L146 186z"/>
<path style="fill:#dea5a4; stroke:none;" d="M275 195L275 197L275 201L273 201L249 199L249 201L249 207L251 207L251 201L253 201L258 201L258 203L258 207L260 207L260 202L262 202C263.543 203.267 264.048 203.489 266 204L266 206C265.996 212.106 264.895 217.957 266 224L268 224C274.712 222.317 278.79 215.087 270 212L270 210L271 209L276 208L278 224L275 224C264.751 227.402 266.431 238.635 278 235L279 236L281 241L283 241L283 239C280.438 235.112 278.482 231.681 278 227L279 228C281.226 233.648 285.34 238.781 285 245L288 245C295.943 253.708 304.852 272.496 295 283L295 285C296.639 290.974 294.004 297.738 294 304L292 304L282 304L282 307L273 313L272 312L272 310L278 305L277 304L275 304L274 305L274 303L272 304L258 317L259 318L260 319L268 310L269 311L269 313L270 315L268 315C264.319 318.231 261.024 321.076 260 326L262 326C263.976 324.307 265.627 323.036 268 322L269 330L271 330L276 328L276 330L271 332L271 334C282.311 338.369 290.095 321.493 298 317L298 319C291.716 324.003 286.771 329.997 280 334.539C276.76 336.713 271.245 338.389 269.603 342.21C266.921 348.456 270 361.03 270 368C276.716 368.849 283.229 369 290 369L290 371L284 385L282 385C279.799 384.519 279.201 384.519 277 385L278 386L302 386L302 384L302 298L297 298L297 296C297.316 288.758 300.299 282.692 301.726 275.83C303.332 268.107 302 258.884 302 251L301 252L301 260L299 260C298.166 250.803 290.189 245.292 287 237L289 237C291.652 235.19 293.052 234.073 294 231L293 232L291 232L291 230C288.63 229.411 287.293 230.045 285 231L285 233L286 234L284 234C279.421 222.194 277.106 207.757 277 195L275 195z"/>
<path style="fill:#9f7a5d; stroke:none;" d="M302 202L302 286L303 285L303 228C303 220.256 305.004 209.159 302 202z"/>
<path style="fill:#75c3be; stroke:none;" d="M212 207L212 210C211.01 212.523 211.383 214.358 212 217L214 217L215 216L215 214L214 207L212 207z"/>
<path style="fill:#78c9c0; stroke:none;" d="M223 221L222 229L224 229L229 223L228 222L227 221L223 221z"/>
<path style="fill:#7bb07f; stroke:none;" d="M149 262L150 263L152 263C163.656 254.067 159.223 272.254 161 278L159 278C153.919 281.351 148.513 284.426 143 287L143 289C146.652 295.585 156.531 317.848 164.92 318.407C171.853 318.87 181.933 306.93 187 303L187 301L183 294L185 294C194.171 286.459 203.533 279.069 213 271.898C216.27 269.421 223.208 266.194 224.172 261.829C225.781 254.544 210.583 238.856 206.424 233C204.653 230.506 202.492 225.745 198.907 225.737C190.331 225.718 185.173 235.717 180.401 240.397C171.715 248.917 156.912 251.445 149 262z"/>
<path style="fill:#787578; stroke:none;" d="M218 243L220 243L223 243L223 241C220.239 239.114 219.018 239.935 218 243z"/>
<path style="fill:#9ca0b2; stroke:none;" d="M141 271L142 272L144 272C146.995 269.946 148.557 270.3 152 271L152 269C148.641 264.401 144.054 267.449 141 271z"/>
<path style="fill:#6fc2c1; stroke:none;" d="M236 272L236 274C235.123 277.68 233.222 279.102 230 281L230 283C238.153 290.89 218.49 296.852 213.001 301.715C201.017 312.33 195.162 327.924 183 338.895C176.369 344.877 162.935 347.356 158.032 354.634C155.801 357.945 158.329 363.22 157.617 367C156.405 373.441 152.275 379.447 149 385L150 386C158.761 386 177.009 389.059 182 380L180 380L180 375L182 375L183 374L175 374L175 372C178.265 366.08 185.913 369.064 190.525 363.811C211.352 340.092 241.419 332.022 265 311.576C269.116 308.007 276.363 302.929 278.378 297.729C283.286 285.063 266.767 280.433 258 279.4L239 277L239 275L239 273L241 273C244.391 276.218 248.427 276.801 253 277L252 276C246.619 274.246 241.724 272.134 236 272z"/>
<path style="fill:#dfe8d5; stroke:none;" d="M300 278L299 280L297 298L299 298L302 298L302 296L302 278L300 278z"/>
<path style="fill:#5b5567; stroke:none;" d="M302 286L302 386L300 386L257 386L258 387L303 387L303 385L303 316C303 307.203 305.407 294.118 302 286z"/>
<path style="fill:#cac9ca; stroke:none;" d="M268 310L267 311C250.886 327.057 227.719 332.971 209 345.243C201.358 350.253 195.75 357.112 189.765 363.811C184.824 369.341 175.654 365.609 175 374L177 374L183 374L182 375L180 375L180 377C180.406 379.092 180.217 379.02 182 380L182 382L173 385L174 386C210.215 386 248.086 382.744 284 385L284 383C287.479 379.116 289.233 374.118 290 369L288 369L270 368L270 366C270 359.702 267.364 348.794 269.607 343.104C271.212 339.033 276.593 337.392 280 335.201C286.808 330.824 291.627 324.69 298 320L298 318L297 317C287.505 322.775 283.479 333.722 271 335L271 333C273.788 331.657 275.043 330.955 276 328L274 328L269 330L268 322L266 322L261 326L260 325L260 323L270 315L270 313L268 310z"/>
<path style="fill:#8e716b; stroke:none;" d="M247 335L246 336L246 338L248 338C249.3 337.35 249 337.853 249 336C248.35 334.7 248.853 335 247 335z"/>
<path style="fill:#b9aaab; stroke:none;" d="M244 359L246 359L267 358L267 356C267 352.997 268.004 347.135 265.258 345.043C258.85 340.164 244.48 352.917 244 359z"/>
<path style="fill:#d5d5d5; stroke:none;" d="M248 355L249 356L264 356L264 354L264 347L262 347C256.356 348.511 251.798 350.405 248 355M272 353L272 355L272 365L274 365L289 365L289 363C291.126 360.252 292.273 357.393 293 354L291 354L272 353z"/>
<path style="fill:#7f8f6e; stroke:none;" d="M139 386L140 387L257 387L256 386L139 386z"/>
<path style="fill:#414144; stroke:none;" d="M202 395L203 396L238 396L237 395L202 395z"/>
<path style="fill:#b1b1b2; stroke:none;" d="M201.318 397.028C197.836 399.353 198.528 406.653 202.279 408.397C209.141 411.587 222.466 409.003 230 409C232.954 408.999 236.655 409.543 239.08 407.486C243.105 404.072 242.308 397.714 236.981 396.318C230.317 394.572 207.053 393.199 201.318 397.028z"/>
<path style="fill:#707072; stroke:none;" d="M164 405L166 405C172.473 404.977 175.771 404.036 176 397L174 397C167.482 397.022 164.215 397.927 164 405z"/>
<path style="fill:#818283; stroke:none;" d="M203 397L204 398L237 398L236 397L203 397z"/>
<path style="fill:#969697; stroke:none;" d="M267 397C267.65 398.3 267.147 398 269 398L269 401L267 401L266 402L268 402L274 401L274 403L274 405L272 405L267 405L267 407L276 407L276 405L276 398L274 398L267 397z"/>
<path style="fill:#0f1012; stroke:none;" d="M202.604 399.028C199.981 401.121 201.224 405.761 204.228 406.682C211.318 408.856 221.594 407.003 229 407C231.426 406.999 235.22 407.625 237.258 405.972C239.888 403.839 239.023 399.26 235.852 398.318C228.673 396.186 218.479 397.997 211 398C208.539 398.001 204.68 397.372 202.604 399.028z"/>
<path style="fill:#f8f8f8; stroke:none;" d="M265 399L265 401L267 401L269 401L269 399L268 398C266.203 398 266.479 398.014 265 399z"/>
<path style="fill:#1b1b1d; stroke:none;" d="M166 401L166 403C168.587 404.065 170.321 403.782 173 403L173 401L171 401L166 401z"/>
<path style="fill:#777779; stroke:none;" d="M203 407L204 408L237 408L236 407L203 407z"/>
<path style="fill:#484849; stroke:none;" d="M267 407L268 408L276 408L275 407L267 407z"/>
<path style="fill:#59595b; stroke:none;" d="M202 409L203 410L238 410L237 409L202 409z"/>
<path style="fill:#87888b; stroke:none;" d="M151 422L152 423L256 423L255 422L151 422z"/>
</svg>
