<?xml version="1.0" encoding="UTF-8" standalone="no"?>
				  <svg
				  xmlns:rdf="http://www.w3.org/1999/02/22-rdf-syntax-ns#"
				  xmlns:svg="http://www.w3.org/2000/svg"
				  xmlns="http://www.w3.org/2000/svg"
				  xmlns:xlink="http://www.w3.org/1999/xlink"
				  version="1.1"  width="440" height="440">
<path style="fill:#b3b3b3; stroke:none;" d="M193 30L194 31L209 31L208 30L193 30z"/>
<path style="fill:#505050; stroke:none;" d="M182 33L183 34L185 34C193.183 31.5803 202.512 32 211 32L210 31C200.601 31 191.205 30.8025 182 33z"/>
<path style="fill:#292929; stroke:none;" d="M170 119L173 119L174 120L174 122C150.799 126.579 155.425 152.041 154.985 170C154.716 181 154 191.941 154 203C154 238.48 151.987 276.805 157.144 311.91C157.664 315.455 159.758 318.323 160.132 321.997C161.645 336.877 159.7 359.352 167.699 373C179.669 393.423 205.488 396.886 227 394.83C241.976 393.399 257.726 390.85 267.39 377.996C279.264 362.205 277.281 339.449 279.133 321C283.215 280.33 287 240.082 287 199C287 181.719 288.742 160.777 284.742 144C283.337 138.11 282.766 132.044 278.529 127.304C272.955 121.068 266.446 121.721 259 120.561C245.267 118.421 232.979 117 219 117L219 115L219 113L221 113C222.603 108.36 217.151 101.461 217.015 96C216.666 82.0185 217 67.9862 217 54C217 48.8244 218.481 40.8069 215.682 36.2137C210.652 27.96 181.481 31.032 175.742 37.6381C171.974 41.9758 173.035 55.3771 172.999 61C172.875 80.3208 170.053 99.7047 170 119z"/>
<path style="fill:#aeaeae; stroke:none;" d="M178 34L178 36L182 34L181 33L178 34z"/>
<path style="fill:#838383; stroke:none;" d="M215 34L215 36C218.292 42.1688 217 50.1499 217 57L217 102L218 101L218 53C218 46.8423 219.692 38.5951 215 34z"/>
<path style="fill:#7f7f7f; stroke:none;" d="M201 37L201 39C208.392 52.4376 204 75.8603 204 91C204 98.1561 201.529 108.333 211 109L211 107L211 58C211 52.503 212.935 42.4488 210.142 37.5733C208.132 34.0644 203.921 36.0961 201 37z"/>
<path style="fill:#777777; stroke:none;" d="M175 116L177 116C179.876 115.773 186.031 115.936 187.306 112.684C188.946 108.502 185 97.1584 185 92C185 74.5709 187.998 57.5235 188 40L191 40L192 39L192 37C177.878 32.8351 180.674 45.4835 179.424 55C176.764 75.2615 175.88 95.5029 175 116z"/>
<path style="fill:#cccccc; stroke:none;" d="M218 37L218 84C218 92.2301 216.736 101.298 220 109L221 108L221 106C210.575 86.4647 226.458 57.1559 218 37z"/>
<path style="fill:#8a8a8a; stroke:none;" d="M173 42L173 53L174 52C174 48.5856 174.327 45.1633 173 42z"/>
<path style="fill:#a4a4a4; stroke:none;" d="M172 61L172 69L173 68C172.981 65.4566 172.985 63.3316 172 61z"/>
<path style="fill:#878787; stroke:none;" d="M171 77L170 111L171 110C171 100.088 174.897 86.2867 171 77z"/>
<path style="fill:#595553; stroke:none;" d="M222 111L222 113L219 113L219 115L219 117L221 117C237.015 117 252.161 120.998 268 121L267 120C255.086 112.514 233.397 114.307 220 116L220 114L223 114L223 112L222 111z"/>
<path style="fill:#99928f; stroke:none;" d="M223 112L223 114L220 114L220 116L222 116C227.355 115.006 232.57 115 238 115L237 114L223 112z"/>
<path style="fill:#746d6c; stroke:none;" d="M158 131L159 132L160 131C163.728 125.939 168.027 123.612 174 122L174 120L173 119C166.606 118.795 160.819 125.679 158 131z"/>
<path style="fill:#656364; stroke:none;" d="M185 379L185 377C185 366.622 190.795 364.731 193.486 355.985C195.881 348.203 193.796 330.792 191.566 323.04C188.376 311.949 168.657 311.42 164.009 299.999C160.327 290.952 162.753 277.691 161.83 268C158.944 237.67 159.854 206.5 160.001 176C160.064 162.991 158.442 145.416 167 135C166.35 133.7 166.853 134 165 134C166.973 129.872 169.514 127.906 174 127L173 128L173 130C198.059 124.031 225.944 122.459 251 128.985C258.713 130.995 266.26 129.563 272.671 135.532C282.539 144.721 279 164.935 279 177C279 204.026 279.22 231.048 278.039 258C277.474 270.901 279.283 286.575 275.347 298.999C271.3 311.776 250.088 311.06 248 324L250 323C253.06 320.247 259.32 314.027 263.941 315.421C272.233 317.923 267.171 335.832 261 338L261 340C268.356 346.128 263.374 362.548 254 364L254 366C254.003 369.388 254.331 379.376 260.298 374.137C266.429 368.755 266.962 352.577 268 345C269.076 337.142 267.924 327.474 270.6 320C272.35 315.111 277.567 312.004 278.722 306.83C280.655 298.175 278.983 287.905 279.83 279C282.347 252.554 282 225.583 282 199C282 180.464 288.402 147.532 276.236 132.301C271.223 126.025 263.137 125.43 256 123.29C235.089 117.019 210.253 117.729 189 121.69C180.168 123.336 169.526 123.661 163.344 131.04C153.781 142.455 157 166.084 157 180C157 223.794 149.744 277.22 166.12 318C171.55 331.524 171.356 348.682 174.664 363C176.486 370.883 175.584 377.694 185 379z"/>
<path style="fill:#bbb9b7; stroke:none;" d="M165 134L167 134L174 128L173 127L171 127C167.67 128.783 166.047 130.349 165 134z"/>
<path style="fill:#888887; stroke:none;" d="M280 129L280 131L281 132L282 131C281.455 129.365 281.635 129.545 280 129z"/>
<path style="fill:#0a0a0a; stroke:none;" d="M172 141C169.003 178.982 171 216.976 171 255C171 264.331 170.893 273.669 171.004 283C171.043 286.327 170.826 291.647 173.589 294.062C181.504 300.983 193.021 298.345 202 298.019C216.735 297.482 231.582 299.799 246 299.687C252.927 299.633 260.085 295.931 267 295L267 293C273.266 243.418 269 190.986 269 141L266 141C256.534 136.414 245.273 136.411 235 135.961C212.686 134.983 193.837 137.775 172 141z"/>
<path style="fill:#7b797b; stroke:none;" d="M234 147L234 145C231.668 144.015 229.543 144.019 227 144L227 142C224.224 140.972 207.593 141.719 214.608 146.954C217.482 149.099 229.955 147 234 147z"/>
<path style="fill:#3d3d43; stroke:none;" d="M191 144L191 146L191 148L193 148L213 146L213 144L211 144L191 144z"/>
<path style="fill:#7d7e7d; stroke:none;" d="M168 145L167 147C167 181.711 165.441 216.288 166.961 251C167.567 264.836 166.467 279.357 169 293L171 293L171 291L170 145L168 145z"/>
<path style="fill:#807e7f; stroke:none;" d="M270 146L270 148L268 291L270 291C276.164 257.795 274 220.864 274 187C274 174.913 277.294 157.001 272 146L270 146z"/>
<path style="fill:#b6b5b3; stroke:none;" d="M153 147L153 172L154 171C154 163.767 155.806 153.687 153 147z"/>
<path style="fill:#524d4c; stroke:none;" d="M154 147L154 264L155 263C155 236.317 153.686 209.73 154.004 183C154.132 172.256 158.261 157.155 154 147z"/>
<path style="fill:#6a5f5a; stroke:none;" d="M175 152L176 153L265 153L264 152L175 152z"/>
<path style="fill:#696766; stroke:none;" d="M174 153L174 269L175 268L175 188C175 177.89 177.908 162.312 174 153z"/>
<path style="fill:#cdd0b5; stroke:none;" d="M175 153L175 155L175 272L177 272C187.796 266.169 189.273 282.228 175 280L175 282L175 284L177 284C197.293 283.832 202.252 269.295 215.09 257.13C218.641 253.764 224.202 253.575 227.401 250.402C230.017 247.807 229.398 243.778 233.188 241.943C241.447 237.945 259.264 248.142 251.686 257.893C241.556 270.926 221.653 273.242 209 283L210 284L265 284L265 282L265 153L263 153L175 153z"/>
<path style="fill:#6d5d5f; stroke:none;" d="M265 153L265 284L266 283L266 192C266 180.842 269.308 163.266 265 153z"/>
<path style="fill:#70c4c1; stroke:none;" d="M195 199L196 198L196 196C194.35 189.811 185.468 187.3 184.631 182.001C184.077 178.492 190.738 175.81 193.066 174.231C197.349 171.325 199.224 166.976 200 162L202 162C211.341 168.495 216.739 169 228 169L228 167L228 165L226 165C220.338 164.757 211.206 165.24 208 160L205 160C195.206 153.187 197.07 165.765 191.772 170.247C188.209 173.26 180.859 174.17 181.203 180.019C181.667 187.904 191.859 192.024 195 199z"/>
<path style="fill:#878682; stroke:none;" d="M286 159L286 181L287 180C287 173.564 288.5 164.959 286 159z"/>
<path style="fill:#acc17b; stroke:none;" d="M200 162L200 165C196.318 169.938 186.31 175.425 184.176 180.325C182.315 184.597 190.42 188.086 192.721 190.465C195.37 193.202 195.208 199.086 198.433 200.914C201.952 202.908 205.983 198.058 209 196.857C213.45 195.086 219.29 196 224 196L224 194C215.67 189.197 205.864 193.697 198.001 188.637C195.178 186.82 190.947 183.991 191.89 180.04C193.159 174.733 200.277 174.186 202 169L204 169C206.729 169.81 209.15 169.979 212 170L211 169C207.776 165.529 204.778 162.737 200 162z"/>
<path style="fill:#a9a6a5; stroke:none;" d="M152 172L152 237L153 236L153 192C153 185.846 154.395 177.707 152 172z"/>
<path style="fill:#8e8d8b; stroke:none;" d="M287 194L286 234L287 233C287 221.43 291.558 204.862 287 194z"/>
<path style="fill:#83b386; stroke:none;" d="M184 233L185 234C192.162 242.21 177.417 243.918 177.881 250.105C178.371 256.634 185.399 266.035 192.286 262.315C198.192 259.126 198.3 254.914 202.317 250.439C207.514 244.648 215.986 239.281 223 236L223 234C218.689 227.592 213.127 221.016 210 214L208 214C203.457 216.671 201.656 221.413 197.698 223.973C192.292 227.468 187.339 226.152 184 233z"/>
<path style="fill:#6fc2c1; stroke:none;" d="M184 283L185 284C191.929 284 200.243 285.265 207 283.687C220.309 280.578 238.824 269.286 249.545 260.93C262.559 250.786 246.141 239.874 235.025 241.163C229.127 241.847 230.304 247.32 226.683 250.402C223.032 253.51 217.865 253.507 214.171 257.13C204.301 266.806 199.451 280.752 184 283z"/>
<path style="fill:#c1bbbb; stroke:none;" d="M153 244L156 315L157 314C157 296.757 156.308 279.129 154.285 262C153.601 256.204 155.27 249.409 153 244z"/>
<path style="fill:#76c89c; stroke:none;" d="M179.98 269.962C173.54 271.53 173.436 282.112 181.004 280.457C189.401 278.62 187.908 268.031 179.98 269.962z"/>
<path style="fill:#a1a09d; stroke:none;" d="M284 276L283 293L284 292C285.174 287.07 285.995 280.753 284 276z"/>
<path style="fill:#6d6969; stroke:none;" d="M175 284L176 285L265 285L264 284L175 284z"/>
<path style="fill:#4f4f51; stroke:none;" d="M238 293L238 291L238 288C230.928 287.106 228.308 288.14 222 291C222 289.147 222.3 289.65 221 289L222 288L224 288L225 287L205.019 286.85C203.28 286.845 199.641 287.916 201.176 290.441C202.72 292.982 208.545 292 211 292C220.079 292.001 228.991 291.861 238 293z"/>
<path style="fill:#a2a2a3; stroke:none;" d="M221 288L222 290L223 291L225 291L227 288L226 287L221 288z"/>
<path style="fill:#676361; stroke:none;" d="M282 289L279 328L280 327C280.517 315.151 286.933 300.757 282 289z"/>
<path style="fill:#797574; stroke:none;" d="M179 302L179 304C181.33 306.279 182.826 308.059 186 309L186 307C187.479 306.014 187.203 306 189 306L189 304L188 303L179 302z"/>
<path style="fill:#7e7e7e; stroke:none;" d="M261 302L259 302C240.972 302.788 257.973 316.345 261 302z"/>
<path style="fill:#7d7d7d; stroke:none;" d="M196 316L198 316C207.2 308.082 232.713 302.577 239.972 317.001C243.088 323.193 241 334.172 241 341L242 340C242 332.419 246.788 314.191 239.697 308.938C230.453 302.089 196.94 302.037 196 316z"/>
<path style="fill:#393737; stroke:none;" d="M173.318 315.083C169.76 317.108 171.3 322.821 171.718 326C172.793 334.174 178.739 339.817 187.682 335.258C197.552 330.226 181.665 310.331 173.318 315.083z"/>
<path style="fill:#b3b0b1; stroke:none;" d="M158 315L158 323L159 322C158.981 319.457 158.985 317.332 158 315z"/>
<path style="fill:#706d6e; stroke:none;" d="M159 316L159 328L161 328C160.691 324.083 160.526 319.603 159 316z"/>
<path style="fill:#7b7472; stroke:none;" d="M175 326L175 328C178.874 330.935 185.278 331.189 187 326L185 326L175 326z"/>
<path style="fill:#777777; stroke:none;" d="M252 326L252 328L252 330L255 330C257.613 331.098 260.164 330.993 263 331L263 329L263 326L261 326L252 326z"/>
<path style="fill:#939393; stroke:none;" d="M158 328L158 330L158 332L159 331L158 328z"/>
<path style="fill:#9a9693; stroke:none;" d="M280 328L280 330L280 332L281 331L280 328z"/>
<path style="fill:#a0a0a0; stroke:none;" d="M205 330L205 332L208 333L208 331L205 330z"/>
<path style="fill:#8d8d8d; stroke:none;" d="M230 330L230 332L230 334L232 334L233 330L230 330z"/>
<path style="fill:#636363; stroke:none;" d="M159 332L159 334C161.666 338.995 161 344.454 161 350L162 349C162 343.232 163.391 336.3 159 332z"/>
<path style="fill:#a4a09e; stroke:none;" d="M279 332L278 333L278 343L279 342L280 333L279 332z"/>
<path style="fill:#bcbcbc; stroke:none;" d="M160 335L163 366L164 365C163.999 356.453 163.253 342.752 160 335z"/>
<path style="fill:#292728; stroke:none;" d="M176.318 340.028C170.34 344.017 175.889 367.555 185.981 361.106C196.784 354.202 190.196 330.766 176.318 340.028z"/>
<path style="fill:#6e6e6e; stroke:none;" d="M250 342L250 344C253.432 345.44 257.3 345 261 345L261 343C257.568 341.56 253.7 342 250 342z"/>
<path style="fill:#a0a0a0; stroke:none;" d="M218 343L218 345L218 347L220 347L221 343L218 343z"/>
<path style="fill:#6e6d6a; stroke:none;" d="M278 346L278 349C274.313 354.106 274.017 359.842 274 366L275 365C275.25 359.186 279.926 351.14 278 346z"/>
<path style="fill:#696868; stroke:none;" d="M177 349L177 351L177 353L178 352L178 350L180 350L187 350L187 352L181 352L182 353L188 353L188 351L188 349L186 349L177 349z"/>
<path style="fill:#888888; stroke:none;" d="M251 349L251 351C253.829 352.271 256.916 352.608 260 353L260 351C257.15 349.053 254.41 349.03 251 349z"/>
<path style="fill:#9e9d9e; stroke:none;" d="M178 350L178 352L179 353L181 353L187 352L187 350L178 350z"/>
<path style="fill:#7b7b7b; stroke:none;" d="M164 358L164 366L165 365C164.981 362.457 164.985 360.332 164 358z"/>
<path style="fill:#787878; stroke:none;" d="M199 361L199 363C201.314 364.591 203.19 364.858 206 365L206 367L200 367L200 369L200 371L202 371C207.075 370.764 210.007 369.012 214 366L214 364C209.235 361.98 204.139 361.406 199 361z"/>
<path style="fill:#7b7b7b; stroke:none;" d="M236 365L238 363L237 362C234.053 362 230.035 361.367 227.323 362.738C223.276 364.784 227.188 369.043 230.094 369.661C237.301 371.195 247.858 365.389 236 365z"/>
<path style="fill:#c2c0c3; stroke:none;" d="M272 368L272 371C264.293 379.196 256.923 389.721 246.92 395.526C222 409.989 190 395.95 172 378L171 379C174.572 384.316 174.558 389.047 177.148 394.424C181.749 403.977 192.243 406.799 202 407L202 409C206.72 410.981 212.92 410 218 410C232.262 410 255.192 410.962 265.291 398.826C270.234 392.885 267.92 386.857 269.073 380C269.805 375.651 273.537 372.482 272 368z"/>
<path style="fill:#7b797e; stroke:none;" d="M190 391L189 392C202.359 406.371 241.163 402.979 254 390L253 389C234.466 397.649 209.107 396.859 190 391z"/>
</svg>
