<?xml version="1.0" encoding="UTF-8" standalone="no"?>
				  <svg
				  xmlns:rdf="http://www.w3.org/1999/02/22-rdf-syntax-ns#"
				  xmlns:svg="http://www.w3.org/2000/svg"
				  xmlns="http://www.w3.org/2000/svg"
				  xmlns:xlink="http://www.w3.org/1999/xlink"
				  version="1.1"  width="440" height="440">
<path style="fill:#b7b7b8; stroke:none;" d="M168 51L169 52L283 52L282 51L168 51z"/>
<path style="fill:#51555c; stroke:none;" d="M136 364L137 363L137 138L137 89C137 77.669 136.248 68.0547 146.001 60.2785C156.44 51.9545 175.553 55 188 55C222.365 55 256.781 57 291 57L291 55C285.592 50.8814 276.514 52 270 52L220 52L173 52C161.308 52 148.204 52.7752 139.773 62.1744C133.655 68.9957 135 78.4861 135 87C135 105.694 135.775 124.379 135.996 143C136.872 216.643 136 290.351 136 364z"/>
<path style="fill:#b4b5b8; stroke:none;" d="M139 379L140 378C129.841 354.266 135 322.581 135 297L135 128C135 110.488 130.475 85.6271 136.147 69C138.799 61.2285 147.03 55.5128 155 55L154 54C123.382 54.0878 133 104.068 133 124L133 306C133 326.97 126.417 361.1 139 379z"/>
<path style="fill:#aaafb2; stroke:none;" d="M159 55L160 56L267 56L266 55L159 55z"/>
<path style="fill:#70747b; stroke:none;" d="M287 57L288 58C296.993 58.4923 301.803 65.633 303.381 74C306.65 91.3262 304 111.376 304 129L304 320C304 340.958 311.495 374.86 288 385L289 386L291 386C313.564 374.778 306 340.059 306 319L306 125C306 107.8 308.779 87.8909 305.532 71C303.641 61.1679 296.577 54.9021 287 57z"/>
<path style="fill:#e0e1e2; stroke:none;" d="M156 56.4283C135.084 59.4326 138 77.6539 138 94C138 131.699 139 169.364 139 207L139 330C139 342.303 134.361 366.861 142.314 376.985C150.516 387.425 167.278 384 179 384L248 384C260.356 384 273.864 385.45 286 382.704C303.85 378.667 301 357.686 301 344L301 223L301 108C301 95.8453 305.23 74.043 297.072 64.1852C288.528 53.8615 271.945 56 260 56C226.326 56 189.309 51.6436 156 56.4283z"/>
<path style="fill:#92959d; stroke:none;" d="M289 58L290 59C308.719 72.0558 301 108.501 301 129L301 311L301 353C301 361.699 301.358 370.264 294.79 376.886C285.029 386.727 267.663 384 255 384L158 384L159 385C170.46 386.141 181.343 387 193 387L192 388L155 388L156 389C200.417 389 244.718 387.914 289 387L288 386C311.11 372.369 304 342.63 304 319L304 132C304 113.432 306.132 93.406 303.711 75C302.571 66.3355 298.448 58.5172 289 58z"/>
<path style="fill:#a7a7a8; stroke:none;" d="M205 60L205 62L206 63L206 61L233 61L232 60L205 60z"/>
<path style="fill:#424242; stroke:none;" d="M206 61L206 63L234 63L234 61L206 61z"/>
<path style="fill:#636468; stroke:none;" d="M240 62L240 64C242.945 68.4521 246.316 63.0528 240 62z"/>
<path style="fill:#58595d; stroke:none;" d="M247 62L247 64L247 67L249 67L252 66L252 64C250.212 62.5785 249.294 62.3026 247 62z"/>
<path style="fill:#7d7e7e; stroke:none;" d="M206 63L207 64L234 64L233 63L206 63z"/>
<path style="fill:#4a4b4f; stroke:none;" d="M279.643 65.0671C277.453 66.6896 280.404 69.3802 282.357 67.9329C284.547 66.3104 281.596 63.6197 279.643 65.0671z"/>
<path style="fill:#c0c5cd; stroke:none;" d="M218 79L220 79L242 78L242 76L242 72L240 72C234.736 72.6217 226.617 70.5272 223 75L222 74L222 72L221 71C217.911 73.0019 218.041 75.4645 218 79z"/>
<path style="fill:#6f727c; stroke:none;" d="M137 72L137 364L136 363L136 136L135 137C135 215.203 132.648 293.928 136 372L137 371L139 370L139 368C136.802 360.565 138 351.722 138 344L138 297L138 143L138 94C138 87.3141 139.599 78.1939 137 72z"/>
<path style="fill:#d6d9db; stroke:none;" d="M306 75L306 365L307 364L307 160L307 101C307 93.2563 309.004 82.1593 306 75z"/>
<path style="fill:#e5aaa9; stroke:none;" d="M143 84L143 86L143 104L144 103L145 95L148 95L149 94L149 87L151 87L157 87L157 90L158 92L155 92L154 93L155 103L157 103L157 101L156 94L159 94C160.678 91.6184 160.916 89.9134 161 87L162 88L163 92L165 92L166 91L166 89L167 88L167 90L169 90L169 88L180 88L179 89L179 91L181 91L180 93C167.582 98.1702 157.38 106.914 145 112L145 114L146 115L155 110L155 112L157 111C159.549 109.041 163.435 105.17 166.895 105.306C169.788 105.419 171.163 108.914 172.459 111.001C177.284 118.769 177.493 125.56 170 132L171 133L173 133C180.498 126.269 176.433 112.737 185.055 107.662C190.889 104.228 194.892 113.812 202 109.363C207.859 105.695 215.552 93.5769 223 99L225 98C227.032 95.813 228.094 93.8451 229 91L227 91L228 90L230 90L234 95C246.694 89.6198 252.418 96.3942 263 102L263 104L260 107L261 108L266 104L267 105C269.2 117.782 273.383 129.811 273.961 143C274.472 154.668 271.095 165.482 271 177L269 177L253 177L255 174L254 173C250.357 175.37 247.367 176.764 243 177L244 178C252.327 179.982 261.479 179 270 179L270 181L246 181L246 183L246 191L248 191L258 191L258 188L259 187L261 187L263 187L263 189C262.966 199.03 258.215 218.92 274 216C274 217.853 273.7 217.35 275 218L275 220L273 220C271.733 223.643 273.408 225.377 277 226L277 223L279 220L281 220L281 222C280.014 223.479 280 223.203 280 225L283 225C287.941 230.302 290.197 232.652 291 240L289 239L286 239L286 241C286.912 244.812 288.14 247.748 292 249L292 247L291 241L292 242C293.12 248.053 293.451 255.254 289 260L289 262C290.941 269.078 285.929 271.065 284 277C273.999 277.512 259.095 286.905 257.619 298.025C257.077 302.111 261.369 308.256 263 312L265 312C274.99 305.41 282.818 299.883 291 291L292 292C293.924 316.38 287.615 331.661 279 354L280 355L282 355L285 345C288.374 346.105 291.092 346.899 294 349L295 348L295 332L293 332L292 333L293 334L293 337L291 337C292.511 319.673 295.427 303.682 294.985 286C294.848 280.516 290.732 276.106 290.952 270.996C291.517 257.884 296.836 245.422 296.996 232C297.259 209.934 294.177 186.848 296 165L295 166L293 170L292 169L292 167C297.255 161.548 296.806 150.314 296.985 143C297.467 123.359 297 103.648 297 84L295 84L143 84z"/>
<path style="fill:#626977; stroke:none;" d="M165 85L165 87L296 88L296 86C285.496 81.5924 267.42 85 256 85L165 85z"/>
<path style="fill:#9a987a; stroke:none;" d="M202 88L202 90C207.897 93.2043 221.356 97.711 224 89C216.626 88.0681 209.433 88 202 88z"/>
<path style="fill:#dfcbc0; stroke:none;" d="M227 90C227.65 91.2997 227.147 91 229 91L224 99L223 97C210.654 97.2562 209.122 107.107 200 113L200 115C207.68 122.954 220.787 121 231 121L231 123L231 127L228 127C218.975 134.118 206.386 127.542 196 130L195 129L196 128L196 126L194 126L189 126L189 128C190.479 128.986 190.203 129 192 129L192 131L186 134L186 136C188.727 138.036 190.726 137.746 194 137L195 138C196.926 140.208 199.125 139.968 202 140L202 142L197 143L197 145C198.386 151.352 211.767 149.764 218 151L218 153L216 153C203.463 153 183.464 159.291 187 142L185 142C176.774 147.191 181.092 160.607 188.001 164.792C197.575 170.592 222.012 156.481 225 175L227 175L238 175L238 173L237 167L239 167C242 174.791 242 181.743 242 190L239 190C235.04 191.171 231.113 191 227 191L227 189L227 187L229 187L240 187L240 185C239.052 176.765 230.456 179 224 179C217.32 179 208.315 177.444 202 179.843C194.489 182.697 184.348 196.475 175.263 190.972C163.366 183.766 165.728 159.358 151 155L151 157C151.65 158.3 151.147 158 153 158L153 160C151.7 160.65 152 160.147 152 162L154 162C160.045 169.563 166.523 179.585 169 189L167 189L160 185L160 183L161 180L159 180L155 170L153 170C148.286 180.237 158.077 185.778 155 195L156 196L164 192L163 193C157.533 196.718 152.166 200.534 146 203L146 205L146 207L148 206L152 203L153 204L153 206L154 207L156 207C158.997 205.912 160.052 205.05 161 202L162 203L163 204C159.527 211.099 151.821 212.451 157 221L159 221C164.376 216.477 173.679 214.789 178.146 209.683C181.75 205.562 180.921 198.907 183 194L184 195L184 206L186 206L195 201L195 199L193 199C190.896 199.801 189.663 200.497 188 202L187 201L187 199C188.715 195.396 190.03 193.826 194 193L194 196L197 200L199 200L200 199L199 197L197 195L198 194L199 195C201.942 198.861 205.027 202.199 209 205L208 206L207 205L206 206L206 208L217 221L216 222L214 222L213 223L214 224C217.779 229.972 222.548 235.302 225 242L223 242C212.536 249.495 197.921 257.798 189.894 267.888C187.451 270.959 188.804 274.557 187.486 277.985C185.377 283.473 176.056 289.821 170.591 291.627C166.911 292.844 165.899 288.576 162.791 287.862C159.96 287.212 155.991 288.913 153 289L153 291L153 295L151 295L151 293L149 293C147.457 294.267 146.952 294.489 145 295L145 297L145 300L147 300C151.519 299.951 158.593 297 162.722 299.184C174.957 305.655 166.249 317.394 157.001 320.138C152.789 321.388 148.956 318.041 145 317L145 319C145 328.214 148.618 347.584 143 355L143 357L145 357L258 357L286 357C288.873 356.999 293.905 357.813 295.972 355.258C300.339 349.86 297 330.874 297 324L297 238L296 239C296 250.367 290.672 260.846 290.586 271.985C290.547 277.101 294.845 281.389 294.985 287C295.415 304.234 291.77 320.149 291 337L293 337L293 335L292 333L293 332L295 332L295 334L295 349L293 348C290.84 346.331 288.605 345.853 286 345L285 346L285 348C283.201 350.248 282.507 352.163 282 355L280 355L279 354C290.449 333.088 293.855 314.501 292 291L290 291C282.035 300.117 274.043 306.844 263 312L263 310C261.348 307.101 258.027 302.37 257.998 298.975C257.903 288.109 274.939 277.902 284 277L284 275C289.636 270.874 290.592 266.705 289 260L291 260C292.604 253.488 293.228 247.617 292 241L291 242L292 249L290 249C287.98 245.762 286.487 242.805 286 239L288 239L290 240L291 239L291 237C290.454 230.639 286.511 226.021 280 225L280 223L281 220L279 220C277.902 222.082 277.315 223.67 277 226L275 226C273.116 224.02 272.531 222.69 272 220L274 220L275 219L274 216L272 216C258.663 218.767 263 194.716 263 187L261 187L258 187L258 190L257 191L246 191L246 189L246 181L248 181L270 181L270 179C260.922 179 252.008 179.138 243 178L244 177C248.111 176.778 250.957 175.81 254 173L255 174L253 176L254 177L271 177L271 175C271.889 163.756 274.462 153.439 273.961 142C273.383 128.811 269.2 116.782 267 104L265 104L261 108L260 107L263 102L261 102C256.602 93.7911 242.923 88.9901 235 95L234 94L234 92L227 90z"/>
<path style="fill:#86b489; stroke:none;" d="M158 103L160 103C164.046 101.657 163.953 98.9346 164 95L162 95C157.954 96.3429 158.047 99.0654 158 103z"/>
<path style="fill:#6ec2c1; stroke:none;" d="M240 187L238 187L227 187L227 189L227 191L229 191C233.436 191 237.631 190.811 242 190L242 188C242 180.587 242.533 173.74 239 167L237 167L237 169L238 175L236 175C232.01 175 228.266 175.474 225 173C217.871 174.697 209.867 172.435 203 174.879C195.998 177.371 191.16 183.715 184 186L184 184C180.99 177.86 181.281 169.362 176.721 164.17C173.278 160.248 161.207 154.643 161.207 148.986C161.207 142.962 171.264 139.915 173 134L175 134C183.322 135.948 186.631 120.042 188 114L190 114C202.933 126.933 212.711 130.395 231 127L231 125L231 121L229 121C218.175 121 209.904 120.297 200 116L200 114L206 110L206 108L205 107C202.395 108.468 199.188 111.342 196 110.522C192.1 109.519 189.554 104.826 185.055 107.047C177.603 110.726 180.483 120.935 177.231 126.995C173.39 134.156 165.854 133.123 160.564 137.995C148.123 149.451 170.282 161.591 174.853 169.039C178.202 174.498 177.734 186.863 184.379 189.828C188.631 191.725 195.732 184.171 199 182.044C207.339 176.617 239.304 174.336 240 187z"/>
<path style="fill:#aebb78; stroke:none;" d="M188 114L188 117C181.827 123.382 184.74 134.643 173 134L173 137C170.904 138.194 168.919 139.434 166.996 140.903C152.498 151.978 170.844 156.97 177.486 166.039C181.336 171.296 181.747 179.866 184 186L186 186C192.554 182.886 197.96 176.501 205 174.569C210.944 172.937 222.623 177.163 225 170L223 170C212.47 157.943 192.542 172.931 182.874 160.026C173.438 147.431 192.784 134.891 194 153L196 153L218 153L218 151C210.585 149.004 197.977 151.664 197 143L202 143L202 141C198.955 139.667 196.516 139.379 194 137L192 137C188.686 137.499 187.62 136.941 186 134L188 134L192 131L192 129L189 128L189 126L191 126L196 126L196 128L195 129L196 130L197 129C205.814 130.527 217.218 131.786 226 130L226 128L224 128C218.149 128 210.399 129.31 205 126.682C198.429 123.484 195.241 116.032 188 114z"/>
<path style="fill:#537c80; stroke:none;" d="M143 137L143 355L145 355L145 258L146 259L147 261L149 261C153.27 258.751 157.266 256.083 162 255L162 253L162 251L160 251C157.713 251.745 157.081 252.014 155 251L153 251L145 255L145 253L145 237L147 237L154 236L154 234L153 233L151 233L145 235L145 233L145 164C145 156.573 147.588 143.056 143 137z"/>
<path style="fill:#fcfafa; stroke:none;" d="M234 143L234 146L233 147L231 147C231.004 151.812 231.411 154.889 234 159L236 159L236 157L236 143L234 143z"/>
<path style="fill:#6fc2c1; stroke:none;" d="M187.303 145.047C182.846 147.872 186.74 156.67 191.683 153.914C196.34 151.316 192.399 141.818 187.303 145.047z"/>
<path style="fill:#bdbec2; stroke:none;" d="M138 179L138 368L139 367L139 235L139 197C139 191.381 140.189 184.217 138 179z"/>
<path style="fill:#94a5a0; stroke:none;" d="M142 192L142 355L143 354L143 240C143 226.485 147.206 204.407 142 192z"/>
<path style="fill:#7cb180; stroke:none;" d="M163 248L163 250C167.268 259.233 149.992 258.112 150.539 266.104C150.953 272.168 164.086 295.098 171.428 291.756C176.756 289.331 185.133 284.482 187.617 278.957C189.152 275.541 187.518 271.788 189.897 268.666C197.301 258.951 214.105 247.42 225 242L225 240C220.508 231.562 214.514 223.915 209.164 216C207.373 213.35 205.053 208.402 201.816 207.306C198.237 206.094 194.138 210.442 191.428 212.204C187.525 214.743 186.104 218.631 182.69 220.977C176.673 225.112 168.214 226.598 163.654 233.22C159.953 238.595 169.677 242.276 163 248z"/>
<path style="fill:#7b787a; stroke:none;" d="M218 219L218 221L218 223L220 223L222 223L222 221L222 219L220 219L218 219z"/>
<path style="fill:#8d9db8; stroke:none;" d="M155 240L156 241C158.217 239.837 159.394 238.914 161 237L160 236C157.783 237.163 156.606 238.086 155 240z"/>
<path style="fill:#6ec2c1; stroke:none;" d="M235 249L235 251C234.586 254.746 231.655 256.717 230 260L232 260C232.901 269.511 226.277 267.864 220 271.637C215.828 274.145 211.803 278.411 208.59 282.039C200.398 291.29 194.574 302.686 185 310.674C178.987 315.691 168.19 318.009 163.604 324.213C160.643 328.219 163.52 333.488 162.536 338C161.102 344.576 155.744 349.408 155 356L157 356L183 353.439L197 356L197 354C194.261 352.537 192.521 351.788 191 349L189 349L184 349L184 347L186 346L186 344L184 344L178 344L178 342L178 338L180 338C193.056 337.999 198.221 326.96 208 319.364C226.217 305.214 247.903 299.643 265 282.985C267.673 280.381 272.025 277.305 273.378 273.715C278.686 259.626 258.216 256.077 249 256L249 254C244.869 251.388 239.827 249.723 235 249z"/>
<path style="fill:#b39f9f; stroke:none;" d="M145 295L147 295L149 293L151 293L151 295L153 295L153 293L153 289L155 289L161 288L160 286C151.976 279.242 145.596 286.036 145 295z"/>
<path style="fill:#79ca9e; stroke:none;" d="M145 300L145 302L145 308L147 308L148 310L150 310L150 308C151.291 303.683 155.855 301.951 160 301L160 303C157.107 308.658 149.398 309.878 150 317L152 317L152 315L153 314L154 316C155.513 317.653 156.181 318.894 157 321L159 320C167.179 314.994 171.356 313.661 166.625 304.005C165.658 302.03 164.911 299.59 162.722 298.654C157.792 296.545 150.276 299.982 145 300z"/>
<path style="fill:#30c587; stroke:none;" d="M150 310L148 310C147.02 308.217 147.092 308.406 145 308L145 310C145.089 317.446 149.719 320.604 157 321L157 319L154 314L152 314L152 316L151 317L150 316C151.588 309.205 159.426 308.457 160 301L158 301C153.278 302.733 149.827 304.596 150 310z"/>
<path style="fill:#9f8985; stroke:none;" d="M244 308L244 310L247 311L247 309L244 308z"/>
<path style="fill:#b6a5a6; stroke:none;" d="M241 340L243 340L261 339L261 337L261 331L259 331L253 331L253 333L259 333L259 335L259 337L257 337L243 338L243 336L243 334L245 334L251 334L251 332L250 331C243.552 332.221 241.083 333.013 241 340z"/>
<path style="fill:#78797b; stroke:none;" d="M204.059 363.742C198.843 365.925 198.847 374.213 204.109 376.397C209.941 378.817 230.404 379.005 235.941 375.972C241.97 372.67 239.918 365.326 233.995 363.514C227.401 361.496 210.44 361.072 204.059 363.742z"/>
<path style="fill:#e9eaed; stroke:none;" d="M204.319 367.028C200.915 369.318 202.575 373.725 206.059 374.682C211.247 376.108 231.506 377.316 235.396 373.397C238.141 370.631 236.453 366.746 232.941 366.148C226.91 365.121 209.442 363.58 204.319 367.028z"/>
<path style="fill:#4b4c51; stroke:none;" d="M137 370L137 372C146.059 394.08 172.922 388 193 388L192 387C177.444 387 143.082 389.97 140 370L137 370z"/>
<path style="fill:#d7d9db; stroke:none;" d="M163 389L164 390L251 390L250 389L163 389z"/>
</svg>
